<svg width="16" height="16" viewBox="0 0 16 16" fill="none" xmlns="http://www.w3.org/2000/svg">
<path d="M7.51527 13.5412C7.45512 13.6048 7.4081 13.6797 7.37689 13.7615C7.34568 13.8433 7.33089 13.9305 7.33337 14.018C7.33584 14.1056 7.35554 14.1918 7.39132 14.2717C7.42711 14.3516 7.47829 14.4237 7.54193 14.4839C7.60558 14.544 7.68045 14.591 7.76227 14.6222C7.84409 14.6534 7.93126 14.6682 8.01879 14.6657C8.10633 14.6633 8.19252 14.6436 8.27244 14.6078C8.35236 14.572 8.42446 14.5208 8.4846 14.4572L14.1513 8.45718C14.2683 8.3334 14.3335 8.16952 14.3335 7.99918C14.3335 7.82884 14.2683 7.66496 14.1513 7.54118L8.4846 1.54052C8.42485 1.47547 8.35277 1.42295 8.27256 1.386C8.19234 1.34905 8.10558 1.32841 8.01732 1.32528C7.92905 1.32214 7.84105 1.33657 7.75841 1.36774C7.67577 1.3989 7.60015 1.44617 7.53594 1.50681C7.47172 1.56745 7.4202 1.64024 7.38435 1.72096C7.34851 1.80167 7.32906 1.88871 7.32714 1.97701C7.32521 2.06531 7.34085 2.15311 7.37315 2.23531C7.40545 2.31751 7.45375 2.39247 7.51527 2.45585L12.7499 7.99918L7.51527 13.5412Z" fill="#6C6C6C"/>
</svg>
