<svg width="73" height="57" viewBox="0 0 73 57" fill="none" xmlns="http://www.w3.org/2000/svg">
<g id="icon ">
<path id="Vector 56" d="M13.2323 3.97524C5.6085 0.775243 4.70568 7.97524 5.20725 11.9752L21.2575 24.9746C24.7685 21.3079 31.8907 12.6746 32.292 7.47461C32.6933 2.27461 27.4435 2.97503 24.7685 3.97524C20.3547 -3.22431 15.2386 0.975431 13.2323 3.97524Z" fill="#AED581"/>
<path id="Vector 57" d="M45.3319 3.97524C37.7081 0.775243 36.8053 7.97524 37.3069 11.9752L53.3571 24.9746C56.8681 21.3079 63.9904 12.6746 64.3916 7.47461C64.7929 2.27461 59.5431 2.97503 56.8681 3.97524C52.4543 -3.22431 47.3382 0.975431 45.3319 3.97524Z" fill="#689F38"/>
<g id="Group 98">
<path id="Vector 55" d="M21.1431 22L7.60081 13L4.08984 14V28.5L23.651 29.5L21.1431 22Z" fill="#FF8A65"/>
<path id="Vector 54" d="M9.10588 14L3.58864 10C-0.825146 12.8 -0.256704 24.1667 0.579241 29.5C5.59491 31.8333 14.3222 35.1 9.10588 29.5C3.88958 23.9 6.93242 16.8333 9.10588 14Z" fill="#FF6458"/>
</g>
<g id="Group 97">
<path id="Vector 52" d="M72.0648 10.7654C53.6072 7.56538 45.5088 15.0482 43.8369 21.2148C42.165 25.8816 42.8736 38.9658 58.5225 37.7658C74.1714 36.5658 74.0711 19.2655 72.0648 10.7654Z" fill="#8BC34A"/>
<path id="Vector 53" d="M60.7677 21.0511C57.1565 20.2511 47.5598 29.0511 43.2129 33.5511C47.5598 37.551 54.9496 44.0508 49.7333 38.0508C44.517 32.0508 54.9161 24.2176 60.7677 21.0511Z" fill="#DCEDC8"/>
</g>
<rect id="Rectangle 42" x="24.1523" y="52" width="24.0752" height="5" fill="#006B6B"/>
<path id="Vector 51" d="M69.2928 37H3.08594C6.24805 46.6709 18.5671 51.5414 24.3314 52.7678C27.6253 52.943 37.0787 53.1883 48.5414 52.7678C60.0041 52.3474 67.1518 42.0807 69.2928 37Z" fill="#00BCD4"/>
<g id="Group 96">
<path id="Ellipse 18" d="M49.4835 20.5C49.4835 28.0917 43.3092 34.25 35.688 34.25C28.0668 34.25 21.8926 28.0917 21.8926 20.5C21.8926 12.9083 28.0668 6.75 35.688 6.75C43.3092 6.75 49.4835 12.9083 49.4835 20.5Z" fill="#C5E1A5" stroke="#558B2F" stroke-width="1.5"/>
<ellipse id="Ellipse 19" cx="30.1715" cy="24" rx="3.0094" ry="3" fill="#FFFDE7"/>
<ellipse id="Ellipse 20" cx="36.1891" cy="14" rx="3.0094" ry="3" fill="#FFFDE7"/>
<ellipse id="Ellipse 21" cx="42.2086" cy="24" rx="3.0094" ry="3" fill="#FFFDE7"/>
</g>
<path id="Rectangle 43" d="M0.078125 28H72.3038V34C72.3038 36.2091 70.5129 38 68.3038 38H4.07813C1.86899 38 0.078125 36.2091 0.078125 34V28Z" fill="#006B6B"/>
</g>
</svg>
