<svg width="80" height="80" fill="none" xmlns="http://www.w3.org/2000/svg"><path d="m70.974 20-4.809 29.163a1 1 0 0 1-.986.837H21.496a1 1 0 0 1-.986-.837l-4.67-28.326a1 1 0 0 0-.987-.837H6.667" stroke="#6C6C6C" stroke-width="2" stroke-linecap="round" stroke-linejoin="round"/><path clip-rule="evenodd" d="M26.667 66.667a3.333 3.333 0 1 0 0-6.667 3.333 3.333 0 0 0 0 6.667zM60 66.667A3.333 3.333 0 1 0 60 60a3.333 3.333 0 0 0 0 6.667z" stroke="#6C6C6C" stroke-width="2"/><path d="M53.334 26.667h-20M43.334 16.667v20" stroke="#6C6C6C" stroke-width="2" stroke-linecap="round"/></svg>