<svg xmlns="http://www.w3.org/2000/svg" width="11" height="21" viewBox="0 0 11 21" fill="none">
	<path d="M10.7271 1.68725C10.8173 1.59178 10.8878 1.47947 10.9347 1.35674C10.9815 1.23401 11.0037 1.10327 10.9999 0.971965C10.9962 0.840663 10.9667 0.711378 10.913 0.591492C10.8593 0.471606 10.7826 0.363467 10.6871 0.273249C10.5916 0.183031 10.4793 0.112501 10.3566 0.0656852C10.2339 0.0188697 10.1031 -0.00331434 9.97181 0.000400002C9.84051 0.00411435 9.71123 0.0336542 9.59134 0.0873329C9.47146 0.141012 9.36332 0.217778 9.2731 0.313249L0.773098 9.31325C0.597562 9.49892 0.499756 9.74474 0.499756 10.0002C0.499756 10.2558 0.597562 10.5016 0.773098 10.6872L9.2731 19.6882C9.36272 19.7858 9.47084 19.8646 9.59116 19.92C9.71149 19.9754 9.84163 20.0064 9.97402 20.0111C10.1064 20.0158 10.2384 19.9942 10.3624 19.9474C10.4863 19.9007 10.5998 19.8298 10.6961 19.7388C10.7924 19.6479 10.8697 19.5387 10.9235 19.4176C10.9772 19.2965 11.0064 19.166 11.0093 19.0335C11.0122 18.9011 10.9887 18.7694 10.9403 18.6461C10.8918 18.5228 10.8194 18.4103 10.7271 18.3153L2.8751 10.0002L10.7271 1.68725Z" fill="#1A1A1A"/>
</svg>
