<svg xmlns="http://www.w3.org/2000/svg" width="24" height="24" viewBox="0 0 24 24" fill="none">
	<path d="M11.273 20.3128C11.1828 20.4082 11.1123 20.5205 11.0655 20.6433C11.0186 20.766 10.9965 20.8967 11.0002 21.028C11.0039 21.1593 11.0334 21.2886 11.0871 21.4085C11.1408 21.5284 11.2176 21.6365 11.313 21.7268C11.4085 21.817 11.5208 21.8875 11.6435 21.9343C11.7663 21.9811 11.897 22.0033 12.0283 21.9996C12.1596 21.9959 12.2889 21.9663 12.4088 21.9127C12.5287 21.859 12.6368 21.7822 12.727 21.6868L21.227 12.6868C21.4026 12.5011 21.5004 12.2553 21.5004 11.9998C21.5004 11.7442 21.4026 11.4984 21.227 11.3128L12.727 2.31175C12.6374 2.21419 12.5293 2.13541 12.409 2.07998C12.2886 2.02456 12.1585 1.9936 12.0261 1.98889C11.8937 1.98419 11.7617 2.00584 11.6377 2.05258C11.5138 2.09933 11.4003 2.17024 11.304 2.26119C11.2077 2.35215 11.1304 2.46134 11.0766 2.58241C11.0229 2.70349 10.9937 2.83404 10.9908 2.96649C10.9879 3.09894 11.0114 3.23064 11.0598 3.35394C11.1083 3.47724 11.1808 3.58969 11.273 3.68475L19.125 11.9998L11.273 20.3128Z" fill="#1A1A1A"/>
</svg>
