<svg width="50" height="80" viewBox="0 0 50 80" fill="none" xmlns="http://www.w3.org/2000/svg">
<g id="icon">
<path id="Vector 45" d="M49 34.7168C54.6 54.4401 35.3333 73.1235 25 79.9998V58.3646L49 34.7168Z" fill="#8BC249"/>
<path id="Vector 46" d="M1.00065 34.7168C-4.5992 54.4401 14.6669 73.1235 25 79.9998V58.3646L1.00065 34.7168Z" fill="#0B552B"/>
<path id="Vector 47" d="M41.5 14.5918L25 30.6924V58.3654L49 34.7176C47 24.6547 43.1667 17.1075 41.5 14.5918Z" fill="#AED580"/>
<path id="Vector 49" d="M8.5 14.5918L25 30.8775V58.8685L1 34.9489C3 24.7704 6.83333 17.1364 8.5 14.5918Z" fill="#0B8142"/>
<path id="Vector 48" d="M25 0V30.6918L41.5 14.5912C36.5 7.04403 29.1667 1.67715 25 0Z" fill="#B7FF65"/>
<path id="Vector 50" d="M25 0.503906V30.6926V32.202L8 15.5982C11.6 8.35296 20.8333 2.51648 25 0.503906Z" fill="#32AC71"/>
</g>
</svg>
