<svg xmlns="http://www.w3.org/2000/svg" width="28" height="28" viewBox="0 0 28 28" fill="none">
	<path fill-rule="evenodd" clip-rule="evenodd" d="M4.44087 7.24086C5.49103 6.19103 6.91515 5.60126 8.40007 5.60126C9.88499 5.60126 11.3091 6.19103 12.3593 7.24086L14.0001 8.88026L15.6409 7.24086C16.1575 6.70601 16.7754 6.27939 17.4586 5.9859C18.1418 5.69241 18.8767 5.53792 19.6202 5.53146C20.3638 5.525 21.1012 5.66669 21.7894 5.94826C22.4776 6.22984 23.1029 6.64565 23.6287 7.17145C24.1545 7.69725 24.5703 8.3225 24.8519 9.01072C25.1334 9.69894 25.2751 10.4363 25.2687 11.1799C25.2622 11.9235 25.1077 12.6583 24.8142 13.3415C24.5207 14.0248 24.0941 14.6427 23.5593 15.1593L14.0001 24.7199L4.44087 15.1593C3.39104 14.1091 2.80127 12.685 2.80127 11.2001C2.80127 9.71514 3.39104 8.29102 4.44087 7.24086V7.24086Z" stroke="#1A1A1A" stroke-width="2" stroke-linejoin="round"/>
</svg>
