<svg width="24" height="24" viewBox="0 0 24 24" fill="none" xmlns="http://www.w3.org/2000/svg">
<path d="M12 21.0004L10.55 19.7004C8.86667 18.1837 7.475 16.8754 6.375 15.7754C5.275 14.6754 4.4 13.6877 3.75 12.8124C3.1 11.9377 2.646 11.1337 2.388 10.4004C2.13 9.66706 2.00067 8.91706 2 8.15039C2 6.58372 2.525 5.27539 3.575 4.22539C4.625 3.17539 5.93333 2.65039 7.5 2.65039C8.36667 2.65039 9.19167 2.83372 9.975 3.20039C10.7583 3.56706 11.4333 4.08372 12 4.75039C12.5667 4.08372 13.2417 3.56706 14.025 3.20039C14.8083 2.83372 15.6333 2.65039 16.5 2.65039C18.0667 2.65039 19.375 3.17539 20.425 4.22539C21.475 5.27539 22 6.58372 22 8.15039C22 8.91706 21.8707 9.66706 21.612 10.4004C21.3533 11.1337 20.8993 11.9377 20.25 12.8124C19.6 13.6877 18.725 14.6754 17.625 15.7754C16.525 16.8754 15.1333 18.1837 13.45 19.7004L12 21.0004ZM12 18.3004C13.6 16.8671 14.9167 15.6377 15.95 14.6124C16.9833 13.5871 17.8 12.6957 18.4 11.9384C19 11.1797 19.4167 10.5044 19.65 9.91239C19.8833 9.32039 20 8.73306 20 8.15039C20 7.15039 19.6667 6.31706 19 5.65039C18.3333 4.98372 17.5 4.65039 16.5 4.65039C15.7167 4.65039 14.9917 4.87106 14.325 5.31239C13.6583 5.75372 13.2 6.31639 12.95 7.00039H11.05C10.8 6.31706 10.3417 5.75439 9.675 5.31239C9.00833 4.87039 8.28333 4.64972 7.5 4.65039C6.5 4.65039 5.66667 4.98372 5 5.65039C4.33333 6.31706 4 7.15039 4 8.15039C4 8.73372 4.11667 9.32139 4.35 9.91339C4.58333 10.5054 5 11.1804 5.6 11.9384C6.2 12.6964 7.01667 13.5881 8.05 14.6134C9.08333 15.6387 10.4 16.8677 12 18.3004Z" fill="#1A1A1A"/>
</svg>
