<svg width="384" height="396" viewBox="0 0 384 396" fill="none" xmlns="http://www.w3.org/2000/svg">
<path fill-rule="evenodd" clip-rule="evenodd" d="M282.296 107.424C279.275 98.5582 277.885 89.1583 276.558 79.8861C270.245 35.7899 234.6 5 191.573 5C147.729 5 111.551 38.9696 106.26 82.8699C105.376 90.2038 104.331 97.8105 102.102 104.853C96.7081 121.9 92.3822 136.982 89.0191 150.307C82.2695 165.962 74.8865 187.2 66.2043 215.787C58.4563 241.297 53.0114 268.601 60.7467 294.116C77.7447 350.183 129.886 391 191.573 391C257.345 391 312.265 344.598 325.306 282.783C329.21 264.283 325.812 245.038 320.75 226.82C309.629 186.793 300.596 159.416 292.405 140.988C289.852 130.936 286.51 119.786 282.296 107.424Z" fill="#C8E08D"/>
<path d="M276.558 79.8861L281.508 79.1775L281.508 79.1775L276.558 79.8861ZM282.296 107.424L287.029 105.811L287.029 105.811L282.296 107.424ZM106.26 82.8699L101.296 82.2716L101.296 82.2716L106.26 82.8699ZM102.102 104.853L106.869 106.362L106.869 106.362L102.102 104.853ZM89.0191 150.307L93.6105 152.287L93.769 151.919L93.867 151.531L89.0191 150.307ZM66.2043 215.787L70.9885 217.24L70.9885 217.24L66.2043 215.787ZM60.7467 294.116L55.9618 295.566L55.9618 295.566L60.7467 294.116ZM325.306 282.783L320.414 281.751L320.414 281.751L325.306 282.783ZM320.75 226.82L315.933 228.158L320.75 226.82ZM292.405 140.988L287.559 142.219L287.664 142.631L287.836 143.019L292.405 140.988ZM271.608 80.5947C272.927 89.8072 274.368 99.6616 277.564 109.037L287.029 105.811C284.181 97.4547 282.844 88.5094 281.508 79.1775L271.608 80.5947ZM191.573 10C232.067 10 265.642 38.9163 271.608 80.5947L281.508 79.1775C274.848 32.6636 237.133 2.98023e-07 191.573 2.98023e-07V10ZM111.224 83.4681C116.232 41.9132 150.424 10 191.573 10V2.98023e-07C145.035 2.98023e-07 106.87 36.026 101.296 82.2716L111.224 83.4681ZM106.869 106.362C109.254 98.8248 110.341 90.7965 111.224 83.4681L101.296 82.2716C100.411 89.6111 99.4072 96.7961 97.335 103.345L106.869 106.362ZM93.867 151.531C97.2011 138.321 101.498 123.336 106.869 106.362L97.335 103.345C91.918 120.465 87.5633 135.644 84.1711 149.083L93.867 151.531ZM70.9885 217.24C79.6515 188.717 86.971 167.686 93.6105 152.287L84.4276 148.327C77.568 164.237 70.1215 185.684 61.4201 214.334L70.9885 217.24ZM65.5316 292.665C58.2553 268.664 63.2855 242.602 70.9885 217.24L61.4201 214.334C53.627 239.993 47.7675 268.538 55.9618 295.566L65.5316 292.665ZM191.573 386C132.146 386 81.9073 346.68 65.5316 292.665L55.9618 295.566C73.582 353.686 127.626 396 191.573 396V386ZM320.414 281.751C307.852 341.296 254.937 386 191.573 386V396C259.752 396 316.679 347.899 330.199 283.816L320.414 281.751ZM315.933 228.158C320.936 246.165 324.063 264.455 320.414 281.751L330.199 283.816C334.356 264.11 330.688 243.911 325.568 225.481L315.933 228.158ZM287.836 143.019C295.87 161.093 304.824 188.174 315.933 228.158L325.568 225.481C314.435 185.413 305.322 157.739 296.974 138.958L287.836 143.019ZM277.564 109.037C281.742 121.297 285.044 132.318 287.559 142.219L297.251 139.758C294.66 129.554 291.277 118.275 287.029 105.811L277.564 109.037Z" fill="#967C65"/>
<ellipse cx="189.088" cy="260" rx="81.5057" ry="82" fill="#5B6641"/>
<path d="M270.096 255.5C270.096 300.787 232.114 337.5 187.1 337.5C154.392 337.5 126.183 320.077 113.205 291.752C102.864 269.184 105.937 242.151 117.998 220.452C133.16 193.173 158.701 177.5 190.579 177.5C226.859 177.5 270.096 210.213 270.096 255.5Z" fill="#627535"/>
<path d="M178.154 146.742C182.959 142.409 194.953 136.342 204.495 146.742" stroke="black" stroke-width="5" stroke-linecap="round"/>
<path d="M149.457 225C135.761 237.329 132.024 254.025 129.462 251.144C126.9 248.263 127.528 226.112 141.223 213.783C154.919 201.455 176.496 203.617 179.058 206.498C181.621 209.379 163.153 212.672 149.457 225Z" fill="#5B6641"/>
<ellipse cx="156.784" cy="119.5" rx="14.4129" ry="14.5" fill="#111112"/>
<ellipse cx="261.649" cy="139" rx="7.9526" ry="8" fill="#EEAACD"/>
<ellipse cx="122.493" cy="139" rx="7.9526" ry="8" fill="#EEAACD"/>
<ellipse cx="151.814" cy="118.5" rx="4.47334" ry="4.5" fill="#FAF0E9"/>
<ellipse cx="225.368" cy="119.5" rx="14.4129" ry="14.5" fill="#111112"/>
<ellipse cx="220.398" cy="118.5" rx="4.47334" ry="4.5" fill="#FAF0E9"/>
<ellipse cx="229.345" cy="125.5" rx="2.48519" ry="2.5" fill="#FAF0E9"/>
<ellipse cx="162.748" cy="125.5" rx="2.48519" ry="2.5" fill="#FAF0E9"/>
<path d="M181.137 21C169.858 21.9345 150.821 25.542 133.475 50.3217C123.676 64.3192 120.73 81.8691 117.284 98.6042C115.861 105.514 114.285 112.322 113.05 117.5C110.068 130 98.1406 162.5 78.2607 226C71.3731 248 68.701 271.5 74.7818 287.5C87.7035 321.5 96.6491 341 151.814 371" stroke="#E9F0BD" stroke-width="8" stroke-linecap="round"/>
<path d="M63.8 215.8C58.6 222.6 53.0667 230 47.2 238C41.3333 246 36.4 254.2 32.4 262.6H63.8V215.8ZM93 179.4V262.6H107.8V287H93V318H63.8V287H4V265.2C6.93333 259.333 10.6 252.733 15 245.4C19.4 237.933 24.2667 230.333 29.6 222.6C35.0667 214.733 40.8 207.067 46.8 199.6C52.8 192.133 58.8 185.4 64.8 179.4H93Z" fill="#293929"/>
<path d="M334.8 215.8C329.6 222.6 324.067 230 318.2 238C312.333 246 307.4 254.2 303.4 262.6H334.8V215.8ZM364 179.4V262.6H378.8V287H364V318H334.8V287H275V265.2C277.933 259.333 281.6 252.733 286 245.4C290.4 237.933 295.267 230.333 300.6 222.6C306.067 214.733 311.8 207.067 317.8 199.6C323.8 192.133 329.8 185.4 335.8 179.4H364Z" fill="#293929"/>
</svg>
