<svg xmlns="http://www.w3.org/2000/svg" width="24" height="24" viewBox="0 0 24 24" fill="none">
	<path d="M10.9202 2.86868C11.0303 2.67984 11.1879 2.52316 11.3774 2.41426C11.5669 2.30536 11.7817 2.24805 12.0002 2.24805C12.2188 2.24805 12.4335 2.30536 12.623 2.41426C12.8125 2.52316 12.9702 2.67984 13.0802 2.86868L15.5002 8L21.3032 8.84268C21.5167 8.88908 21.7144 8.99063 21.8764 9.13721C22.0384 9.2838 22.1592 9.47029 22.2267 9.67811C22.2942 9.88592 22.306 10.1078 22.261 10.3216C22.216 10.5354 22.1157 10.7337 21.9702 10.8967L18.2702 15.0377L18.8302 20.5627C18.8523 20.7802 18.817 20.9998 18.7277 21.1994C18.6384 21.399 18.4983 21.5717 18.3214 21.7002C18.1444 21.8288 17.9369 21.9086 17.7195 21.9319C17.502 21.9551 17.2823 21.9209 17.0822 21.8327L12.0002 19L6.91823 21.8327C6.71815 21.9209 6.49842 21.9551 6.28098 21.9319C6.06355 21.9086 5.85601 21.8288 5.6791 21.7002C5.50219 21.5717 5.36209 21.399 5.2728 21.1994C5.1835 20.9998 5.14814 20.7802 5.17023 20.5627L5.73023 15.0377L2.03023 10.8977C1.88446 10.7347 1.78398 10.5363 1.73884 10.3224C1.6937 10.1085 1.70547 9.88641 1.77297 9.67844C1.84048 9.47046 1.96135 9.28383 2.12354 9.13718C2.28572 8.99053 2.48353 8.88898 2.69723 8.84268L8.50024 8L10.9202 2.86868Z" fill="#F5B63B"/>
</svg>
