<svg xmlns="http://www.w3.org/2000/svg" width="112" height="105" viewBox="0 0 112 105" fill="none">
	<rect width="112" height="105" rx="8" fill="white"/>
	<path d="M16.4571 54.7616L26.0857 36.6461C26.9143 35.0917 28.5429 34.1309 30.3143 34.1309H50.2857L53.1429 59.566L16 56.7399C16 55.9769 16.1429 55.4682 16.4571 54.7616Z" fill="#E6E6E6"/>
	<path d="M16.8857 53.911H35.7143C37.4572 53.911 38.8572 52.5261 38.8572 50.8022V40.0912C38.8572 38.3672 37.4572 36.9824 35.7143 36.9824H25.9429L16.8857 53.911Z" fill="#26C9FC"/>
	<path d="M16 56.7401V71.5208C16 74.2904 18.2857 76.5513 21.0857 76.5513H90.8571C93.6857 76.5513 96 74.2621 96 71.4643V56.7401L74.5714 48.2617L50.2857 56.7401H16Z" fill="#FF822D"/>
	<path d="M44.5715 75.1083C44.5715 80.5712 40.0944 84.9997 34.5715 84.9997C29.0487 84.9997 24.5715 80.5712 24.5715 75.1083C24.5715 69.6453 29.0487 65.2168 34.5715 65.2168C40.0944 65.2168 44.5715 69.6453 44.5715 75.1083ZM87.4287 75.1083C87.4287 80.5712 82.9515 84.9997 77.4287 84.9997C71.9058 84.9997 67.4287 80.5712 67.4287 75.1083C67.4287 69.6453 71.9058 65.2168 77.4287 65.2168C82.9515 65.2168 87.4287 69.6453 87.4287 75.1083Z" fill="#321B41"/>
	<path d="M38.8573 75.1103C38.8573 77.4515 36.9385 79.3495 34.5716 79.3495C32.2047 79.3495 30.2859 77.4515 30.2859 75.1103C30.2859 72.7691 32.2047 70.8711 34.5716 70.8711C36.9385 70.8711 38.8573 72.7691 38.8573 75.1103ZM81.7145 75.1103C81.7145 77.4515 79.7956 79.3495 77.4287 79.3495C75.0619 79.3495 73.143 77.4515 73.143 75.1103C73.143 72.7691 75.0619 70.8711 77.4287 70.8711C79.7956 70.8711 81.7145 72.7691 81.7145 75.1103Z" fill="#F4F4F4"/>
	<path d="M95.9998 62.3926H94.5712C92.1426 62.3926 90.1712 64.3991 90.2855 66.8296C90.3998 69.1188 92.3998 70.871 94.7141 70.871H95.9998V62.3926Z" fill="#CA0B4A"/>
	<path d="M58.8571 20H87.4286C92.1714 20 96 23.787 96 28.4784V56.7397H50.2857V28.4784C50.2857 23.787 54.1143 20 58.8571 20ZM16 70.8704H18.6C20.3143 70.8704 21.7143 69.4856 21.7143 67.7899V62.6463C21.7143 60.9507 20.3143 59.5659 18.6 59.5659H16V70.8704Z" fill="#FCD53F"/>
</svg>
