<svg width="20" height="20" viewBox="0 0 20 20" fill="none" xmlns="http://www.w3.org/2000/svg">
<rect width="20" height="20" fill="#F5F5F5"/>
<rect width="2877" height="3054" transform="translate(-918 -2757)" fill="white"/>
<g filter="url(#filter0_d_15_266)">
<rect width="1280" height="100" transform="translate(-833 -40)" fill="white"/>
<rect x="-15.5" y="-7.5" width="230" height="35" rx="7.5" fill="white"/>
<path d="M17.5 17.5L12.5 12.5M2.5 8.33333C2.5 9.09938 2.65088 9.85792 2.94404 10.5657C3.23719 11.2734 3.66687 11.9164 4.20854 12.4581C4.75022 12.9998 5.39328 13.4295 6.10101 13.7226C6.80875 14.0158 7.56729 14.1667 8.33333 14.1667C9.09938 14.1667 9.85792 14.0158 10.5657 13.7226C11.2734 13.4295 11.9164 12.9998 12.4581 12.4581C12.9998 11.9164 13.4295 11.2734 13.7226 10.5657C14.0158 9.85792 14.1667 9.09938 14.1667 8.33333C14.1667 7.56729 14.0158 6.80875 13.7226 6.10101C13.4295 5.39328 12.9998 4.75022 12.4581 4.20854C11.9164 3.66687 11.2734 3.23719 10.5657 2.94404C9.85792 2.65088 9.09938 2.5 8.33333 2.5C7.56729 2.5 6.80875 2.65088 6.10101 2.94404C5.39328 3.23719 4.75022 3.66687 4.20854 4.20854C3.66687 4.75022 3.23719 5.39328 2.94404 6.10101C2.65088 6.80875 2.5 7.56729 2.5 8.33333Z" stroke="#B8B8B8" stroke-width="2" stroke-linecap="round" stroke-linejoin="round"/>
<rect x="-15.5" y="-7.5" width="230" height="35" rx="7.5" stroke="#59BF35"/>
</g>
<defs>
<filter id="filter0_d_15_266" x="-851" y="-58" width="1320" height="140" filterUnits="userSpaceOnUse" color-interpolation-filters="sRGB">
<feFlood flood-opacity="0" result="BackgroundImageFix"/>
<feColorMatrix in="SourceAlpha" type="matrix" values="0 0 0 0 0 0 0 0 0 0 0 0 0 0 0 0 0 0 127 0" result="hardAlpha"/>
<feOffset dx="2" dy="2"/>
<feGaussianBlur stdDeviation="10"/>
<feComposite in2="hardAlpha" operator="out"/>
<feColorMatrix type="matrix" values="0 0 0 0 0 0 0 0 0 0 0 0 0 0 0 0 0 0 0.1 0"/>
<feBlend mode="normal" in2="BackgroundImageFix" result="effect1_dropShadow_15_266"/>
<feBlend mode="normal" in="SourceGraphic" in2="effect1_dropShadow_15_266" result="shape"/>
</filter>
</defs>
</svg>
