<svg width="27" height="28" viewBox="0 0 27 28" fill="none" xmlns="http://www.w3.org/2000/svg">
<g id="tabler:search">
<path id="Vector" d="M23.625 24.125L16.875 17.375M3.375 11.75C3.375 12.7842 3.57869 13.8082 3.97445 14.7636C4.3702 15.7191 4.95027 16.5872 5.68153 17.3185C6.4128 18.0497 7.28093 18.6298 8.23637 19.0256C9.19181 19.4213 10.2158 19.625 11.25 19.625C12.2842 19.625 13.3082 19.4213 14.2636 19.0256C15.2191 18.6298 16.0872 18.0497 16.8185 17.3185C17.5497 16.5872 18.1298 15.7191 18.5256 14.7636C18.9213 13.8082 19.125 12.7842 19.125 11.75C19.125 10.7158 18.9213 9.69181 18.5256 8.73637C18.1298 7.78093 17.5497 6.9128 16.8185 6.18153C16.0872 5.45027 15.2191 4.8702 14.2636 4.47445C13.3082 4.07869 12.2842 3.875 11.25 3.875C10.2158 3.875 9.19181 4.07869 8.23637 4.47445C7.28093 4.8702 6.4128 5.45027 5.68153 6.18153C4.95027 6.9128 4.3702 7.78093 3.97445 8.73637C3.57869 9.69181 3.375 10.7158 3.375 11.75Z" stroke="#2B7A0F" stroke-width="2" stroke-linecap="round" stroke-linejoin="round"/>
</g>
</svg>
