<svg width="27" height="28" viewBox="0 0 27 28" fill="none" xmlns="http://www.w3.org/2000/svg">
<g id="uil:shopping-trolley">
<path id="Vector" d="M9.5625 21.875C9.22874 21.875 8.90248 21.974 8.62498 22.1594C8.34747 22.3448 8.13118 22.6084 8.00345 22.9167C7.87573 23.2251 7.84231 23.5644 7.90742 23.8917C7.97254 24.2191 8.13326 24.5197 8.36926 24.7557C8.60526 24.9917 8.90594 25.1525 9.23328 25.2176C9.56063 25.2827 9.89993 25.2493 10.2083 25.1215C10.5166 24.9938 10.7802 24.7775 10.9656 24.5C11.151 24.2225 11.25 23.8963 11.25 23.5625C11.25 23.1149 11.0722 22.6857 10.7557 22.3693C10.4393 22.0528 10.0101 21.875 9.5625 21.875ZM21.375 18.5H7.875C7.57663 18.5 7.29048 18.3815 7.0795 18.1705C6.86853 17.9595 6.75 17.6734 6.75 17.375C6.75 17.0766 6.86853 16.7905 7.0795 16.5795C7.29048 16.3685 7.57663 16.25 7.875 16.25H17.4274C18.1603 16.2477 18.8728 16.0079 19.4579 15.5666C20.0431 15.1252 20.4694 14.5061 20.673 13.802L22.4561 7.55825C22.5038 7.39092 22.512 7.21481 22.4801 7.04377C22.4482 6.87273 22.3771 6.71142 22.2723 6.57252C22.1675 6.43362 22.032 6.32091 21.8763 6.24326C21.7206 6.16561 21.549 6.12513 21.375 6.125H7.5825C7.34941 5.46914 6.91969 4.90115 6.35193 4.49849C5.78418 4.09583 5.10604 3.8781 4.41 3.875H3.375C3.07663 3.875 2.79048 3.99353 2.5795 4.2045C2.36853 4.41548 2.25 4.70163 2.25 5C2.25 5.29837 2.36853 5.58452 2.5795 5.79549C2.79048 6.00647 3.07663 6.125 3.375 6.125H4.41112C4.65542 6.12578 4.89289 6.20567 5.08799 6.3527C5.28309 6.49973 5.42531 6.706 5.49337 6.94062L5.66775 7.55375V7.55938L7.51388 14.0191C6.65456 14.111 5.86323 14.529 5.30297 15.187C4.74271 15.845 4.4562 16.6928 4.5025 17.5558C4.5488 18.4188 4.92438 19.2311 5.55183 19.8254C6.17928 20.4197 7.01079 20.7506 7.875 20.75H21.375C21.6734 20.75 21.9595 20.6315 22.1705 20.4205C22.3815 20.2095 22.5 19.9234 22.5 19.625C22.5 19.3266 22.3815 19.0405 22.1705 18.8295C21.9595 18.6185 21.6734 18.5 21.375 18.5ZM19.8832 8.375L18.5107 13.1833C18.4428 13.4183 18.3005 13.6249 18.1052 13.7722C17.9098 13.9195 17.672 13.9994 17.4274 14H9.84825L9.56137 12.9965L8.24175 8.375H19.8832ZM18.5625 21.875C18.2287 21.875 17.9025 21.974 17.625 22.1594C17.3475 22.3448 17.1312 22.6084 17.0035 22.9167C16.8757 23.2251 16.8423 23.5644 16.9074 23.8917C16.9725 24.2191 17.1333 24.5197 17.3693 24.7557C17.6053 24.9917 17.9059 25.1525 18.2333 25.2176C18.5606 25.2827 18.8999 25.2493 19.2083 25.1215C19.5166 24.9938 19.7802 24.7775 19.9656 24.5C20.151 24.2225 20.25 23.8963 20.25 23.5625C20.25 23.1149 20.0722 22.6857 19.7557 22.3693C19.4393 22.0528 19.0101 21.875 18.5625 21.875Z" fill="#2B7A0F"/>
</g>
</svg>
