<svg width="280" height="121" viewBox="0 0 280 121" fill="none" xmlns="http://www.w3.org/2000/svg">
<rect x="0.5" y="0.5" width="279" height="120" rx="15.5" fill="white"/>
<rect x="0.5" y="0.5" width="279" height="120" rx="15.5" stroke="#CFCFCF"/>
<rect x="8" y="36" width="53.5211" height="50" rx="8" fill="white"/>
<path d="M15.8643 62.0781L20.4655 53.4516C20.8615 52.7115 21.6397 52.2539 22.4862 52.2539H32.0299L33.3952 64.3659L15.6459 63.0201C15.6459 62.6568 15.7141 62.4145 15.8643 62.0781Z" fill="#E6E6E6"/>
<path d="M16.0691 61.6706H25.0667C25.8995 61.6706 26.5686 61.0111 26.5686 60.1902V55.0897C26.5686 54.2688 25.8995 53.6094 25.0667 53.6094H20.3972L16.0691 61.6706Z" fill="#26C9FC"/>
<path d="M15.6459 63.0178V70.0562C15.6459 71.3751 16.7381 72.4517 18.0762 72.4517H51.4176C52.7693 72.4517 53.8752 71.3616 53.8752 70.0293V63.0178L43.6352 58.9805L32.0299 63.0178H15.6459Z" fill="#FF822D"/>
<path d="M29.2993 71.7649C29.2993 74.3663 27.1598 76.4751 24.5206 76.4751C21.8814 76.4751 19.7419 74.3663 19.7419 71.7649C19.7419 69.1635 21.8814 67.0547 24.5206 67.0547C27.1598 67.0547 29.2993 69.1635 29.2993 71.7649ZM49.7793 71.7649C49.7793 74.3663 47.6398 76.4751 45.0006 76.4751C42.3614 76.4751 40.222 74.3663 40.222 71.7649C40.222 69.1635 42.3614 67.0547 45.0006 67.0547C47.6398 67.0547 49.7793 69.1635 49.7793 71.7649Z" fill="#321B41"/>
<path d="M26.5686 71.7648C26.5686 72.8796 25.6517 73.7834 24.5206 73.7834C23.3895 73.7834 22.4726 72.8796 22.4726 71.7648C22.4726 70.6499 23.3895 69.7461 24.5206 69.7461C25.6517 69.7461 26.5686 70.6499 26.5686 71.7648ZM47.0487 71.7648C47.0487 72.8796 46.1317 73.7834 45.0006 73.7834C43.8696 73.7834 42.9526 72.8796 42.9526 71.7648C42.9526 70.6499 43.8696 69.7461 45.0006 69.7461C46.1317 69.7461 47.0487 70.6499 47.0487 71.7648Z" fill="#F4F4F4"/>
<path d="M53.8751 65.7109H53.1925C52.0319 65.7109 51.0899 66.6664 51.1445 67.8238C51.1991 68.9139 52.1548 69.7483 53.2607 69.7483H53.8751V65.7109Z" fill="#CA0B4A"/>
<path d="M36.1259 45.5234H49.7792C52.0457 45.5234 53.8752 47.3268 53.8752 49.5608V63.0185H32.0299V49.5608C32.0299 47.3268 33.8594 45.5234 36.1259 45.5234ZM15.6459 69.7474H16.8883C17.7075 69.7474 18.3765 69.088 18.3765 68.2805V65.8312C18.3765 65.0238 17.7075 64.3643 16.8883 64.3643H15.6459V69.7474Z" fill="#FCD53F"/>
<path d="M76.4791 31C76.2365 30.6267 75.9565 30.2347 75.6391 29.824C75.3218 29.4133 74.9858 29.0167 74.6311 28.634C74.2858 28.2513 73.9265 27.8873 73.5531 27.542C73.1798 27.1967 72.8111 26.898 72.4471 26.646V31H70.6831V21.298H72.4471V25.302C72.7551 24.994 73.0771 24.6673 73.4131 24.322C73.7491 23.9673 74.0805 23.6127 74.4071 23.258C74.7431 22.894 75.0605 22.544 75.3591 22.208C75.6578 21.872 75.9285 21.5687 76.1711 21.298H78.2851C77.9771 21.6527 77.6505 22.0213 77.3051 22.404C76.9598 22.7867 76.6051 23.174 76.2411 23.566C75.8771 23.9487 75.5085 24.3313 75.1351 24.714C74.7711 25.0967 74.4118 25.4607 74.0571 25.806C74.4491 26.1047 74.8458 26.4547 75.2471 26.856C75.6578 27.248 76.0591 27.6727 76.4511 28.13C76.8431 28.578 77.2165 29.0493 77.5711 29.544C77.9351 30.0293 78.2665 30.5147 78.5651 31H76.4791ZM84.5763 27.374C84.5763 26.618 84.4036 26.03 84.0583 25.61C83.7223 25.19 83.1763 24.98 82.4203 24.98C82.2616 24.98 82.0936 24.9893 81.9163 25.008C81.7483 25.0173 81.5803 25.0453 81.4123 25.092V29.278C81.5616 29.3807 81.7576 29.4787 82.0003 29.572C82.2523 29.656 82.5183 29.698 82.7983 29.698C83.4143 29.698 83.8623 29.488 84.1423 29.068C84.4316 28.648 84.5763 28.0833 84.5763 27.374ZM86.3123 27.346C86.3123 27.906 86.2376 28.4193 86.0883 28.886C85.9483 29.3527 85.7429 29.754 85.4723 30.09C85.2016 30.426 84.8609 30.6873 84.4503 30.874C84.0489 31.0607 83.5916 31.154 83.0783 31.154C82.7329 31.154 82.4156 31.112 82.1263 31.028C81.8369 30.944 81.5989 30.8507 81.4123 30.748V33.59H79.7183V23.916C80.0636 23.8227 80.4883 23.734 80.9923 23.65C81.4963 23.566 82.0283 23.524 82.5883 23.524C83.1669 23.524 83.6849 23.6127 84.1423 23.79C84.5996 23.9673 84.9869 24.224 85.3043 24.56C85.6309 24.8867 85.8783 25.288 86.0463 25.764C86.2236 26.2307 86.3123 26.758 86.3123 27.346ZM93.872 23.678C93.116 26.4593 92.2387 28.9793 91.24 31.238C91.0534 31.658 90.862 32.0173 90.666 32.316C90.47 32.6147 90.2507 32.862 90.008 33.058C89.7654 33.254 89.4947 33.394 89.196 33.478C88.8974 33.5713 88.552 33.618 88.16 33.618C87.8987 33.618 87.6374 33.59 87.376 33.534C87.124 33.478 86.9327 33.4173 86.802 33.352L87.11 31.994C87.446 32.1247 87.7774 32.19 88.104 32.19C88.5427 32.19 88.8834 32.0827 89.126 31.868C89.378 31.6627 89.5974 31.3407 89.784 30.902C89.252 29.8753 88.7387 28.7553 88.244 27.542C87.7587 26.3287 87.3247 25.0407 86.942 23.678H88.748C88.8414 24.07 88.9534 24.4947 89.084 24.952C89.224 25.4093 89.3734 25.876 89.532 26.352C89.6907 26.8187 89.8587 27.2853 90.036 27.752C90.2134 28.2187 90.3907 28.6527 90.568 29.054C90.8667 28.2233 91.1467 27.3413 91.408 26.408C91.6694 25.4653 91.9074 24.5553 92.122 23.678H93.872ZM100.012 25.078H96.8478V31H95.1538V23.678H100.012V25.078ZM103.67 25.078C103.661 25.4887 103.647 25.918 103.628 26.366C103.61 26.8047 103.563 27.2387 103.488 27.668C103.423 28.0973 103.316 28.508 103.166 28.9C103.017 29.292 102.807 29.6467 102.536 29.964C102.275 30.272 101.944 30.5333 101.542 30.748C101.15 30.9533 100.67 31.084 100.1 31.14L99.8623 29.726C100.338 29.6327 100.707 29.4833 100.968 29.278C101.23 29.0633 101.43 28.7927 101.57 28.466C101.682 28.2233 101.766 27.948 101.822 27.64C101.888 27.332 101.934 27.01 101.962 26.674C102 26.3287 102.023 25.9787 102.032 25.624C102.042 25.2693 102.046 24.924 102.046 24.588V23.678H107.226V31H105.532V25.078H103.67ZM116.008 27.332C116.008 27.9107 115.924 28.438 115.756 28.914C115.588 29.39 115.35 29.796 115.042 30.132C114.734 30.468 114.361 30.7293 113.922 30.916C113.493 31.1027 113.017 31.196 112.494 31.196C111.972 31.196 111.496 31.1027 111.066 30.916C110.637 30.7293 110.268 30.468 109.96 30.132C109.652 29.796 109.41 29.39 109.232 28.914C109.064 28.438 108.98 27.9107 108.98 27.332C108.98 26.7533 109.064 26.2307 109.232 25.764C109.41 25.288 109.652 24.882 109.96 24.546C110.278 24.21 110.651 23.9533 111.08 23.776C111.51 23.5893 111.981 23.496 112.494 23.496C113.008 23.496 113.479 23.5893 113.908 23.776C114.347 23.9533 114.72 24.21 115.028 24.546C115.336 24.882 115.574 25.288 115.742 25.764C115.92 26.2307 116.008 26.7533 116.008 27.332ZM114.272 27.332C114.272 26.604 114.114 26.03 113.796 25.61C113.488 25.1807 113.054 24.966 112.494 24.966C111.934 24.966 111.496 25.1807 111.178 25.61C110.87 26.03 110.716 26.604 110.716 27.332C110.716 28.0693 110.87 28.6527 111.178 29.082C111.496 29.5113 111.934 29.726 112.494 29.726C113.054 29.726 113.488 29.5113 113.796 29.082C114.114 28.6527 114.272 28.0693 114.272 27.332ZM117.347 27.346C117.347 26.8047 117.431 26.3007 117.599 25.834C117.767 25.358 118.005 24.9473 118.313 24.602C118.631 24.2567 119.013 23.986 119.461 23.79C119.909 23.594 120.413 23.496 120.973 23.496C121.664 23.496 122.317 23.622 122.933 23.874L122.569 25.26C122.373 25.176 122.149 25.106 121.897 25.05C121.655 24.994 121.393 24.966 121.113 24.966C120.451 24.966 119.947 25.176 119.601 25.596C119.256 26.0067 119.083 26.59 119.083 27.346C119.083 28.074 119.247 28.6527 119.573 29.082C119.9 29.502 120.451 29.712 121.225 29.712C121.515 29.712 121.799 29.684 122.079 29.628C122.359 29.572 122.602 29.502 122.807 29.418L123.045 30.818C122.859 30.9113 122.574 30.9953 122.191 31.07C121.818 31.1447 121.431 31.182 121.029 31.182C120.404 31.182 119.858 31.0887 119.391 30.902C118.934 30.706 118.551 30.44 118.243 30.104C117.945 29.7587 117.721 29.3527 117.571 28.886C117.422 28.41 117.347 27.8967 117.347 27.346ZM130.458 23.678C129.702 26.4593 128.825 28.9793 127.826 31.238C127.639 31.658 127.448 32.0173 127.252 32.316C127.056 32.6147 126.837 32.862 126.594 33.058C126.351 33.254 126.081 33.394 125.782 33.478C125.483 33.5713 125.138 33.618 124.746 33.618C124.485 33.618 124.223 33.59 123.962 33.534C123.71 33.478 123.519 33.4173 123.388 33.352L123.696 31.994C124.032 32.1247 124.363 32.19 124.69 32.19C125.129 32.19 125.469 32.0827 125.712 31.868C125.964 31.6627 126.183 31.3407 126.37 30.902C125.838 29.8753 125.325 28.7553 124.83 27.542C124.345 26.3287 123.911 25.0407 123.528 23.678H125.334C125.427 24.07 125.539 24.4947 125.67 24.952C125.81 25.4093 125.959 25.876 126.118 26.352C126.277 26.8187 126.445 27.2853 126.622 27.752C126.799 28.2187 126.977 28.6527 127.154 29.054C127.453 28.2233 127.733 27.3413 127.994 26.408C128.255 25.4653 128.493 24.5553 128.708 23.678H130.458ZM137.502 25.092H135.136V31H133.442V25.092H131.09V23.678H137.502V25.092ZM145.389 27.332C145.389 27.9107 145.305 28.438 145.137 28.914C144.969 29.39 144.731 29.796 144.423 30.132C144.115 30.468 143.742 30.7293 143.303 30.916C142.874 31.1027 142.398 31.196 141.875 31.196C141.352 31.196 140.876 31.1027 140.447 30.916C140.018 30.7293 139.649 30.468 139.341 30.132C139.033 29.796 138.79 29.39 138.613 28.914C138.445 28.438 138.361 27.9107 138.361 27.332C138.361 26.7533 138.445 26.2307 138.613 25.764C138.79 25.288 139.033 24.882 139.341 24.546C139.658 24.21 140.032 23.9533 140.461 23.776C140.89 23.5893 141.362 23.496 141.875 23.496C142.388 23.496 142.86 23.5893 143.289 23.776C143.728 23.9533 144.101 24.21 144.409 24.546C144.717 24.882 144.955 25.288 145.123 25.764C145.3 26.2307 145.389 26.7533 145.389 27.332ZM143.653 27.332C143.653 26.604 143.494 26.03 143.177 25.61C142.869 25.1807 142.435 24.966 141.875 24.966C141.315 24.966 140.876 25.1807 140.559 25.61C140.251 26.03 140.097 26.604 140.097 27.332C140.097 28.0693 140.251 28.6527 140.559 29.082C140.876 29.5113 141.315 29.726 141.875 29.726C142.435 29.726 142.869 29.5113 143.177 29.082C143.494 28.6527 143.653 28.0693 143.653 27.332ZM148.352 25.946C148.352 26.394 148.478 26.7113 148.73 26.898C148.992 27.0753 149.346 27.164 149.794 27.164C150.009 27.164 150.219 27.1547 150.424 27.136C150.639 27.108 150.826 27.0753 150.984 27.038V23.678H152.678V31H150.984V28.382C150.816 28.41 150.597 28.4473 150.326 28.494C150.056 28.5313 149.813 28.55 149.598 28.55C149.16 28.55 148.758 28.508 148.394 28.424C148.04 28.34 147.732 28.2 147.47 28.004C147.209 27.7987 147.008 27.5327 146.868 27.206C146.728 26.87 146.658 26.4547 146.658 25.96V23.678H148.352V25.946ZM160.978 31H159.284V27.934H156.526V31H154.832V23.678H156.526V26.534H159.284V23.678H160.978V31ZM165.706 29.81C166.229 29.81 166.626 29.782 166.896 29.726V27.85C166.803 27.822 166.668 27.794 166.49 27.766C166.313 27.738 166.117 27.724 165.902 27.724C165.716 27.724 165.524 27.738 165.328 27.766C165.142 27.794 164.969 27.8453 164.81 27.92C164.661 27.9947 164.54 28.102 164.446 28.242C164.353 28.3727 164.306 28.5407 164.306 28.746C164.306 29.1473 164.432 29.4273 164.684 29.586C164.936 29.7353 165.277 29.81 165.706 29.81ZM165.566 23.496C166.126 23.496 166.598 23.566 166.98 23.706C167.363 23.846 167.666 24.042 167.89 24.294C168.124 24.546 168.287 24.854 168.38 25.218C168.483 25.5727 168.534 25.9647 168.534 26.394V30.832C168.273 30.888 167.876 30.9533 167.344 31.028C166.822 31.112 166.229 31.154 165.566 31.154C165.128 31.154 164.726 31.112 164.362 31.028C163.998 30.944 163.686 30.8087 163.424 30.622C163.172 30.4353 162.972 30.1927 162.822 29.894C162.682 29.5953 162.612 29.2267 162.612 28.788C162.612 28.368 162.692 28.0133 162.85 27.724C163.018 27.4347 163.242 27.2013 163.522 27.024C163.802 26.8373 164.124 26.7067 164.488 26.632C164.862 26.548 165.249 26.506 165.65 26.506C165.837 26.506 166.033 26.52 166.238 26.548C166.444 26.5667 166.663 26.604 166.896 26.66V26.38C166.896 26.184 166.873 25.9973 166.826 25.82C166.78 25.6427 166.696 25.4887 166.574 25.358C166.462 25.218 166.308 25.1107 166.112 25.036C165.926 24.9613 165.688 24.924 165.398 24.924C165.006 24.924 164.647 24.952 164.32 25.008C163.994 25.064 163.728 25.1293 163.522 25.204L163.312 23.832C163.527 23.7573 163.84 23.6827 164.25 23.608C164.661 23.5333 165.1 23.496 165.566 23.496ZM173.843 28.284C173.731 28.284 173.619 28.284 173.507 28.284C173.395 28.284 173.288 28.2793 173.185 28.27C172.886 28.718 172.611 29.18 172.359 29.656C172.107 30.1227 171.874 30.5707 171.659 31H169.923C170.175 30.4213 170.455 29.866 170.763 29.334C171.071 28.802 171.36 28.3493 171.631 27.976C171.174 27.78 170.838 27.5187 170.623 27.192C170.418 26.856 170.315 26.464 170.315 26.016C170.315 25.6053 170.39 25.246 170.539 24.938C170.698 24.6207 170.917 24.3593 171.197 24.154C171.477 23.9393 171.813 23.7807 172.205 23.678C172.597 23.566 173.031 23.51 173.507 23.51C174.058 23.51 174.59 23.5427 175.103 23.608C175.626 23.6733 176.05 23.748 176.377 23.832V31H174.683V28.284H173.843ZM174.683 24.91C174.58 24.8913 174.422 24.8773 174.207 24.868C173.992 24.8493 173.773 24.84 173.549 24.84C172.513 24.84 171.995 25.2227 171.995 25.988C171.995 26.1933 172.032 26.366 172.107 26.506C172.191 26.6367 172.303 26.744 172.443 26.828C172.583 26.912 172.746 26.9727 172.933 27.01C173.12 27.038 173.32 27.052 173.535 27.052H174.683V24.91ZM188.092 21.62C187.999 21.6387 187.896 21.6573 187.784 21.676C187.681 21.6947 187.555 21.7133 187.406 21.732C187.257 21.7507 187.079 21.774 186.874 21.802C186.678 21.8207 186.449 21.844 186.188 21.872C185.787 21.9187 185.427 21.998 185.11 22.11C184.793 22.2127 184.517 22.3667 184.284 22.572C184.051 22.768 183.859 23.02 183.71 23.328C183.561 23.636 183.453 24.0093 183.388 24.448C183.677 24.2613 183.99 24.1167 184.326 24.014C184.671 23.9113 185.007 23.86 185.334 23.86C186.305 23.86 187.075 24.168 187.644 24.784C188.213 25.4 188.498 26.2913 188.498 27.458C188.498 28.018 188.419 28.5267 188.26 28.984C188.101 29.4413 187.873 29.8333 187.574 30.16C187.275 30.4867 186.916 30.7433 186.496 30.93C186.076 31.1073 185.6 31.196 185.068 31.196C184.405 31.196 183.85 31.0887 183.402 30.874C182.954 30.65 182.595 30.3373 182.324 29.936C182.053 29.5253 181.857 29.0353 181.736 28.466C181.615 27.8967 181.554 27.262 181.554 26.562C181.554 25.6473 181.629 24.84 181.778 24.14C181.937 23.4307 182.189 22.824 182.534 22.32C182.889 21.816 183.346 21.41 183.906 21.102C184.475 20.7847 185.166 20.5653 185.978 20.444C186.398 20.3787 186.748 20.3273 187.028 20.29C187.317 20.2527 187.607 20.2013 187.896 20.136L188.092 21.62ZM183.332 25.932C183.313 26.0533 183.304 26.2027 183.304 26.38C183.304 26.548 183.304 26.7067 183.304 26.856C183.304 27.276 183.332 27.6633 183.388 28.018C183.444 28.3727 183.542 28.676 183.682 28.928C183.822 29.18 184.004 29.376 184.228 29.516C184.452 29.656 184.732 29.726 185.068 29.726C185.357 29.726 185.609 29.67 185.824 29.558C186.039 29.446 186.216 29.2873 186.356 29.082C186.496 28.8767 186.599 28.6387 186.664 28.368C186.739 28.088 186.776 27.7847 186.776 27.458C186.776 27.178 186.743 26.912 186.678 26.66C186.622 26.3987 186.524 26.17 186.384 25.974C186.253 25.7687 186.076 25.6053 185.852 25.484C185.628 25.3627 185.353 25.302 185.026 25.302C184.709 25.302 184.391 25.358 184.074 25.47C183.766 25.582 183.519 25.736 183.332 25.932ZM189.849 27.374C189.849 26.73 189.943 26.1653 190.129 25.68C190.325 25.1947 190.582 24.7933 190.899 24.476C191.217 24.1493 191.581 23.9067 191.991 23.748C192.402 23.58 192.822 23.496 193.251 23.496C194.259 23.496 195.043 23.8087 195.603 24.434C196.173 25.0593 196.457 25.9927 196.457 27.234C196.457 27.3273 196.453 27.4347 196.443 27.556C196.443 27.668 196.439 27.7707 196.429 27.864H191.599C191.646 28.452 191.851 28.9093 192.215 29.236C192.589 29.5533 193.125 29.712 193.825 29.712C194.236 29.712 194.609 29.6747 194.945 29.6C195.291 29.5253 195.561 29.446 195.757 29.362L195.981 30.748C195.888 30.7947 195.757 30.846 195.589 30.902C195.431 30.9487 195.244 30.9907 195.029 31.028C194.824 31.0747 194.6 31.112 194.357 31.14C194.115 31.168 193.867 31.182 193.615 31.182C192.971 31.182 192.411 31.0887 191.935 30.902C191.459 30.706 191.067 30.44 190.759 30.104C190.451 29.7587 190.223 29.3573 190.073 28.9C189.924 28.4333 189.849 27.9247 189.849 27.374ZM194.763 26.618C194.763 26.3847 194.731 26.1653 194.665 25.96C194.6 25.7453 194.502 25.5633 194.371 25.414C194.25 25.2553 194.096 25.134 193.909 25.05C193.732 24.9567 193.517 24.91 193.265 24.91C193.004 24.91 192.775 24.9613 192.579 25.064C192.383 25.1573 192.215 25.2833 192.075 25.442C191.945 25.6007 191.842 25.7827 191.767 25.988C191.693 26.1933 191.641 26.4033 191.613 26.618H194.763ZM197.847 27.346C197.847 26.8047 197.931 26.3007 198.099 25.834C198.267 25.358 198.505 24.9473 198.813 24.602C199.131 24.2567 199.513 23.986 199.961 23.79C200.409 23.594 200.913 23.496 201.473 23.496C202.164 23.496 202.817 23.622 203.433 23.874L203.069 25.26C202.873 25.176 202.649 25.106 202.397 25.05C202.155 24.994 201.893 24.966 201.613 24.966C200.951 24.966 200.447 25.176 200.101 25.596C199.756 26.0067 199.583 26.59 199.583 27.346C199.583 28.074 199.747 28.6527 200.073 29.082C200.4 29.502 200.951 29.712 201.725 29.712C202.015 29.712 202.299 29.684 202.579 29.628C202.859 29.572 203.102 29.502 203.307 29.418L203.545 30.818C203.359 30.9113 203.074 30.9953 202.691 31.07C202.318 31.1447 201.931 31.182 201.529 31.182C200.904 31.182 200.358 31.0887 199.891 30.902C199.434 30.706 199.051 30.44 198.743 30.104C198.445 29.7587 198.221 29.3527 198.071 28.886C197.922 28.41 197.847 27.8967 197.847 27.346ZM210.947 23.678V31H209.253V25.092H206.551V31H204.857V23.678H210.947ZM215.971 25.078C215.962 25.4887 215.948 25.918 215.929 26.366C215.91 26.8047 215.864 27.2387 215.789 27.668C215.724 28.0973 215.616 28.508 215.467 28.9C215.318 29.292 215.108 29.6467 214.837 29.964C214.576 30.272 214.244 30.5333 213.843 30.748C213.451 30.9533 212.97 31.084 212.401 31.14L212.163 29.726C212.639 29.6327 213.008 29.4833 213.269 29.278C213.53 29.0633 213.731 28.7927 213.871 28.466C213.983 28.2233 214.067 27.948 214.123 27.64C214.188 27.332 214.235 27.01 214.263 26.674C214.3 26.3287 214.324 25.9787 214.333 25.624C214.342 25.2693 214.347 24.924 214.347 24.588V23.678H219.527V31H217.833V25.078H215.971ZM224.263 29.81C224.786 29.81 225.182 29.782 225.453 29.726V27.85C225.36 27.822 225.224 27.794 225.047 27.766C224.87 27.738 224.674 27.724 224.459 27.724C224.272 27.724 224.081 27.738 223.885 27.766C223.698 27.794 223.526 27.8453 223.367 27.92C223.218 27.9947 223.096 28.102 223.003 28.242C222.91 28.3727 222.863 28.5407 222.863 28.746C222.863 29.1473 222.989 29.4273 223.241 29.586C223.493 29.7353 223.834 29.81 224.263 29.81ZM224.123 23.496C224.683 23.496 225.154 23.566 225.537 23.706C225.92 23.846 226.223 24.042 226.447 24.294C226.68 24.546 226.844 24.854 226.937 25.218C227.04 25.5727 227.091 25.9647 227.091 26.394V30.832C226.83 30.888 226.433 30.9533 225.901 31.028C225.378 31.112 224.786 31.154 224.123 31.154C223.684 31.154 223.283 31.112 222.919 31.028C222.555 30.944 222.242 30.8087 221.981 30.622C221.729 30.4353 221.528 30.1927 221.379 29.894C221.239 29.5953 221.169 29.2267 221.169 28.788C221.169 28.368 221.248 28.0133 221.407 27.724C221.575 27.4347 221.799 27.2013 222.079 27.024C222.359 26.8373 222.681 26.7067 223.045 26.632C223.418 26.548 223.806 26.506 224.207 26.506C224.394 26.506 224.59 26.52 224.795 26.548C225 26.5667 225.22 26.604 225.453 26.66V26.38C225.453 26.184 225.43 25.9973 225.383 25.82C225.336 25.6427 225.252 25.4887 225.131 25.358C225.019 25.218 224.865 25.1107 224.669 25.036C224.482 24.9613 224.244 24.924 223.955 24.924C223.563 24.924 223.204 24.952 222.877 25.008C222.55 25.064 222.284 25.1293 222.079 25.204L221.869 23.832C222.084 23.7573 222.396 23.6827 222.807 23.608C223.218 23.5333 223.656 23.496 224.123 23.496ZM234.682 25.092H232.316V31H230.622V25.092H228.27V23.678H234.682V25.092ZM242.093 31H240.399V27.934H237.641V31H235.947V23.678H237.641V26.534H240.399V23.678H242.093V31ZM246.822 29.81C247.344 29.81 247.741 29.782 248.012 29.726V27.85C247.918 27.822 247.783 27.794 247.606 27.766C247.428 27.738 247.232 27.724 247.018 27.724C246.831 27.724 246.64 27.738 246.444 27.766C246.257 27.794 246.084 27.8453 245.926 27.92C245.776 27.9947 245.655 28.102 245.562 28.242C245.468 28.3727 245.422 28.5407 245.422 28.746C245.422 29.1473 245.548 29.4273 245.8 29.586C246.052 29.7353 246.392 29.81 246.822 29.81ZM246.682 23.496C247.242 23.496 247.713 23.566 248.096 23.706C248.478 23.846 248.782 24.042 249.006 24.294C249.239 24.546 249.402 24.854 249.496 25.218C249.598 25.5727 249.65 25.9647 249.65 26.394V30.832C249.388 30.888 248.992 30.9533 248.46 31.028C247.937 31.112 247.344 31.154 246.682 31.154C246.243 31.154 245.842 31.112 245.478 31.028C245.114 30.944 244.801 30.8087 244.54 30.622C244.288 30.4353 244.087 30.1927 243.938 29.894C243.798 29.5953 243.728 29.2267 243.728 28.788C243.728 28.368 243.807 28.0133 243.966 27.724C244.134 27.4347 244.358 27.2013 244.638 27.024C244.918 26.8373 245.24 26.7067 245.604 26.632C245.977 26.548 246.364 26.506 246.766 26.506C246.952 26.506 247.148 26.52 247.354 26.548C247.559 26.5667 247.778 26.604 248.012 26.66V26.38C248.012 26.184 247.988 25.9973 247.942 25.82C247.895 25.6427 247.811 25.4887 247.69 25.358C247.578 25.218 247.424 25.1107 247.228 25.036C247.041 24.9613 246.803 24.924 246.514 24.924C246.122 24.924 245.762 24.952 245.436 25.008C245.109 25.064 244.843 25.1293 244.638 25.204L244.428 23.832C244.642 23.7573 244.955 23.6827 245.366 23.608C245.776 23.5333 246.215 23.496 246.682 23.496ZM254.958 28.284C254.846 28.284 254.734 28.284 254.622 28.284C254.51 28.284 254.403 28.2793 254.3 28.27C254.001 28.718 253.726 29.18 253.474 29.656C253.222 30.1227 252.989 30.5707 252.774 31H251.038C251.29 30.4213 251.57 29.866 251.878 29.334C252.186 28.802 252.475 28.3493 252.746 27.976C252.289 27.78 251.953 27.5187 251.738 27.192C251.533 26.856 251.43 26.464 251.43 26.016C251.43 25.6053 251.505 25.246 251.654 24.938C251.813 24.6207 252.032 24.3593 252.312 24.154C252.592 23.9393 252.928 23.7807 253.32 23.678C253.712 23.566 254.146 23.51 254.622 23.51C255.173 23.51 255.705 23.5427 256.218 23.608C256.741 23.6733 257.165 23.748 257.492 23.832V31H255.798V28.284H254.958ZM255.798 24.91C255.695 24.8913 255.537 24.8773 255.322 24.868C255.107 24.8493 254.888 24.84 254.664 24.84C253.628 24.84 253.11 25.2227 253.11 25.988C253.11 26.1933 253.147 26.366 253.222 26.506C253.306 26.6367 253.418 26.744 253.558 26.828C253.698 26.912 253.861 26.9727 254.048 27.01C254.235 27.038 254.435 27.052 254.65 27.052H255.798V24.91ZM69.7031 49.614H70.5431C70.8325 49.2313 71.0565 48.8067 71.2151 48.34C71.3831 47.864 71.5045 47.3693 71.5791 46.856C71.6538 46.3333 71.7005 45.8013 71.7191 45.26C71.7378 44.7187 71.7518 44.1913 71.7611 43.678H77.0111V49.614H78.1311V53.072H76.6191V51H71.2011V53.072H69.7031V49.614ZM75.3171 49.614V45.078H73.3291C73.3105 45.4607 73.2871 45.8527 73.2591 46.254C73.2311 46.646 73.1798 47.038 73.1051 47.43C73.0305 47.8127 72.9278 48.1907 72.7971 48.564C72.6758 48.928 72.5125 49.278 72.3071 49.614H75.3171ZM86.0805 47.332C86.0805 47.9107 85.9965 48.438 85.8285 48.914C85.6605 49.39 85.4225 49.796 85.1145 50.132C84.8065 50.468 84.4332 50.7293 83.9945 50.916C83.5652 51.1027 83.0892 51.196 82.5665 51.196C82.0438 51.196 81.5678 51.1027 81.1385 50.916C80.7092 50.7293 80.3405 50.468 80.0325 50.132C79.7245 49.796 79.4818 49.39 79.3045 48.914C79.1365 48.438 79.0525 47.9107 79.0525 47.332C79.0525 46.7533 79.1365 46.2307 79.3045 45.764C79.4818 45.288 79.7245 44.882 80.0325 44.546C80.3498 44.21 80.7232 43.9533 81.1525 43.776C81.5818 43.5893 82.0532 43.496 82.5665 43.496C83.0798 43.496 83.5512 43.5893 83.9805 43.776C84.4192 43.9533 84.7925 44.21 85.1005 44.546C85.4085 44.882 85.6465 45.288 85.8145 45.764C85.9918 46.2307 86.0805 46.7533 86.0805 47.332ZM84.3445 47.332C84.3445 46.604 84.1858 46.03 83.8685 45.61C83.5605 45.1807 83.1265 44.966 82.5665 44.966C82.0065 44.966 81.5678 45.1807 81.2505 45.61C80.9425 46.03 80.7885 46.604 80.7885 47.332C80.7885 48.0693 80.9425 48.6527 81.2505 49.082C81.5678 49.5113 82.0065 49.726 82.5665 49.726C83.1265 49.726 83.5605 49.5113 83.8685 49.082C84.1858 48.6527 84.3445 48.0693 84.3445 47.332ZM87.4197 47.346C87.4197 46.8047 87.5037 46.3007 87.6717 45.834C87.8397 45.358 88.0777 44.9473 88.3857 44.602C88.703 44.2567 89.0857 43.986 89.5337 43.79C89.9817 43.594 90.4857 43.496 91.0457 43.496C91.7363 43.496 92.3897 43.622 93.0057 43.874L92.6417 45.26C92.4457 45.176 92.2217 45.106 91.9697 45.05C91.727 44.994 91.4657 44.966 91.1857 44.966C90.523 44.966 90.019 45.176 89.6737 45.596C89.3283 46.0067 89.1557 46.59 89.1557 47.346C89.1557 48.074 89.319 48.6527 89.6457 49.082C89.9723 49.502 90.523 49.712 91.2977 49.712C91.587 49.712 91.8717 49.684 92.1517 49.628C92.4317 49.572 92.6743 49.502 92.8797 49.418L93.1177 50.818C92.931 50.9113 92.6463 50.9953 92.2637 51.07C91.8903 51.1447 91.503 51.182 91.1017 51.182C90.4763 51.182 89.9303 51.0887 89.4637 50.902C89.0063 50.706 88.6237 50.44 88.3157 50.104C88.017 49.7587 87.793 49.3527 87.6437 48.886C87.4943 48.41 87.4197 47.8967 87.4197 47.346ZM100.123 45.092H97.7569V51H96.0629V45.092H93.7109V43.678H100.123V45.092ZM103.964 49.81C104.487 49.81 104.884 49.782 105.154 49.726V47.85C105.061 47.822 104.926 47.794 104.748 47.766C104.571 47.738 104.375 47.724 104.16 47.724C103.974 47.724 103.782 47.738 103.586 47.766C103.4 47.794 103.227 47.8453 103.068 47.92C102.919 47.9947 102.798 48.102 102.704 48.242C102.611 48.3727 102.564 48.5407 102.564 48.746C102.564 49.1473 102.69 49.4273 102.942 49.586C103.194 49.7353 103.535 49.81 103.964 49.81ZM103.824 43.496C104.384 43.496 104.856 43.566 105.238 43.706C105.621 43.846 105.924 44.042 106.148 44.294C106.382 44.546 106.545 44.854 106.638 45.218C106.741 45.5727 106.792 45.9647 106.792 46.394V50.832C106.531 50.888 106.134 50.9533 105.602 51.028C105.08 51.112 104.487 51.154 103.824 51.154C103.386 51.154 102.984 51.112 102.62 51.028C102.256 50.944 101.944 50.8087 101.682 50.622C101.43 50.4353 101.23 50.1927 101.08 49.894C100.94 49.5953 100.87 49.2267 100.87 48.788C100.87 48.368 100.95 48.0133 101.108 47.724C101.276 47.4347 101.5 47.2013 101.78 47.024C102.06 46.8373 102.382 46.7067 102.746 46.632C103.12 46.548 103.507 46.506 103.908 46.506C104.095 46.506 104.291 46.52 104.496 46.548C104.702 46.5667 104.921 46.604 105.154 46.66V46.38C105.154 46.184 105.131 45.9973 105.084 45.82C105.038 45.6427 104.954 45.4887 104.832 45.358C104.72 45.218 104.566 45.1107 104.37 45.036C104.184 44.9613 103.946 44.924 103.656 44.924C103.264 44.924 102.905 44.952 102.578 45.008C102.252 45.064 101.986 45.1293 101.78 45.204L101.57 43.832C101.785 43.7573 102.098 43.6827 102.508 43.608C102.919 43.5333 103.358 43.496 103.824 43.496ZM111.779 51.14C111.508 51.14 111.233 51.1307 110.953 51.112C110.673 51.0933 110.402 51.07 110.141 51.042C109.889 51.014 109.651 50.986 109.427 50.958C109.203 50.9207 109.016 50.8833 108.867 50.846V43.776C109.016 43.7387 109.203 43.706 109.427 43.678C109.651 43.6407 109.889 43.6127 110.141 43.594C110.402 43.566 110.673 43.5473 110.953 43.538C111.233 43.5193 111.508 43.51 111.779 43.51C112.768 43.51 113.538 43.692 114.089 44.056C114.639 44.4107 114.915 44.91 114.915 45.554C114.915 45.89 114.831 46.1887 114.663 46.45C114.495 46.7113 114.275 46.9073 114.005 47.038C114.341 47.1687 114.63 47.374 114.873 47.654C115.115 47.934 115.237 48.3307 115.237 48.844C115.237 49.5813 114.947 50.1507 114.369 50.552C113.79 50.944 112.927 51.14 111.779 51.14ZM111.821 46.618C112.241 46.618 112.586 46.5573 112.857 46.436C113.137 46.3147 113.277 46.072 113.277 45.708C113.277 45.5307 113.23 45.386 113.137 45.274C113.053 45.162 112.936 45.0733 112.787 45.008C112.637 44.9427 112.465 44.9007 112.269 44.882C112.073 44.854 111.867 44.84 111.653 44.84C111.485 44.84 111.289 44.8447 111.065 44.854C110.85 44.8633 110.677 44.8773 110.547 44.896V46.618H111.821ZM110.547 49.74C110.659 49.7587 110.841 49.7773 111.093 49.796C111.354 49.8053 111.597 49.81 111.821 49.81C112.325 49.81 112.74 49.74 113.067 49.6C113.403 49.46 113.571 49.194 113.571 48.802C113.571 48.4193 113.417 48.158 113.109 48.018C112.81 47.8687 112.418 47.794 111.933 47.794H110.547V49.74ZM118.531 46.618C118.746 46.4033 118.979 46.1653 119.231 45.904C119.483 45.6333 119.731 45.3627 119.973 45.092C120.225 44.8213 120.463 44.5647 120.687 44.322C120.911 44.07 121.098 43.8553 121.247 43.678H123.235C123.03 43.9207 122.792 44.1867 122.521 44.476C122.26 44.7653 121.985 45.064 121.695 45.372C121.415 45.6707 121.135 45.9647 120.855 46.254C120.585 46.534 120.337 46.786 120.113 47.01C120.403 47.2527 120.701 47.5373 121.009 47.864C121.327 48.1813 121.635 48.522 121.933 48.886C122.241 49.2407 122.526 49.6047 122.787 49.978C123.049 50.342 123.268 50.6827 123.445 51H121.485C121.308 50.72 121.098 50.426 120.855 50.118C120.622 49.81 120.375 49.5113 120.113 49.222C119.852 48.9233 119.586 48.6433 119.315 48.382C119.045 48.1207 118.783 47.8967 118.531 47.71V51H116.837V43.678H118.531V46.618ZM127.247 49.81C127.77 49.81 128.167 49.782 128.437 49.726V47.85C128.344 47.822 128.209 47.794 128.031 47.766C127.854 47.738 127.658 47.724 127.443 47.724C127.257 47.724 127.065 47.738 126.869 47.766C126.683 47.794 126.51 47.8453 126.351 47.92C126.202 47.9947 126.081 48.102 125.987 48.242C125.894 48.3727 125.847 48.5407 125.847 48.746C125.847 49.1473 125.973 49.4273 126.225 49.586C126.477 49.7353 126.818 49.81 127.247 49.81ZM127.107 43.496C127.667 43.496 128.139 43.566 128.521 43.706C128.904 43.846 129.207 44.042 129.431 44.294C129.665 44.546 129.828 44.854 129.921 45.218C130.024 45.5727 130.075 45.9647 130.075 46.394V50.832C129.814 50.888 129.417 50.9533 128.885 51.028C128.363 51.112 127.77 51.154 127.107 51.154C126.669 51.154 126.267 51.112 125.903 51.028C125.539 50.944 125.227 50.8087 124.965 50.622C124.713 50.4353 124.513 50.1927 124.363 49.894C124.223 49.5953 124.153 49.2267 124.153 48.788C124.153 48.368 124.233 48.0133 124.391 47.724C124.559 47.4347 124.783 47.2013 125.063 47.024C125.343 46.8373 125.665 46.7067 126.029 46.632C126.403 46.548 126.79 46.506 127.191 46.506C127.378 46.506 127.574 46.52 127.779 46.548C127.985 46.5667 128.204 46.604 128.437 46.66V46.38C128.437 46.184 128.414 45.9973 128.367 45.82C128.321 45.6427 128.237 45.4887 128.115 45.358C128.003 45.218 127.849 45.1107 127.653 45.036C127.467 44.9613 127.229 44.924 126.939 44.924C126.547 44.924 126.188 44.952 125.861 45.008C125.535 45.064 125.269 45.1293 125.063 45.204L124.853 43.832C125.068 43.7573 125.381 43.6827 125.791 43.608C126.202 43.5333 126.641 43.496 127.107 43.496Z" fill="#1A1A1A"/>
<path d="M76.8771 72.684V81H75.7131V73.68H71.7171V81H70.5531V72.684H76.8771ZM84.3797 77.88C84.3797 78.376 84.3077 78.824 84.1637 79.224C84.0197 79.624 83.8157 79.968 83.5517 80.256C83.2957 80.544 82.9877 80.768 82.6277 80.928C82.2677 81.08 81.8757 81.156 81.4517 81.156C81.0277 81.156 80.6357 81.08 80.2757 80.928C79.9157 80.768 79.6037 80.544 79.3397 80.256C79.0837 79.968 78.8837 79.624 78.7397 79.224C78.5957 78.824 78.5237 78.376 78.5237 77.88C78.5237 77.392 78.5957 76.948 78.7397 76.548C78.8837 76.14 79.0837 75.792 79.3397 75.504C79.6037 75.216 79.9157 74.996 80.2757 74.844C80.6357 74.684 81.0277 74.604 81.4517 74.604C81.8757 74.604 82.2677 74.684 82.6277 74.844C82.9877 74.996 83.2957 75.216 83.5517 75.504C83.8157 75.792 84.0197 76.14 84.1637 76.548C84.3077 76.948 84.3797 77.392 84.3797 77.88ZM83.2157 77.88C83.2157 77.176 83.0557 76.62 82.7357 76.212C82.4237 75.796 81.9957 75.588 81.4517 75.588C80.9077 75.588 80.4757 75.796 80.1557 76.212C79.8437 76.62 79.6877 77.176 79.6877 77.88C79.6877 78.584 79.8437 79.144 80.1557 79.56C80.4757 79.968 80.9077 80.172 81.4517 80.172C81.9957 80.172 82.4237 79.968 82.7357 79.56C83.0557 79.144 83.2157 78.584 83.2157 77.88ZM90.2819 77.892C90.2819 77.164 90.1019 76.604 89.7419 76.212C89.3819 75.82 88.9019 75.624 88.3019 75.624C87.9659 75.624 87.7019 75.636 87.5099 75.66C87.3259 75.684 87.1779 75.712 87.0659 75.744V79.68C87.2019 79.792 87.3979 79.9 87.6539 80.004C87.9099 80.108 88.1899 80.16 88.4939 80.16C88.8139 80.16 89.0859 80.104 89.3099 79.992C89.5419 79.872 89.7299 79.712 89.8739 79.512C90.0179 79.304 90.1219 79.064 90.1859 78.792C90.2499 78.512 90.2819 78.212 90.2819 77.892ZM91.4459 77.892C91.4459 78.364 91.3819 78.8 91.2539 79.2C91.1339 79.6 90.9539 79.944 90.7139 80.232C90.4739 80.52 90.1779 80.744 89.8259 80.904C89.4819 81.064 89.0859 81.144 88.6379 81.144C88.2779 81.144 87.9579 81.096 87.6779 81C87.4059 80.904 87.2019 80.812 87.0659 80.724V83.22H85.9499V74.952C86.2139 74.888 86.5419 74.82 86.9339 74.748C87.3339 74.668 87.7939 74.628 88.3139 74.628C88.7939 74.628 89.2259 74.704 89.6099 74.856C89.9939 75.008 90.3219 75.224 90.5939 75.504C90.8659 75.784 91.0739 76.128 91.2179 76.536C91.3699 76.936 91.4459 77.388 91.4459 77.892ZM95.1283 80.196C95.3923 80.196 95.6243 80.192 95.8243 80.184C96.0323 80.168 96.2043 80.144 96.3403 80.112V78.252C96.2603 78.212 96.1283 78.18 95.9443 78.156C95.7683 78.124 95.5523 78.108 95.2963 78.108C95.1283 78.108 94.9483 78.12 94.7563 78.144C94.5723 78.168 94.4003 78.22 94.2403 78.3C94.0883 78.372 93.9603 78.476 93.8563 78.612C93.7523 78.74 93.7003 78.912 93.7003 79.128C93.7003 79.528 93.8283 79.808 94.0843 79.968C94.3403 80.12 94.6883 80.196 95.1283 80.196ZM95.0323 74.604C95.4803 74.604 95.8563 74.664 96.1603 74.784C96.4723 74.896 96.7203 75.06 96.9043 75.276C97.0963 75.484 97.2323 75.736 97.3123 76.032C97.3923 76.32 97.4323 76.64 97.4323 76.992V80.892C97.3363 80.908 97.2003 80.932 97.0243 80.964C96.8563 80.988 96.6643 81.012 96.4483 81.036C96.2323 81.06 95.9963 81.08 95.7403 81.096C95.4923 81.12 95.2443 81.132 94.9963 81.132C94.6443 81.132 94.3203 81.096 94.0243 81.024C93.7283 80.952 93.4723 80.84 93.2563 80.688C93.0403 80.528 92.8723 80.32 92.7523 80.064C92.6323 79.808 92.5723 79.5 92.5723 79.14C92.5723 78.796 92.6403 78.5 92.7763 78.252C92.9203 78.004 93.1123 77.804 93.3523 77.652C93.5923 77.5 93.8723 77.388 94.1923 77.316C94.5123 77.244 94.8483 77.208 95.2003 77.208C95.3123 77.208 95.4283 77.216 95.5483 77.232C95.6683 77.24 95.7803 77.256 95.8843 77.28C95.9963 77.296 96.0923 77.312 96.1723 77.328C96.2523 77.344 96.3083 77.356 96.3403 77.364V77.052C96.3403 76.868 96.3203 76.688 96.2803 76.512C96.2403 76.328 96.1683 76.168 96.0643 76.032C95.9603 75.888 95.8163 75.776 95.6323 75.696C95.4563 75.608 95.2243 75.564 94.9363 75.564C94.5683 75.564 94.2443 75.592 93.9643 75.648C93.6923 75.696 93.4883 75.748 93.3523 75.804L93.2203 74.88C93.3643 74.816 93.6043 74.756 93.9403 74.7C94.2763 74.636 94.6403 74.604 95.0323 74.604ZM98.5178 80.088H99.1898C99.4538 79.704 99.6618 79.308 99.8138 78.9C99.9738 78.492 100.094 78.072 100.174 77.64C100.254 77.2 100.306 76.744 100.33 76.272C100.354 75.792 100.37 75.288 100.378 74.76H104.47V80.088H105.31V82.74H104.254V81H99.5738V82.74H98.5178V80.088ZM103.354 80.088V75.696H101.398C101.39 76.072 101.37 76.452 101.338 76.836C101.306 77.212 101.254 77.588 101.182 77.964C101.11 78.332 101.006 78.696 100.87 79.056C100.742 79.408 100.578 79.752 100.378 80.088H103.354ZM106.077 82.164C106.165 82.204 106.277 82.24 106.413 82.272C106.557 82.312 106.697 82.332 106.833 82.332C107.273 82.332 107.617 82.232 107.865 82.032C108.113 81.84 108.337 81.524 108.537 81.084C108.033 80.124 107.561 79.108 107.121 78.036C106.689 76.956 106.329 75.864 106.041 74.76H107.241C107.329 75.12 107.433 75.508 107.553 75.924C107.681 76.34 107.821 76.768 107.973 77.208C108.125 77.648 108.289 78.088 108.465 78.528C108.641 78.968 108.825 79.392 109.017 79.8C109.321 78.96 109.585 78.128 109.809 77.304C110.033 76.48 110.245 75.632 110.445 74.76H111.597C111.309 75.936 110.989 77.068 110.637 78.156C110.285 79.236 109.905 80.248 109.497 81.192C109.337 81.552 109.169 81.86 108.993 82.116C108.825 82.38 108.637 82.596 108.429 82.764C108.221 82.932 107.985 83.056 107.721 83.136C107.465 83.216 107.173 83.256 106.845 83.256C106.757 83.256 106.665 83.248 106.569 83.232C106.473 83.224 106.377 83.208 106.281 83.184C106.193 83.168 106.109 83.148 106.029 83.124C105.957 83.1 105.905 83.08 105.873 83.064L106.077 82.164ZM112.285 77.892C112.285 77.34 112.365 76.86 112.525 76.452C112.685 76.036 112.897 75.692 113.161 75.42C113.425 75.148 113.729 74.944 114.073 74.808C114.417 74.672 114.769 74.604 115.129 74.604C115.969 74.604 116.613 74.868 117.061 75.396C117.509 75.916 117.733 76.712 117.733 77.784C117.733 77.832 117.733 77.896 117.733 77.976C117.733 78.048 117.729 78.116 117.721 78.18H113.449C113.497 78.828 113.685 79.32 114.013 79.656C114.341 79.992 114.853 80.16 115.549 80.16C115.941 80.16 116.269 80.128 116.533 80.064C116.805 79.992 117.009 79.924 117.145 79.86L117.301 80.796C117.165 80.868 116.925 80.944 116.581 81.024C116.245 81.104 115.861 81.144 115.429 81.144C114.885 81.144 114.413 81.064 114.013 80.904C113.621 80.736 113.297 80.508 113.041 80.22C112.785 79.932 112.593 79.592 112.465 79.2C112.345 78.8 112.285 78.364 112.285 77.892ZM116.569 77.28C116.577 76.776 116.449 76.364 116.185 76.044C115.929 75.716 115.573 75.552 115.117 75.552C114.861 75.552 114.633 75.604 114.433 75.708C114.241 75.804 114.077 75.932 113.941 76.092C113.805 76.252 113.697 76.436 113.617 76.644C113.545 76.852 113.497 77.064 113.473 77.28H116.569ZM120.525 76.404C120.445 77.196 120.385 77.988 120.345 78.78C120.305 79.564 120.273 80.304 120.249 81H119.181C119.197 80.512 119.221 80.004 119.253 79.476C119.285 78.94 119.321 78.404 119.361 77.868C119.401 77.324 119.445 76.792 119.493 76.272C119.541 75.744 119.593 75.24 119.649 74.76H120.669C120.925 75.176 121.225 75.748 121.569 76.476C121.913 77.196 122.309 78.028 122.757 78.972C123.205 78.028 123.601 77.196 123.945 76.476C124.289 75.748 124.589 75.176 124.845 74.76H125.877C125.933 75.24 125.985 75.744 126.033 76.272C126.081 76.792 126.125 77.324 126.165 77.868C126.205 78.404 126.241 78.94 126.273 79.476C126.305 80.004 126.329 80.512 126.345 81H125.241C125.217 80.304 125.185 79.564 125.145 78.78C125.105 77.988 125.045 77.196 124.965 76.404C124.837 76.652 124.689 76.952 124.521 77.304C124.353 77.648 124.185 78 124.017 78.36C123.857 78.72 123.705 79.064 123.561 79.392C123.417 79.72 123.305 79.98 123.225 80.172H122.289C122.201 79.972 122.081 79.708 121.929 79.38C121.785 79.052 121.629 78.708 121.461 78.348C121.301 77.98 121.137 77.624 120.969 77.28C120.801 76.928 120.653 76.636 120.525 76.404ZM131.983 80.16C132.031 80.168 132.099 80.176 132.187 80.184C132.275 80.192 132.375 80.2 132.487 80.208C132.599 80.208 132.715 80.212 132.835 80.22C132.963 80.22 133.083 80.22 133.195 80.22C133.427 80.22 133.647 80.204 133.855 80.172C134.071 80.14 134.255 80.084 134.407 80.004C134.567 79.924 134.691 79.82 134.779 79.692C134.875 79.556 134.923 79.384 134.923 79.176C134.923 78.976 134.879 78.812 134.791 78.684C134.711 78.548 134.599 78.44 134.455 78.36C134.311 78.28 134.139 78.224 133.939 78.192C133.747 78.16 133.539 78.144 133.315 78.144H131.983V80.16ZM133.171 77.316C133.387 77.316 133.583 77.304 133.759 77.28C133.943 77.248 134.099 77.196 134.227 77.124C134.363 77.052 134.467 76.956 134.539 76.836C134.619 76.716 134.659 76.564 134.659 76.38C134.659 76.188 134.611 76.036 134.515 75.924C134.419 75.812 134.291 75.728 134.131 75.672C133.979 75.608 133.803 75.568 133.603 75.552C133.411 75.528 133.215 75.516 133.015 75.516C132.831 75.516 132.643 75.52 132.451 75.528C132.267 75.536 132.111 75.544 131.983 75.552V77.316H133.171ZM133.147 81.108C132.675 81.108 132.239 81.084 131.839 81.036C131.439 80.996 131.123 80.948 130.891 80.892V74.82C131.123 74.764 131.439 74.716 131.839 74.676C132.239 74.628 132.675 74.604 133.147 74.604C133.475 74.604 133.795 74.632 134.107 74.688C134.419 74.744 134.695 74.84 134.935 74.976C135.175 75.104 135.367 75.284 135.511 75.516C135.663 75.74 135.739 76.02 135.739 76.356C135.739 76.66 135.663 76.92 135.511 77.136C135.359 77.352 135.155 77.52 134.899 77.64C135.243 77.76 135.515 77.94 135.715 78.18C135.923 78.412 136.027 78.74 136.027 79.164C136.027 79.54 135.951 79.852 135.799 80.1C135.655 80.348 135.451 80.548 135.187 80.7C134.931 80.852 134.627 80.956 134.275 81.012C133.923 81.076 133.547 81.108 133.147 81.108ZM139.745 77.604C139.993 77.78 140.261 78.004 140.549 78.276C140.837 78.54 141.117 78.828 141.389 79.14C141.669 79.452 141.929 79.772 142.169 80.1C142.409 80.42 142.613 80.72 142.781 81H141.461C141.285 80.728 141.077 80.452 140.837 80.172C140.605 79.884 140.361 79.608 140.105 79.344C139.849 79.08 139.589 78.836 139.325 78.612C139.061 78.388 138.813 78.2 138.581 78.048V81H137.465V74.76H138.581V77.436C138.773 77.252 138.993 77.04 139.241 76.8C139.489 76.552 139.737 76.304 139.985 76.056C140.241 75.8 140.477 75.56 140.693 75.336C140.909 75.104 141.085 74.912 141.221 74.76H142.517C142.341 74.952 142.133 75.172 141.893 75.42C141.661 75.66 141.417 75.908 141.161 76.164C140.913 76.42 140.665 76.676 140.417 76.932C140.169 77.18 139.945 77.404 139.745 77.604ZM143.179 82.164C143.267 82.204 143.379 82.24 143.515 82.272C143.659 82.312 143.799 82.332 143.935 82.332C144.375 82.332 144.719 82.232 144.967 82.032C145.215 81.84 145.439 81.524 145.639 81.084C145.135 80.124 144.663 79.108 144.223 78.036C143.791 76.956 143.431 75.864 143.143 74.76H144.343C144.431 75.12 144.535 75.508 144.655 75.924C144.783 76.34 144.923 76.768 145.075 77.208C145.227 77.648 145.391 78.088 145.567 78.528C145.743 78.968 145.927 79.392 146.119 79.8C146.423 78.96 146.687 78.128 146.911 77.304C147.135 76.48 147.347 75.632 147.547 74.76H148.699C148.411 75.936 148.091 77.068 147.739 78.156C147.387 79.236 147.007 80.248 146.599 81.192C146.439 81.552 146.271 81.86 146.095 82.116C145.927 82.38 145.739 82.596 145.531 82.764C145.323 82.932 145.087 83.056 144.823 83.136C144.567 83.216 144.275 83.256 143.947 83.256C143.859 83.256 143.767 83.248 143.671 83.232C143.575 83.224 143.479 83.208 143.383 83.184C143.295 83.168 143.211 83.148 143.131 83.124C143.059 83.1 143.007 83.08 142.975 83.064L143.179 82.164ZM152.447 81.144C151.943 81.144 151.499 81.064 151.115 80.904C150.739 80.744 150.419 80.52 150.155 80.232C149.899 79.944 149.707 79.604 149.579 79.212C149.451 78.812 149.387 78.372 149.387 77.892C149.387 77.412 149.455 76.972 149.591 76.572C149.735 76.172 149.935 75.828 150.191 75.54C150.447 75.244 150.759 75.016 151.127 74.856C151.503 74.688 151.919 74.604 152.375 74.604C152.655 74.604 152.935 74.628 153.215 74.676C153.495 74.724 153.763 74.8 154.019 74.904L153.767 75.852C153.599 75.772 153.403 75.708 153.179 75.66C152.963 75.612 152.731 75.588 152.483 75.588C151.859 75.588 151.379 75.784 151.043 76.176C150.715 76.568 150.551 77.14 150.551 77.892C150.551 78.228 150.587 78.536 150.659 78.816C150.739 79.096 150.859 79.336 151.019 79.536C151.187 79.736 151.399 79.892 151.655 80.004C151.911 80.108 152.223 80.16 152.591 80.16C152.887 80.16 153.155 80.132 153.395 80.076C153.635 80.02 153.823 79.96 153.959 79.896L154.115 80.832C154.051 80.872 153.959 80.912 153.839 80.952C153.719 80.984 153.583 81.012 153.431 81.036C153.279 81.068 153.115 81.092 152.939 81.108C152.771 81.132 152.607 81.144 152.447 81.144ZM160.425 81H159.309V78.24H156.429V81H155.313V74.76H156.429V77.304H159.309V74.76H160.425V81ZM164.636 77.916C164.42 77.916 164.208 77.924 164 77.94C163.8 77.948 163.62 77.972 163.46 78.012V80.16C163.508 80.168 163.576 80.176 163.664 80.184C163.76 80.192 163.86 80.2 163.964 80.208C164.076 80.208 164.188 80.212 164.3 80.22C164.412 80.22 164.512 80.22 164.6 80.22C165.088 80.22 165.464 80.128 165.728 79.944C165.992 79.76 166.124 79.464 166.124 79.056C166.124 78.856 166.08 78.684 165.992 78.54C165.912 78.396 165.8 78.28 165.656 78.192C165.52 78.096 165.364 78.028 165.188 77.988C165.012 77.94 164.828 77.916 164.636 77.916ZM162.344 74.76H163.46V77.148C163.596 77.116 163.792 77.084 164.048 77.052C164.312 77.02 164.564 77.004 164.804 77.004C165.132 77.004 165.444 77.044 165.74 77.124C166.036 77.196 166.296 77.316 166.52 77.484C166.744 77.644 166.92 77.856 167.048 78.12C167.184 78.376 167.252 78.684 167.252 79.044C167.252 79.42 167.188 79.74 167.06 80.004C166.932 80.268 166.752 80.484 166.52 80.652C166.288 80.82 166.008 80.94 165.68 81.012C165.352 81.092 164.992 81.132 164.6 81.132C164.224 81.132 163.844 81.108 163.46 81.06C163.076 81.02 162.704 80.956 162.344 80.868V74.76ZM169.52 81H168.404V74.76H169.52V81ZM172.626 76.404C172.546 77.196 172.486 77.988 172.446 78.78C172.406 79.564 172.374 80.304 172.35 81H171.282C171.298 80.512 171.322 80.004 171.354 79.476C171.386 78.94 171.422 78.404 171.462 77.868C171.502 77.324 171.546 76.792 171.594 76.272C171.642 75.744 171.694 75.24 171.75 74.76H172.77C173.026 75.176 173.326 75.748 173.67 76.476C174.014 77.196 174.41 78.028 174.858 78.972C175.306 78.028 175.702 77.196 176.046 76.476C176.39 75.748 176.69 75.176 176.946 74.76H177.978C178.034 75.24 178.086 75.744 178.134 76.272C178.182 76.792 178.226 77.324 178.266 77.868C178.306 78.404 178.342 78.94 178.374 79.476C178.406 80.004 178.43 80.512 178.446 81H177.342C177.318 80.304 177.286 79.564 177.246 78.78C177.206 77.988 177.146 77.196 177.066 76.404C176.938 76.652 176.79 76.952 176.622 77.304C176.454 77.648 176.286 78 176.118 78.36C175.958 78.72 175.806 79.064 175.662 79.392C175.518 79.72 175.406 79.98 175.326 80.172H174.39C174.302 79.972 174.182 79.708 174.03 79.38C173.886 79.052 173.73 78.708 173.562 78.348C173.402 77.98 173.238 77.624 173.07 77.28C172.902 76.928 172.754 76.636 172.626 76.404ZM185.459 74.76V81H184.379V76.248C184.139 76.552 183.875 76.908 183.587 77.316C183.299 77.724 183.011 78.148 182.723 78.588C182.435 79.02 182.159 79.448 181.895 79.872C181.631 80.296 181.403 80.672 181.211 81H180.215V74.76H181.295V79.248C181.503 78.904 181.739 78.528 182.003 78.12C182.267 77.704 182.539 77.296 182.819 76.896C183.107 76.488 183.391 76.1 183.671 75.732C183.959 75.356 184.227 75.032 184.475 74.76H185.459ZM195.169 81H194.053V75.696H191.269V81H190.153V74.76H195.169V81ZM201.422 77.892C201.422 77.164 201.242 76.604 200.882 76.212C200.522 75.82 200.042 75.624 199.442 75.624C199.106 75.624 198.842 75.636 198.65 75.66C198.466 75.684 198.318 75.712 198.206 75.744V79.68C198.342 79.792 198.538 79.9 198.794 80.004C199.05 80.108 199.33 80.16 199.634 80.16C199.954 80.16 200.226 80.104 200.45 79.992C200.682 79.872 200.87 79.712 201.014 79.512C201.158 79.304 201.262 79.064 201.326 78.792C201.39 78.512 201.422 78.212 201.422 77.892ZM202.586 77.892C202.586 78.364 202.522 78.8 202.394 79.2C202.274 79.6 202.094 79.944 201.854 80.232C201.614 80.52 201.318 80.744 200.966 80.904C200.622 81.064 200.226 81.144 199.778 81.144C199.418 81.144 199.098 81.096 198.818 81C198.546 80.904 198.342 80.812 198.206 80.724V83.22H197.09V74.952C197.354 74.888 197.682 74.82 198.074 74.748C198.474 74.668 198.934 74.628 199.454 74.628C199.934 74.628 200.366 74.704 200.75 74.856C201.134 75.008 201.462 75.224 201.734 75.504C202.006 75.784 202.214 76.128 202.358 76.536C202.51 76.936 202.586 77.388 202.586 77.892ZM209.665 77.88C209.665 78.376 209.593 78.824 209.449 79.224C209.305 79.624 209.101 79.968 208.837 80.256C208.581 80.544 208.273 80.768 207.913 80.928C207.553 81.08 207.161 81.156 206.737 81.156C206.313 81.156 205.921 81.08 205.561 80.928C205.201 80.768 204.889 80.544 204.625 80.256C204.369 79.968 204.169 79.624 204.025 79.224C203.881 78.824 203.809 78.376 203.809 77.88C203.809 77.392 203.881 76.948 204.025 76.548C204.169 76.14 204.369 75.792 204.625 75.504C204.889 75.216 205.201 74.996 205.561 74.844C205.921 74.684 206.313 74.604 206.737 74.604C207.161 74.604 207.553 74.684 207.913 74.844C208.273 74.996 208.581 75.216 208.837 75.504C209.101 75.792 209.305 76.14 209.449 76.548C209.593 76.948 209.665 77.392 209.665 77.88ZM208.501 77.88C208.501 77.176 208.341 76.62 208.021 76.212C207.709 75.796 207.281 75.588 206.737 75.588C206.193 75.588 205.761 75.796 205.441 76.212C205.129 76.62 204.973 77.176 204.973 77.88C204.973 78.584 205.129 79.144 205.441 79.56C205.761 79.968 206.193 80.172 206.737 80.172C207.281 80.172 207.709 79.968 208.021 79.56C208.341 79.144 208.501 78.584 208.501 77.88ZM210.467 80.088H211.139C211.403 79.704 211.611 79.308 211.763 78.9C211.923 78.492 212.043 78.072 212.123 77.64C212.203 77.2 212.255 76.744 212.279 76.272C212.303 75.792 212.319 75.288 212.327 74.76H216.419V80.088H217.259V82.74H216.203V81H211.523V82.74H210.467V80.088ZM215.303 80.088V75.696H213.347C213.339 76.072 213.319 76.452 213.287 76.836C213.255 77.212 213.203 77.588 213.131 77.964C213.059 78.332 212.955 78.696 212.819 79.056C212.691 79.408 212.527 79.752 212.327 80.088H215.303ZM218.026 82.164C218.114 82.204 218.226 82.24 218.362 82.272C218.506 82.312 218.646 82.332 218.782 82.332C219.222 82.332 219.566 82.232 219.814 82.032C220.062 81.84 220.286 81.524 220.486 81.084C219.982 80.124 219.51 79.108 219.07 78.036C218.638 76.956 218.278 75.864 217.99 74.76H219.19C219.278 75.12 219.382 75.508 219.502 75.924C219.63 76.34 219.77 76.768 219.922 77.208C220.074 77.648 220.238 78.088 220.414 78.528C220.59 78.968 220.774 79.392 220.966 79.8C221.27 78.96 221.534 78.128 221.758 77.304C221.982 76.48 222.194 75.632 222.394 74.76H223.546C223.258 75.936 222.938 77.068 222.586 78.156C222.234 79.236 221.854 80.248 221.446 81.192C221.286 81.552 221.118 81.86 220.942 82.116C220.774 82.38 220.586 82.596 220.378 82.764C220.17 82.932 219.934 83.056 219.67 83.136C219.414 83.216 219.122 83.256 218.794 83.256C218.706 83.256 218.614 83.248 218.518 83.232C218.422 83.224 218.326 83.208 218.23 83.184C218.142 83.168 218.058 83.148 217.978 83.124C217.906 83.1 217.854 83.08 217.822 83.064L218.026 82.164ZM227.003 77.604C227.251 77.78 227.519 78.004 227.807 78.276C228.095 78.54 228.375 78.828 228.647 79.14C228.927 79.452 229.187 79.772 229.427 80.1C229.667 80.42 229.871 80.72 230.039 81H228.719C228.543 80.728 228.335 80.452 228.095 80.172C227.863 79.884 227.619 79.608 227.363 79.344C227.107 79.08 226.847 78.836 226.583 78.612C226.319 78.388 226.071 78.2 225.839 78.048V81H224.723V74.76H225.839V77.436C226.031 77.252 226.251 77.04 226.499 76.8C226.747 76.552 226.995 76.304 227.243 76.056C227.499 75.8 227.735 75.56 227.951 75.336C228.167 75.104 228.343 74.912 228.479 74.76H229.775C229.599 74.952 229.391 75.172 229.151 75.42C228.919 75.66 228.675 75.908 228.419 76.164C228.171 76.42 227.923 76.676 227.675 76.932C227.427 77.18 227.203 77.404 227.003 77.604ZM235.573 74.76V75.696H233.545V81H232.429V75.696H230.401V74.76H235.573ZM238.835 80.196C239.099 80.196 239.331 80.192 239.531 80.184C239.739 80.168 239.911 80.144 240.047 80.112V78.252C239.967 78.212 239.835 78.18 239.651 78.156C239.475 78.124 239.259 78.108 239.003 78.108C238.835 78.108 238.655 78.12 238.463 78.144C238.279 78.168 238.107 78.22 237.947 78.3C237.795 78.372 237.667 78.476 237.563 78.612C237.459 78.74 237.407 78.912 237.407 79.128C237.407 79.528 237.535 79.808 237.791 79.968C238.047 80.12 238.395 80.196 238.835 80.196ZM238.739 74.604C239.187 74.604 239.563 74.664 239.867 74.784C240.179 74.896 240.427 75.06 240.611 75.276C240.803 75.484 240.939 75.736 241.019 76.032C241.099 76.32 241.139 76.64 241.139 76.992V80.892C241.043 80.908 240.907 80.932 240.731 80.964C240.563 80.988 240.371 81.012 240.155 81.036C239.939 81.06 239.703 81.08 239.447 81.096C239.199 81.12 238.951 81.132 238.703 81.132C238.351 81.132 238.027 81.096 237.731 81.024C237.435 80.952 237.179 80.84 236.963 80.688C236.747 80.528 236.579 80.32 236.459 80.064C236.339 79.808 236.279 79.5 236.279 79.14C236.279 78.796 236.347 78.5 236.483 78.252C236.627 78.004 236.819 77.804 237.059 77.652C237.299 77.5 237.579 77.388 237.899 77.316C238.219 77.244 238.555 77.208 238.907 77.208C239.019 77.208 239.135 77.216 239.255 77.232C239.375 77.24 239.487 77.256 239.591 77.28C239.703 77.296 239.799 77.312 239.879 77.328C239.959 77.344 240.015 77.356 240.047 77.364V77.052C240.047 76.868 240.027 76.688 239.987 76.512C239.947 76.328 239.875 76.168 239.771 76.032C239.667 75.888 239.523 75.776 239.339 75.696C239.163 75.608 238.931 75.564 238.643 75.564C238.275 75.564 237.951 75.592 237.671 75.648C237.399 75.696 237.195 75.748 237.059 75.804L236.927 74.88C237.071 74.816 237.311 74.756 237.647 74.7C237.983 74.636 238.347 74.604 238.739 74.604ZM244.181 76.404C244.101 77.196 244.041 77.988 244.001 78.78C243.961 79.564 243.929 80.304 243.905 81H242.837C242.853 80.512 242.877 80.004 242.909 79.476C242.941 78.94 242.977 78.404 243.017 77.868C243.057 77.324 243.101 76.792 243.149 76.272C243.197 75.744 243.249 75.24 243.305 74.76H244.325C244.581 75.176 244.881 75.748 245.225 76.476C245.569 77.196 245.965 78.028 246.413 78.972C246.861 78.028 247.257 77.196 247.601 76.476C247.945 75.748 248.245 75.176 248.501 74.76H249.533C249.589 75.24 249.641 75.744 249.689 76.272C249.737 76.792 249.781 77.324 249.821 77.868C249.861 78.404 249.897 78.94 249.929 79.476C249.961 80.004 249.985 80.512 250.001 81H248.897C248.873 80.304 248.841 79.564 248.801 78.78C248.761 77.988 248.701 77.196 248.621 76.404C248.493 76.652 248.345 76.952 248.177 77.304C248.009 77.648 247.841 78 247.673 78.36C247.513 78.72 247.361 79.064 247.217 79.392C247.073 79.72 246.961 79.98 246.881 80.172H245.945C245.857 79.972 245.737 79.708 245.585 79.38C245.441 79.052 245.285 78.708 245.117 78.348C244.957 77.98 244.793 77.624 244.625 77.28C244.457 76.928 244.309 76.636 244.181 76.404ZM257.014 74.76V81H255.934V76.248C255.694 76.552 255.43 76.908 255.142 77.316C254.854 77.724 254.566 78.148 254.278 78.588C253.99 79.02 253.714 79.448 253.45 79.872C253.186 80.296 252.958 80.672 252.766 81H251.77V74.76H252.85V79.248C253.058 78.904 253.294 78.528 253.558 78.12C253.822 77.704 254.094 77.296 254.374 76.896C254.662 76.488 254.946 76.1 255.226 75.732C255.514 75.356 255.782 75.032 256.03 74.76H257.014ZM75.7251 91.76V98H74.6451V93.248C74.4051 93.552 74.1411 93.908 73.8531 94.316C73.5651 94.724 73.2771 95.148 72.9891 95.588C72.7011 96.02 72.4251 96.448 72.1611 96.872C71.8971 97.296 71.6691 97.672 71.4771 98H70.4811V91.76H71.5611V96.248C71.7691 95.904 72.0051 95.528 72.2691 95.12C72.5331 94.704 72.8051 94.296 73.0851 93.896C73.3731 93.488 73.6571 93.1 73.9371 92.732C74.2251 92.356 74.4931 92.032 74.7411 91.76H75.7251ZM79.6506 97.088H80.3226C80.5866 96.704 80.7946 96.308 80.9466 95.9C81.1066 95.492 81.2266 95.072 81.3066 94.64C81.3866 94.2 81.4386 93.744 81.4626 93.272C81.4866 92.792 81.5026 92.288 81.5106 91.76H85.6026V97.088H86.4426V99.74H85.3866V98H80.7066V99.74H79.6506V97.088ZM84.4866 97.088V92.696H82.5306C82.5226 93.072 82.5026 93.452 82.4706 93.836C82.4386 94.212 82.3866 94.588 82.3146 94.964C82.2426 95.332 82.1386 95.696 82.0026 96.056C81.8746 96.408 81.7106 96.752 81.5106 97.088H84.4866ZM92.7611 98H91.6451V95.24H88.7651V98H87.6491V91.76H88.7651V94.304H91.6451V91.76H92.7611V98ZM94.3323 94.892C94.3323 94.34 94.4123 93.86 94.5723 93.452C94.7323 93.036 94.9443 92.692 95.2083 92.42C95.4723 92.148 95.7763 91.944 96.1203 91.808C96.4643 91.672 96.8163 91.604 97.1763 91.604C98.0163 91.604 98.6603 91.868 99.1083 92.396C99.5563 92.916 99.7803 93.712 99.7803 94.784C99.7803 94.832 99.7803 94.896 99.7803 94.976C99.7803 95.048 99.7763 95.116 99.7683 95.18H95.4963C95.5443 95.828 95.7323 96.32 96.0603 96.656C96.3883 96.992 96.9003 97.16 97.5963 97.16C97.9883 97.16 98.3163 97.128 98.5803 97.064C98.8523 96.992 99.0563 96.924 99.1923 96.86L99.3483 97.796C99.2123 97.868 98.9723 97.944 98.6283 98.024C98.2923 98.104 97.9083 98.144 97.4763 98.144C96.9323 98.144 96.4603 98.064 96.0603 97.904C95.6683 97.736 95.3443 97.508 95.0883 97.22C94.8323 96.932 94.6403 96.592 94.5123 96.2C94.3923 95.8 94.3323 95.364 94.3323 94.892ZM98.6163 94.28C98.6243 93.776 98.4963 93.364 98.2323 93.044C97.9763 92.716 97.6203 92.552 97.1643 92.552C96.9083 92.552 96.6803 92.604 96.4803 92.708C96.2883 92.804 96.1243 92.932 95.9883 93.092C95.8523 93.252 95.7443 93.436 95.6643 93.644C95.5923 93.852 95.5443 94.064 95.5203 94.28H98.6163ZM96.0123 90.608C95.8283 90.608 95.6643 90.544 95.5203 90.416C95.3843 90.28 95.3163 90.108 95.3163 89.9C95.3163 89.692 95.3843 89.524 95.5203 89.396C95.6643 89.26 95.8283 89.192 96.0123 89.192C96.1963 89.192 96.3563 89.26 96.4923 89.396C96.6363 89.524 96.7083 89.692 96.7083 89.9C96.7083 90.108 96.6363 90.28 96.4923 90.416C96.3563 90.544 96.1963 90.608 96.0123 90.608ZM98.2923 90.608C98.1083 90.608 97.9443 90.544 97.8003 90.416C97.6643 90.28 97.5963 90.108 97.5963 89.9C97.5963 89.692 97.6643 89.524 97.8003 89.396C97.9443 89.26 98.1083 89.192 98.2923 89.192C98.4763 89.192 98.6363 89.26 98.7723 89.396C98.9163 89.524 98.9883 89.692 98.9883 89.9C98.9883 90.108 98.9163 90.28 98.7723 90.416C98.6363 90.544 98.4763 90.608 98.2923 90.608ZM102.571 93.404C102.491 94.196 102.431 94.988 102.391 95.78C102.351 96.564 102.319 97.304 102.295 98H101.227C101.243 97.512 101.267 97.004 101.299 96.476C101.331 95.94 101.367 95.404 101.407 94.868C101.447 94.324 101.491 93.792 101.539 93.272C101.587 92.744 101.639 92.24 101.695 91.76H102.715C102.971 92.176 103.271 92.748 103.615 93.476C103.959 94.196 104.355 95.028 104.803 95.972C105.251 95.028 105.647 94.196 105.991 93.476C106.335 92.748 106.635 92.176 106.891 91.76H107.923C107.979 92.24 108.031 92.744 108.079 93.272C108.127 93.792 108.171 94.324 108.211 94.868C108.251 95.404 108.287 95.94 108.319 96.476C108.351 97.004 108.375 97.512 108.391 98H107.287C107.263 97.304 107.231 96.564 107.191 95.78C107.151 94.988 107.091 94.196 107.011 93.404C106.883 93.652 106.735 93.952 106.567 94.304C106.399 94.648 106.231 95 106.063 95.36C105.903 95.72 105.751 96.064 105.607 96.392C105.463 96.72 105.351 96.98 105.271 97.172H104.335C104.247 96.972 104.127 96.708 103.975 96.38C103.831 96.052 103.675 95.708 103.507 95.348C103.347 94.98 103.183 94.624 103.015 94.28C102.847 93.928 102.699 93.636 102.571 93.404ZM118.182 91.76V98H117.102V93.248C116.862 93.552 116.598 93.908 116.31 94.316C116.022 94.724 115.734 95.148 115.446 95.588C115.158 96.02 114.882 96.448 114.618 96.872C114.354 97.296 114.126 97.672 113.934 98H112.938V91.76H114.018V96.248C114.226 95.904 114.462 95.528 114.726 95.12C114.99 94.704 115.262 94.296 115.542 93.896C115.83 93.488 116.114 93.1 116.394 92.732C116.682 92.356 116.95 92.032 117.198 91.76H118.182ZM127.988 98H126.872V95.24H123.992V98H122.876V91.76H123.992V94.304H126.872V91.76H127.988V98ZM135.415 94.88C135.415 95.376 135.343 95.824 135.199 96.224C135.055 96.624 134.851 96.968 134.587 97.256C134.331 97.544 134.023 97.768 133.663 97.928C133.303 98.08 132.911 98.156 132.487 98.156C132.063 98.156 131.671 98.08 131.311 97.928C130.951 97.768 130.639 97.544 130.375 97.256C130.119 96.968 129.919 96.624 129.775 96.224C129.631 95.824 129.559 95.376 129.559 94.88C129.559 94.392 129.631 93.948 129.775 93.548C129.919 93.14 130.119 92.792 130.375 92.504C130.639 92.216 130.951 91.996 131.311 91.844C131.671 91.684 132.063 91.604 132.487 91.604C132.911 91.604 133.303 91.684 133.663 91.844C134.023 91.996 134.331 92.216 134.587 92.504C134.851 92.792 135.055 93.14 135.199 93.548C135.343 93.948 135.415 94.392 135.415 94.88ZM134.251 94.88C134.251 94.176 134.091 93.62 133.771 93.212C133.459 92.796 133.031 92.588 132.487 92.588C131.943 92.588 131.511 92.796 131.191 93.212C130.879 93.62 130.723 94.176 130.723 94.88C130.723 95.584 130.879 96.144 131.191 96.56C131.511 96.968 131.943 97.172 132.487 97.172C133.031 97.172 133.459 96.968 133.771 96.56C134.091 96.144 134.251 95.584 134.251 94.88ZM137.693 91.76V93.596C137.693 94.068 137.813 94.4 138.053 94.592C138.293 94.776 138.621 94.868 139.037 94.868C139.341 94.868 139.593 94.852 139.793 94.82C140.001 94.788 140.185 94.752 140.345 94.712V91.76H141.461V98H140.345V95.576C140.281 95.592 140.197 95.612 140.093 95.636C139.989 95.66 139.869 95.684 139.733 95.708C139.605 95.724 139.469 95.74 139.325 95.756C139.181 95.772 139.041 95.78 138.905 95.78C138.561 95.78 138.245 95.744 137.957 95.672C137.677 95.6 137.433 95.48 137.225 95.312C137.025 95.144 136.865 94.924 136.745 94.652C136.633 94.372 136.577 94.024 136.577 93.608V91.76H137.693ZM145.747 97.22C146.219 97.22 146.591 97.128 146.863 96.944C147.135 96.76 147.271 96.464 147.271 96.056C147.271 95.856 147.231 95.684 147.151 95.54C147.071 95.396 146.959 95.28 146.815 95.192C146.679 95.096 146.519 95.028 146.335 94.988C146.151 94.94 145.955 94.916 145.747 94.916C145.531 94.916 145.307 94.924 145.075 94.94C144.851 94.948 144.659 94.972 144.499 95.012V97.16C144.547 97.168 144.619 97.176 144.715 97.184C144.811 97.192 144.915 97.2 145.027 97.208C145.147 97.208 145.267 97.212 145.387 97.22C145.515 97.22 145.635 97.22 145.747 97.22ZM143.383 97.868V91.76H144.499V94.148C144.563 94.132 144.647 94.116 144.751 94.1C144.863 94.084 144.979 94.068 145.099 94.052C145.227 94.036 145.359 94.024 145.495 94.016C145.631 94.008 145.759 94.004 145.879 94.004C146.223 94.004 146.547 94.044 146.851 94.124C147.155 94.196 147.419 94.316 147.643 94.484C147.875 94.644 148.059 94.856 148.195 95.12C148.331 95.376 148.399 95.684 148.399 96.044C148.399 96.42 148.335 96.74 148.207 97.004C148.079 97.268 147.895 97.484 147.655 97.652C147.415 97.82 147.127 97.94 146.791 98.012C146.463 98.092 146.095 98.132 145.687 98.132C145.287 98.132 144.895 98.108 144.511 98.06C144.127 98.02 143.751 97.956 143.383 97.868ZM150.839 94.34H152.207C152.255 93.924 152.359 93.548 152.519 93.212C152.687 92.876 152.895 92.588 153.143 92.348C153.391 92.108 153.675 91.924 153.995 91.796C154.315 91.668 154.659 91.604 155.027 91.604C155.435 91.604 155.811 91.684 156.155 91.844C156.507 91.996 156.811 92.216 157.067 92.504C157.323 92.792 157.523 93.14 157.667 93.548C157.811 93.948 157.883 94.392 157.883 94.88C157.883 95.376 157.811 95.824 157.667 96.224C157.523 96.624 157.323 96.968 157.067 97.256C156.811 97.544 156.507 97.768 156.155 97.928C155.811 98.08 155.435 98.156 155.027 98.156C154.643 98.156 154.283 98.088 153.947 97.952C153.619 97.808 153.331 97.612 153.083 97.364C152.835 97.108 152.631 96.8 152.471 96.44C152.319 96.08 152.227 95.68 152.195 95.24H150.839V98H149.723V91.76H150.839V94.34ZM156.731 94.88C156.731 94.176 156.575 93.62 156.263 93.212C155.959 92.796 155.547 92.588 155.027 92.588C154.507 92.588 154.091 92.796 153.779 93.212C153.475 93.62 153.323 94.176 153.323 94.88C153.323 95.584 153.475 96.144 153.779 96.56C154.091 96.968 154.507 97.172 155.027 97.172C155.547 97.172 155.959 96.968 156.263 96.56C156.575 96.144 156.731 95.584 156.731 94.88Z" fill="#1A1A1A"/>
</svg>
