<svg width="280" height="121" viewBox="0 0 280 121" fill="none" xmlns="http://www.w3.org/2000/svg">
<rect x="0.5" y="0.5" width="279" height="120" rx="15.5" fill="white"/>
<rect x="0.5" y="0.5" width="279" height="120" rx="15.5" stroke="#CFCFCF"/>
<rect x="8" y="35.5" width="53" height="50" rx="8" fill="white"/>
<path d="M38.1401 54.7874C40.1505 54.7874 41.7802 53.1884 41.7802 51.216C41.7802 49.2435 40.1505 47.6445 38.1401 47.6445C36.1297 47.6445 34.5 49.2435 34.5 51.216C34.5 53.1884 36.1297 54.7874 38.1401 54.7874Z" fill="#80D25B"/>
<path fill-rule="evenodd" clip-rule="evenodd" d="M18.4835 51.2148H41.0522V79.7864H18.4835V51.2148Z" fill="#5EA7FF"/>
<path d="M29.4038 74.0715C31.8163 74.0715 33.772 72.1527 33.772 69.7857C33.772 67.4188 31.8163 65.5 29.4038 65.5C26.9914 65.5 25.0357 67.4188 25.0357 69.7857C25.0357 72.1527 26.9914 74.0715 29.4038 74.0715Z" fill="#F3B156"/>
<path d="M22.1236 54.7874C24.134 54.7874 25.7637 53.1884 25.7637 51.216C25.7637 49.2435 24.134 47.6445 22.1236 47.6445C20.1132 47.6445 18.4835 49.2435 18.4835 51.216C18.4835 53.1884 20.1132 54.7874 22.1236 54.7874Z" fill="#22BA8E"/>
<path d="M46.8763 49.0726C48.8867 49.0726 50.5164 47.4736 50.5164 45.5011C50.5164 43.5287 48.8867 41.9297 46.8763 41.9297C44.8659 41.9297 43.2362 43.5287 43.2362 45.5011C43.2362 47.4736 44.8659 49.0726 46.8763 49.0726Z" fill="#80D25B"/>
<path d="M26.4918 51.9269C28.9042 51.9269 30.8599 50.0082 30.8599 47.6412C30.8599 45.2743 28.9042 43.3555 26.4918 43.3555C24.0793 43.3555 22.1236 45.2743 22.1236 47.6412C22.1236 50.0082 24.0793 51.9269 26.4918 51.9269Z" fill="#80D25B"/>
<path d="M41.0521 51.216C43.4646 51.216 45.4203 49.2972 45.4203 46.9303C45.4203 44.5633 43.4646 42.6445 41.0521 42.6445C38.6397 42.6445 36.684 44.5633 36.684 46.9303C36.684 49.2972 38.6397 51.216 41.0521 51.216Z" fill="#22BA8E"/>
<path d="M33.044 49.7863C35.4564 49.7863 37.4121 47.8675 37.4121 45.5006C37.4121 43.1336 35.4564 41.2148 33.044 41.2148C30.6315 41.2148 28.6758 43.1336 28.6758 45.5006C28.6758 47.8675 30.6315 49.7863 33.044 49.7863Z" fill="#80D25B"/>
<path d="M31.588 53.3577C33.5984 53.3577 35.2281 51.7587 35.2281 49.7863C35.2281 47.8138 33.5984 46.2148 31.588 46.2148C29.5776 46.2148 27.9479 47.8138 27.9479 49.7863C27.9479 51.7587 29.5776 53.3577 31.588 53.3577Z" fill="#22BA8E"/>
<path d="M36.684 48.3577C38.6944 48.3577 40.3241 46.7587 40.3241 44.7863C40.3241 42.8138 38.6944 41.2148 36.684 41.2148C34.6736 41.2148 33.0439 42.8138 33.0439 44.7863C33.0439 46.7587 34.6736 48.3577 36.684 48.3577Z" fill="#80D25B"/>
<path fill-rule="evenodd" clip-rule="evenodd" d="M41.0521 51.2138L49.7884 44.7852V71.9282L41.0521 79.7853V51.2138Z" fill="#5B68C0"/>
<path fill-rule="evenodd" clip-rule="evenodd" d="M41.0521 51.2127L49.7884 43.3555L53.4285 49.7841L45.4202 59.0698L41.0521 51.2127Z" fill="#5EA7FF"/>
<path fill-rule="evenodd" clip-rule="evenodd" d="M18.4835 51.2148H41.0522L38.1401 59.7863H15.5714L18.4835 51.2148Z" fill="#B4DFFB"/>
<path d="M76.924 14.798V16.324H73.942V24.5H72.164V16.324H69.182V14.798H76.924ZM84.0418 20.832C84.0418 21.4107 83.9578 21.938 83.7898 22.414C83.6218 22.89 83.3838 23.296 83.0758 23.632C82.7678 23.968 82.3945 24.2293 81.9558 24.416C81.5265 24.6027 81.0505 24.696 80.5278 24.696C80.0051 24.696 79.5291 24.6027 79.0998 24.416C78.6705 24.2293 78.3018 23.968 77.9938 23.632C77.6858 23.296 77.4431 22.89 77.2658 22.414C77.0978 21.938 77.0138 21.4107 77.0138 20.832C77.0138 20.2533 77.0978 19.7307 77.2658 19.264C77.4431 18.788 77.6858 18.382 77.9938 18.046C78.3111 17.71 78.6845 17.4533 79.1138 17.276C79.5431 17.0893 80.0145 16.996 80.5278 16.996C81.0411 16.996 81.5125 17.0893 81.9418 17.276C82.3805 17.4533 82.7538 17.71 83.0618 18.046C83.3698 18.382 83.6078 18.788 83.7758 19.264C83.9531 19.7307 84.0418 20.2533 84.0418 20.832ZM82.3058 20.832C82.3058 20.104 82.1471 19.53 81.8298 19.11C81.5218 18.6807 81.0878 18.466 80.5278 18.466C79.9678 18.466 79.5291 18.6807 79.2118 19.11C78.9038 19.53 78.7498 20.104 78.7498 20.832C78.7498 21.5693 78.9038 22.1527 79.2118 22.582C79.5291 23.0113 79.9678 23.226 80.5278 23.226C81.0878 23.226 81.5218 23.0113 81.8298 22.582C82.1471 22.1527 82.3058 21.5693 82.3058 20.832ZM88.657 18.578C88.6477 18.9887 88.6337 19.418 88.615 19.866C88.5963 20.3047 88.5497 20.7387 88.475 21.168C88.4097 21.5973 88.3023 22.008 88.153 22.4C88.0037 22.792 87.7937 23.1467 87.523 23.464C87.2617 23.772 86.9303 24.0333 86.529 24.248C86.137 24.4533 85.6563 24.584 85.087 24.64L84.849 23.226C85.325 23.1327 85.6937 22.9833 85.955 22.778C86.2163 22.5633 86.417 22.2927 86.557 21.966C86.669 21.7233 86.753 21.448 86.809 21.14C86.8743 20.832 86.921 20.51 86.949 20.174C86.9863 19.8287 87.0097 19.4787 87.019 19.124C87.0283 18.7693 87.033 18.424 87.033 18.088V17.178H92.213V24.5H90.519V18.578H88.657ZM96.0669 19.88C96.2069 19.8427 96.4123 19.81 96.6829 19.782C96.9536 19.754 97.2243 19.74 97.4949 19.74C97.9149 19.74 98.3069 19.7867 98.6709 19.88C99.0443 19.9733 99.3663 20.1227 99.6369 20.328C99.9076 20.524 100.122 20.7807 100.281 21.098C100.44 21.406 100.519 21.7747 100.519 22.204C100.519 22.6427 100.444 23.016 100.295 23.324C100.146 23.632 99.9309 23.884 99.6509 24.08C99.3709 24.276 99.0349 24.4207 98.6429 24.514C98.2603 24.6073 97.8309 24.654 97.3549 24.654C96.8043 24.654 96.2909 24.626 95.8149 24.57C95.3389 24.514 94.8583 24.43 94.3729 24.318V17.178H96.0669V19.88ZM97.3129 23.324C97.7889 23.324 98.1576 23.2353 98.4189 23.058C98.6896 22.8713 98.8249 22.5773 98.8249 22.176C98.8249 21.9707 98.7783 21.798 98.6849 21.658C98.6009 21.518 98.4843 21.406 98.3349 21.322C98.1949 21.2287 98.0269 21.1633 97.8309 21.126C97.6349 21.0887 97.4296 21.07 97.2149 21.07C97.0189 21.07 96.8136 21.0793 96.5989 21.098C96.3843 21.1073 96.2069 21.1307 96.0669 21.168V23.254C96.1883 23.2727 96.3656 23.2913 96.5989 23.31C96.8416 23.3193 97.0796 23.324 97.3129 23.324ZM103.751 20.118C103.965 19.9033 104.199 19.6653 104.451 19.404C104.703 19.1333 104.95 18.8627 105.193 18.592C105.445 18.3213 105.683 18.0647 105.907 17.822C106.131 17.57 106.317 17.3553 106.467 17.178H108.455C108.249 17.4207 108.011 17.6867 107.741 17.976C107.479 18.2653 107.204 18.564 106.915 18.872C106.635 19.1707 106.355 19.4647 106.075 19.754C105.804 20.034 105.557 20.286 105.333 20.51C105.622 20.7527 105.921 21.0373 106.229 21.364C106.546 21.6813 106.854 22.022 107.153 22.386C107.461 22.7407 107.745 23.1047 108.007 23.478C108.268 23.842 108.487 24.1827 108.665 24.5H106.705C106.527 24.22 106.317 23.926 106.075 23.618C105.841 23.31 105.594 23.0113 105.333 22.722C105.071 22.4233 104.805 22.1433 104.535 21.882C104.264 21.6207 104.003 21.3967 103.751 21.21V24.5H102.057V17.178H103.751V20.118ZM116.143 20.832C116.143 21.4107 116.059 21.938 115.891 22.414C115.723 22.89 115.485 23.296 115.177 23.632C114.869 23.968 114.496 24.2293 114.057 24.416C113.628 24.6027 113.152 24.696 112.629 24.696C112.107 24.696 111.631 24.6027 111.201 24.416C110.772 24.2293 110.403 23.968 110.095 23.632C109.787 23.296 109.545 22.89 109.367 22.414C109.199 21.938 109.115 21.4107 109.115 20.832C109.115 20.2533 109.199 19.7307 109.367 19.264C109.545 18.788 109.787 18.382 110.095 18.046C110.413 17.71 110.786 17.4533 111.215 17.276C111.645 17.0893 112.116 16.996 112.629 16.996C113.143 16.996 113.614 17.0893 114.043 17.276C114.482 17.4533 114.855 17.71 115.163 18.046C115.471 18.382 115.709 18.788 115.877 19.264C116.055 19.7307 116.143 20.2533 116.143 20.832ZM114.407 20.832C114.407 20.104 114.249 19.53 113.931 19.11C113.623 18.6807 113.189 18.466 112.629 18.466C112.069 18.466 111.631 18.6807 111.313 19.11C111.005 19.53 110.851 20.104 110.851 20.832C110.851 21.5693 111.005 22.1527 111.313 22.582C111.631 23.0113 112.069 23.226 112.629 23.226C113.189 23.226 113.623 23.0113 113.931 22.582C114.249 22.1527 114.407 21.5693 114.407 20.832ZM120.75 20.846C120.75 20.3047 120.834 19.8007 121.002 19.334C121.17 18.858 121.408 18.4473 121.716 18.102C122.033 17.7567 122.416 17.486 122.864 17.29C123.312 17.094 123.816 16.996 124.376 16.996C125.067 16.996 125.72 17.122 126.336 17.374L125.972 18.76C125.776 18.676 125.552 18.606 125.3 18.55C125.057 18.494 124.796 18.466 124.516 18.466C123.853 18.466 123.349 18.676 123.004 19.096C122.659 19.5067 122.486 20.09 122.486 20.846C122.486 21.574 122.649 22.1527 122.976 22.582C123.303 23.002 123.853 23.212 124.628 23.212C124.917 23.212 125.202 23.184 125.482 23.128C125.762 23.072 126.005 23.002 126.21 22.918L126.448 24.318C126.261 24.4113 125.977 24.4953 125.594 24.57C125.221 24.6447 124.833 24.682 124.432 24.682C123.807 24.682 123.261 24.5887 122.794 24.402C122.337 24.206 121.954 23.94 121.646 23.604C121.347 23.2587 121.123 22.8527 120.974 22.386C120.825 21.91 120.75 21.3967 120.75 20.846ZM130.672 24.64C130.401 24.64 130.126 24.6307 129.846 24.612C129.566 24.5933 129.295 24.57 129.034 24.542C128.782 24.514 128.544 24.486 128.32 24.458C128.096 24.4207 127.909 24.3833 127.76 24.346V17.276C127.909 17.2387 128.096 17.206 128.32 17.178C128.544 17.1407 128.782 17.1127 129.034 17.094C129.295 17.066 129.566 17.0473 129.846 17.038C130.126 17.0193 130.401 17.01 130.672 17.01C131.661 17.01 132.431 17.192 132.982 17.556C133.532 17.9107 133.808 18.41 133.808 19.054C133.808 19.39 133.724 19.6887 133.556 19.95C133.388 20.2113 133.168 20.4073 132.898 20.538C133.234 20.6687 133.523 20.874 133.766 21.154C134.008 21.434 134.13 21.8307 134.13 22.344C134.13 23.0813 133.84 23.6507 133.262 24.052C132.683 24.444 131.82 24.64 130.672 24.64ZM130.714 20.118C131.134 20.118 131.479 20.0573 131.75 19.936C132.03 19.8147 132.17 19.572 132.17 19.208C132.17 19.0307 132.123 18.886 132.03 18.774C131.946 18.662 131.829 18.5733 131.68 18.508C131.53 18.4427 131.358 18.4007 131.162 18.382C130.966 18.354 130.76 18.34 130.546 18.34C130.378 18.34 130.182 18.3447 129.958 18.354C129.743 18.3633 129.57 18.3773 129.44 18.396V20.118H130.714ZM129.44 23.24C129.552 23.2587 129.734 23.2773 129.986 23.296C130.247 23.3053 130.49 23.31 130.714 23.31C131.218 23.31 131.633 23.24 131.96 23.1C132.296 22.96 132.464 22.694 132.464 22.302C132.464 21.9193 132.31 21.658 132.002 21.518C131.703 21.3687 131.311 21.294 130.826 21.294H129.44V23.24ZM135.324 20.874C135.324 20.23 135.418 19.6653 135.604 19.18C135.8 18.6947 136.057 18.2933 136.374 17.976C136.692 17.6493 137.056 17.4067 137.466 17.248C137.877 17.08 138.297 16.996 138.726 16.996C139.734 16.996 140.518 17.3087 141.078 17.934C141.648 18.5593 141.932 19.4927 141.932 20.734C141.932 20.8273 141.928 20.9347 141.918 21.056C141.918 21.168 141.914 21.2707 141.904 21.364H137.074C137.121 21.952 137.326 22.4093 137.69 22.736C138.064 23.0533 138.6 23.212 139.3 23.212C139.711 23.212 140.084 23.1747 140.42 23.1C140.766 23.0253 141.036 22.946 141.232 22.862L141.456 24.248C141.363 24.2947 141.232 24.346 141.064 24.402C140.906 24.4487 140.719 24.4907 140.504 24.528C140.299 24.5747 140.075 24.612 139.832 24.64C139.59 24.668 139.342 24.682 139.09 24.682C138.446 24.682 137.886 24.5887 137.41 24.402C136.934 24.206 136.542 23.94 136.234 23.604C135.926 23.2587 135.698 22.8573 135.548 22.4C135.399 21.9333 135.324 21.4247 135.324 20.874ZM140.238 20.118C140.238 19.8847 140.206 19.6653 140.14 19.46C140.075 19.2453 139.977 19.0633 139.846 18.914C139.725 18.7553 139.571 18.634 139.384 18.55C139.207 18.4567 138.992 18.41 138.74 18.41C138.479 18.41 138.25 18.4613 138.054 18.564C137.858 18.6573 137.69 18.7833 137.55 18.942C137.42 19.1007 137.317 19.2827 137.242 19.488C137.168 19.6933 137.116 19.9033 137.088 20.118H140.238ZM142.79 24.5C143.22 23.7813 143.71 23.0907 144.26 22.428C144.811 21.756 145.366 21.1353 145.926 20.566C145.394 19.9967 144.876 19.418 144.372 18.83C143.868 18.2327 143.425 17.682 143.042 17.178H144.988C145.278 17.57 145.614 18.004 145.996 18.48C146.388 18.956 146.869 19.5393 147.438 20.23V17.178H149.076V20.23C149.664 19.5487 150.15 18.9653 150.532 18.48C150.915 17.9947 151.251 17.5607 151.54 17.178H153.458C153.104 17.682 152.674 18.228 152.17 18.816C151.676 19.404 151.153 19.9827 150.602 20.552C151.218 21.168 151.783 21.798 152.296 22.442C152.819 23.086 153.3 23.772 153.738 24.5H151.848C151.662 24.22 151.456 23.926 151.232 23.618C151.018 23.31 150.789 23.0067 150.546 22.708C150.313 22.4 150.07 22.106 149.818 21.826C149.566 21.546 149.319 21.2847 149.076 21.042V24.5H147.438V21.042C147.196 21.294 146.948 21.5647 146.696 21.854C146.444 22.1433 146.197 22.442 145.954 22.75C145.721 23.0487 145.492 23.3473 145.268 23.646C145.054 23.9447 144.858 24.2293 144.68 24.5H142.79ZM161.351 17.178V24.5H159.671C159.671 23.968 159.671 23.4407 159.671 22.918C159.681 22.3953 159.685 21.91 159.685 21.462C159.695 21.014 159.699 20.6267 159.699 20.3C159.709 19.964 159.713 19.7167 159.713 19.558C159.433 19.922 159.144 20.3233 158.845 20.762C158.547 21.2007 158.248 21.6393 157.949 22.078C157.66 22.5167 157.385 22.946 157.123 23.366C156.862 23.786 156.633 24.164 156.437 24.5H154.939V17.178H156.605C156.605 17.7193 156.601 18.2373 156.591 18.732C156.591 19.2173 156.591 19.6607 156.591 20.062C156.591 20.4633 156.587 20.8133 156.577 21.112C156.577 21.4107 156.577 21.6393 156.577 21.798C156.839 21.3967 157.109 20.986 157.389 20.566C157.669 20.1367 157.949 19.7213 158.229 19.32C158.519 18.9093 158.803 18.522 159.083 18.158C159.363 17.794 159.634 17.4673 159.895 17.178H161.351ZM163.106 20.874C163.106 20.23 163.199 19.6653 163.386 19.18C163.582 18.6947 163.838 18.2933 164.156 17.976C164.473 17.6493 164.837 17.4067 165.248 17.248C165.658 17.08 166.078 16.996 166.508 16.996C167.516 16.996 168.3 17.3087 168.86 17.934C169.429 18.5593 169.714 19.4927 169.714 20.734C169.714 20.8273 169.709 20.9347 169.7 21.056C169.7 21.168 169.695 21.2707 169.686 21.364H164.856C164.902 21.952 165.108 22.4093 165.472 22.736C165.845 23.0533 166.382 23.212 167.082 23.212C167.492 23.212 167.866 23.1747 168.202 23.1C168.547 23.0253 168.818 22.946 169.014 22.862L169.238 24.248C169.144 24.2947 169.014 24.346 168.846 24.402C168.687 24.4487 168.5 24.4907 168.286 24.528C168.08 24.5747 167.856 24.612 167.614 24.64C167.371 24.668 167.124 24.682 166.872 24.682C166.228 24.682 165.668 24.5887 165.192 24.402C164.716 24.206 164.324 23.94 164.016 23.604C163.708 23.2587 163.479 22.8573 163.33 22.4C163.18 21.9333 163.106 21.4247 163.106 20.874ZM168.02 20.118C168.02 19.8847 167.987 19.6653 167.922 19.46C167.856 19.2453 167.758 19.0633 167.628 18.914C167.506 18.7553 167.352 18.634 167.166 18.55C166.988 18.4567 166.774 18.41 166.522 18.41C166.26 18.41 166.032 18.4613 165.836 18.564C165.64 18.6573 165.472 18.7833 165.332 18.942C165.201 19.1007 165.098 19.2827 165.024 19.488C164.949 19.6933 164.898 19.9033 164.87 20.118H168.02ZM181.189 17.178V24.5H179.509C179.509 23.968 179.509 23.4407 179.509 22.918C179.519 22.3953 179.523 21.91 179.523 21.462C179.533 21.014 179.537 20.6267 179.537 20.3C179.547 19.964 179.551 19.7167 179.551 19.558C179.271 19.922 178.982 20.3233 178.683 20.762C178.385 21.2007 178.086 21.6393 177.787 22.078C177.498 22.5167 177.223 22.946 176.961 23.366C176.7 23.786 176.471 24.164 176.275 24.5H174.777V17.178H176.443C176.443 17.7193 176.439 18.2373 176.429 18.732C176.429 19.2173 176.429 19.6607 176.429 20.062C176.429 20.4633 176.425 20.8133 176.415 21.112C176.415 21.4107 176.415 21.6393 176.415 21.798C176.677 21.3967 176.947 20.986 177.227 20.566C177.507 20.1367 177.787 19.7213 178.067 19.32C178.357 18.9093 178.641 18.522 178.921 18.158C179.201 17.794 179.472 17.4673 179.733 17.178H181.189ZM192.707 17.178V24.5H191.013V18.592H188.311V24.5H186.617V17.178H192.707ZM201.483 20.832C201.483 21.4107 201.399 21.938 201.231 22.414C201.063 22.89 200.825 23.296 200.517 23.632C200.209 23.968 199.836 24.2293 199.397 24.416C198.968 24.6027 198.492 24.696 197.969 24.696C197.447 24.696 196.971 24.6027 196.541 24.416C196.112 24.2293 195.743 23.968 195.435 23.632C195.127 23.296 194.885 22.89 194.707 22.414C194.539 21.938 194.455 21.4107 194.455 20.832C194.455 20.2533 194.539 19.7307 194.707 19.264C194.885 18.788 195.127 18.382 195.435 18.046C195.753 17.71 196.126 17.4533 196.555 17.276C196.985 17.0893 197.456 16.996 197.969 16.996C198.483 16.996 198.954 17.0893 199.383 17.276C199.822 17.4533 200.195 17.71 200.503 18.046C200.811 18.382 201.049 18.788 201.217 19.264C201.395 19.7307 201.483 20.2533 201.483 20.832ZM199.747 20.832C199.747 20.104 199.589 19.53 199.271 19.11C198.963 18.6807 198.529 18.466 197.969 18.466C197.409 18.466 196.971 18.6807 196.653 19.11C196.345 19.53 196.191 20.104 196.191 20.832C196.191 21.5693 196.345 22.1527 196.653 22.582C196.971 23.0113 197.409 23.226 197.969 23.226C198.529 23.226 198.963 23.0113 199.271 22.582C199.589 22.1527 199.747 21.5693 199.747 20.832ZM206.098 18.578C206.089 18.9887 206.075 19.418 206.056 19.866C206.038 20.3047 205.991 20.7387 205.916 21.168C205.851 21.5973 205.744 22.008 205.594 22.4C205.445 22.792 205.235 23.1467 204.964 23.464C204.703 23.772 204.372 24.0333 203.97 24.248C203.578 24.4533 203.098 24.584 202.528 24.64L202.29 23.226C202.766 23.1327 203.135 22.9833 203.396 22.778C203.658 22.5633 203.858 22.2927 203.998 21.966C204.11 21.7233 204.194 21.448 204.25 21.14C204.316 20.832 204.362 20.51 204.39 20.174C204.428 19.8287 204.451 19.4787 204.46 19.124C204.47 18.7693 204.474 18.424 204.474 18.088V17.178H209.654V24.5H207.96V18.578H206.098ZM211.408 20.874C211.408 20.23 211.502 19.6653 211.688 19.18C211.884 18.6947 212.141 18.2933 212.458 17.976C212.776 17.6493 213.14 17.4067 213.55 17.248C213.961 17.08 214.381 16.996 214.81 16.996C215.818 16.996 216.602 17.3087 217.162 17.934C217.732 18.5593 218.016 19.4927 218.016 20.734C218.016 20.8273 218.012 20.9347 218.002 21.056C218.002 21.168 217.998 21.2707 217.988 21.364H213.158C213.205 21.952 213.41 22.4093 213.774 22.736C214.148 23.0533 214.684 23.212 215.384 23.212C215.795 23.212 216.168 23.1747 216.504 23.1C216.85 23.0253 217.12 22.946 217.316 22.862L217.54 24.248C217.447 24.2947 217.316 24.346 217.148 24.402C216.99 24.4487 216.803 24.4907 216.588 24.528C216.383 24.5747 216.159 24.612 215.916 24.64C215.674 24.668 215.426 24.682 215.174 24.682C214.53 24.682 213.97 24.5887 213.494 24.402C213.018 24.206 212.626 23.94 212.318 23.604C212.01 23.2587 211.782 22.8573 211.632 22.4C211.483 21.9333 211.408 21.4247 211.408 20.874ZM216.322 20.118C216.322 19.8847 216.29 19.6653 216.224 19.46C216.159 19.2453 216.061 19.0633 215.93 18.914C215.809 18.7553 215.655 18.634 215.468 18.55C215.291 18.4567 215.076 18.41 214.824 18.41C214.563 18.41 214.334 18.4613 214.138 18.564C213.942 18.6573 213.774 18.7833 213.634 18.942C213.504 19.1007 213.401 19.2827 213.326 19.488C213.252 19.6933 213.2 19.9033 213.172 20.118H216.322ZM219.354 17.402C219.475 17.3553 219.624 17.3087 219.802 17.262C219.979 17.2153 220.17 17.1733 220.376 17.136C220.581 17.0987 220.796 17.0707 221.02 17.052C221.253 17.024 221.486 17.01 221.72 17.01C222.121 17.01 222.504 17.0473 222.868 17.122C223.232 17.1967 223.549 17.318 223.82 17.486C224.09 17.654 224.305 17.8687 224.464 18.13C224.632 18.3913 224.716 18.704 224.716 19.068C224.716 19.46 224.608 19.7913 224.394 20.062C224.179 20.3327 223.932 20.5333 223.652 20.664C224.072 20.8227 224.394 21.056 224.618 21.364C224.842 21.672 224.954 22.064 224.954 22.54C224.954 22.9227 224.87 23.2493 224.702 23.52C224.543 23.7907 224.319 24.0147 224.03 24.192C223.75 24.36 223.418 24.4813 223.036 24.556C222.653 24.64 222.238 24.682 221.79 24.682C221.248 24.682 220.744 24.6353 220.278 24.542C219.811 24.458 219.442 24.3553 219.172 24.234L219.466 22.862C219.643 22.9367 219.928 23.0253 220.32 23.128C220.712 23.2213 221.174 23.268 221.706 23.268C222.732 23.268 223.246 22.9693 223.246 22.372C223.246 22.1573 223.199 21.9847 223.106 21.854C223.012 21.7233 222.896 21.6253 222.756 21.56C222.616 21.4853 222.457 21.4387 222.28 21.42C222.102 21.392 221.93 21.378 221.762 21.378H220.362V20.118H221.748C222.093 20.118 222.387 20.0573 222.63 19.936C222.882 19.8053 223.008 19.5813 223.008 19.264C223.008 19.0027 222.886 18.7973 222.644 18.648C222.41 18.4893 222.079 18.41 221.65 18.41C221.463 18.41 221.272 18.424 221.076 18.452C220.88 18.4707 220.688 18.4987 220.502 18.536C220.324 18.5733 220.161 18.6153 220.012 18.662C219.862 18.6993 219.746 18.7367 219.662 18.774L219.354 17.402ZM232.822 24.5H231.128V21.434H228.37V24.5H226.676V17.178H228.37V20.034H231.128V17.178H232.822V24.5ZM243.892 24.5H242.198V17.178H243.892V24.5ZM236.668 19.88C236.808 19.8427 237.009 19.81 237.27 19.782C237.541 19.754 237.802 19.74 238.054 19.74C238.456 19.74 238.834 19.7867 239.188 19.88C239.552 19.9733 239.865 20.1227 240.126 20.328C240.397 20.524 240.607 20.7807 240.756 21.098C240.915 21.406 240.994 21.7747 240.994 22.204C240.994 22.6427 240.92 23.016 240.77 23.324C240.621 23.632 240.411 23.884 240.14 24.08C239.87 24.276 239.543 24.4207 239.16 24.514C238.787 24.6073 238.372 24.654 237.914 24.654C237.382 24.654 236.878 24.626 236.402 24.57C235.936 24.514 235.46 24.43 234.974 24.318V17.178H236.668V19.88ZM237.872 23.324C238.311 23.324 238.656 23.2353 238.908 23.058C239.17 22.8713 239.3 22.5773 239.3 22.176C239.3 21.9707 239.258 21.798 239.174 21.658C239.09 21.518 238.974 21.406 238.824 21.322C238.684 21.2287 238.521 21.1633 238.334 21.126C238.157 21.0887 237.97 21.07 237.774 21.07C237.597 21.07 237.401 21.0793 237.186 21.098C236.981 21.1073 236.808 21.1307 236.668 21.168V23.254C236.79 23.2727 236.967 23.2913 237.2 23.31C237.434 23.3193 237.658 23.324 237.872 23.324ZM245.643 20.874C245.643 20.23 245.736 19.6653 245.923 19.18C246.119 18.6947 246.375 18.2933 246.693 17.976C247.01 17.6493 247.374 17.4067 247.785 17.248C248.195 17.08 248.615 16.996 249.045 16.996C250.053 16.996 250.837 17.3087 251.397 17.934C251.966 18.5593 252.251 19.4927 252.251 20.734C252.251 20.8273 252.246 20.9347 252.237 21.056C252.237 21.168 252.232 21.2707 252.223 21.364H247.393C247.439 21.952 247.645 22.4093 248.009 22.736C248.382 23.0533 248.919 23.212 249.619 23.212C250.029 23.212 250.403 23.1747 250.739 23.1C251.084 23.0253 251.355 22.946 251.551 22.862L251.775 24.248C251.681 24.2947 251.551 24.346 251.383 24.402C251.224 24.4487 251.037 24.4907 250.823 24.528C250.617 24.5747 250.393 24.612 250.151 24.64C249.908 24.668 249.661 24.682 249.409 24.682C248.765 24.682 248.205 24.5887 247.729 24.402C247.253 24.206 246.861 23.94 246.553 23.604C246.245 23.2587 246.016 22.8573 245.867 22.4C245.717 21.9333 245.643 21.4247 245.643 20.874ZM250.557 20.118C250.557 19.8847 250.524 19.6653 250.459 19.46C250.393 19.2453 250.295 19.0633 250.165 18.914C250.043 18.7553 249.889 18.634 249.703 18.55C249.525 18.4567 249.311 18.41 249.059 18.41C248.797 18.41 248.569 18.4613 248.373 18.564C248.177 18.6573 248.009 18.7833 247.869 18.942C247.738 19.1007 247.635 19.2827 247.561 19.488C247.486 19.6933 247.435 19.9033 247.407 20.118H250.557ZM76.168 37.178V44.5H74.474V38.592H71.772V44.5H70.078V37.178H76.168ZM83.1801 40.874C83.1801 40.118 83.0075 39.53 82.6621 39.11C82.3261 38.69 81.7801 38.48 81.0241 38.48C80.8655 38.48 80.6975 38.4893 80.5201 38.508C80.3521 38.5173 80.1841 38.5453 80.0161 38.592V42.778C80.1655 42.8807 80.3615 42.9787 80.6041 43.072C80.8561 43.156 81.1221 43.198 81.4021 43.198C82.0181 43.198 82.4661 42.988 82.7461 42.568C83.0355 42.148 83.1801 41.5833 83.1801 40.874ZM84.9161 40.846C84.9161 41.406 84.8415 41.9193 84.6921 42.386C84.5521 42.8527 84.3468 43.254 84.0761 43.59C83.8055 43.926 83.4648 44.1873 83.0541 44.374C82.6528 44.5607 82.1955 44.654 81.6821 44.654C81.3368 44.654 81.0195 44.612 80.7301 44.528C80.4408 44.444 80.2028 44.3507 80.0161 44.248V47.09H78.3221V37.416C78.6675 37.3227 79.0921 37.234 79.5961 37.15C80.1001 37.066 80.6321 37.024 81.1921 37.024C81.7708 37.024 82.2888 37.1127 82.7461 37.29C83.2035 37.4673 83.5908 37.724 83.9081 38.06C84.2348 38.3867 84.4821 38.788 84.6501 39.264C84.8275 39.7307 84.9161 40.258 84.9161 40.846ZM93.284 40.832C93.284 41.4107 93.2 41.938 93.032 42.414C92.864 42.89 92.626 43.296 92.318 43.632C92.01 43.968 91.6367 44.2293 91.198 44.416C90.7687 44.6027 90.2927 44.696 89.77 44.696C89.2473 44.696 88.7713 44.6027 88.342 44.416C87.9127 44.2293 87.544 43.968 87.236 43.632C86.928 43.296 86.6853 42.89 86.508 42.414C86.34 41.938 86.256 41.4107 86.256 40.832C86.256 40.2533 86.34 39.7307 86.508 39.264C86.6853 38.788 86.928 38.382 87.236 38.046C87.5533 37.71 87.9267 37.4533 88.356 37.276C88.7853 37.0893 89.2567 36.996 89.77 36.996C90.2833 36.996 90.7547 37.0893 91.184 37.276C91.6227 37.4533 91.996 37.71 92.304 38.046C92.612 38.382 92.85 38.788 93.018 39.264C93.1953 39.7307 93.284 40.2533 93.284 40.832ZM91.548 40.832C91.548 40.104 91.3893 39.53 91.072 39.11C90.764 38.6807 90.33 38.466 89.77 38.466C89.21 38.466 88.7713 38.6807 88.454 39.11C88.146 39.53 87.992 40.104 87.992 40.832C87.992 41.5693 88.146 42.1527 88.454 42.582C88.7713 43.0113 89.21 43.226 89.77 43.226C90.33 43.226 90.764 43.0113 91.072 42.582C91.3893 42.1527 91.548 41.5693 91.548 40.832ZM94.1332 43.114H94.9732C95.2625 42.7313 95.4865 42.3067 95.6452 41.84C95.8132 41.364 95.9345 40.8693 96.0092 40.356C96.0838 39.8333 96.1305 39.3013 96.1492 38.76C96.1678 38.2187 96.1818 37.6913 96.1912 37.178H101.441V43.114H102.561V46.572H101.049V44.5H95.6312V46.572H94.1332V43.114ZM99.7472 43.114V38.578H97.7592C97.7405 38.9607 97.7172 39.3527 97.6892 39.754C97.6612 40.146 97.6098 40.538 97.5352 40.93C97.4605 41.3127 97.3578 41.6907 97.2272 42.064C97.1058 42.428 96.9425 42.778 96.7372 43.114H99.7472ZM110.167 37.178C109.411 39.9593 108.534 42.4793 107.535 44.738C107.349 45.158 107.157 45.5173 106.961 45.816C106.765 46.1147 106.546 46.362 106.303 46.558C106.061 46.754 105.79 46.894 105.491 46.978C105.193 47.0713 104.847 47.118 104.455 47.118C104.194 47.118 103.933 47.09 103.671 47.034C103.419 46.978 103.228 46.9173 103.097 46.852L103.405 45.494C103.741 45.6247 104.073 45.69 104.399 45.69C104.838 45.69 105.179 45.5827 105.421 45.368C105.673 45.1627 105.893 44.8407 106.079 44.402C105.547 43.3753 105.034 42.2553 104.539 41.042C104.054 39.8287 103.62 38.5407 103.237 37.178H105.043C105.137 37.57 105.249 37.9947 105.379 38.452C105.519 38.9093 105.669 39.376 105.827 39.852C105.986 40.3187 106.154 40.7853 106.331 41.252C106.509 41.7187 106.686 42.1527 106.863 42.554C107.162 41.7233 107.442 40.8413 107.703 39.908C107.965 38.9653 108.203 38.0553 108.417 37.178H110.167ZM113.143 40.118C113.358 39.9033 113.591 39.6653 113.843 39.404C114.095 39.1333 114.342 38.8627 114.585 38.592C114.837 38.3213 115.075 38.0647 115.299 37.822C115.523 37.57 115.71 37.3553 115.859 37.178H117.847C117.642 37.4207 117.404 37.6867 117.133 37.976C116.872 38.2653 116.596 38.564 116.307 38.872C116.027 39.1707 115.747 39.4647 115.467 39.754C115.196 40.034 114.949 40.286 114.725 40.51C115.014 40.7527 115.313 41.0373 115.621 41.364C115.938 41.6813 116.246 42.022 116.545 42.386C116.853 42.7407 117.138 43.1047 117.399 43.478C117.66 43.842 117.88 44.1827 118.057 44.5H116.097C115.92 44.22 115.71 43.926 115.467 43.618C115.234 43.31 114.986 43.0113 114.725 42.722C114.464 42.4233 114.198 42.1433 113.927 41.882C113.656 41.6207 113.395 41.3967 113.143 41.21V44.5H111.449V37.178H113.143V40.118ZM124.799 38.592H122.433V44.5H120.739V38.592H118.387V37.178H124.799V38.592ZM134.982 44.5H133.288V37.178H134.982V44.5ZM127.758 39.88C127.898 39.8427 128.099 39.81 128.36 39.782C128.631 39.754 128.892 39.74 129.144 39.74C129.546 39.74 129.924 39.7867 130.278 39.88C130.642 39.9733 130.955 40.1227 131.216 40.328C131.487 40.524 131.697 40.7807 131.846 41.098C132.005 41.406 132.084 41.7747 132.084 42.204C132.084 42.6427 132.01 43.016 131.86 43.324C131.711 43.632 131.501 43.884 131.23 44.08C130.96 44.276 130.633 44.4207 130.25 44.514C129.877 44.6073 129.462 44.654 129.004 44.654C128.472 44.654 127.968 44.626 127.492 44.57C127.026 44.514 126.55 44.43 126.064 44.318V37.178H127.758V39.88ZM128.962 43.324C129.401 43.324 129.746 43.2353 129.998 43.058C130.26 42.8713 130.39 42.5773 130.39 42.176C130.39 41.9707 130.348 41.798 130.264 41.658C130.18 41.518 130.064 41.406 129.914 41.322C129.774 41.2287 129.611 41.1633 129.424 41.126C129.247 41.0887 129.06 41.07 128.864 41.07C128.687 41.07 128.491 41.0793 128.276 41.098C128.071 41.1073 127.898 41.1307 127.758 41.168V43.254C127.88 43.2727 128.057 43.2913 128.29 43.31C128.524 43.3193 128.748 43.324 128.962 43.324Z" fill="#1A1A1A"/>
<path d="M73.764 64.348C73.684 64.156 73.576 63.912 73.44 63.616C73.312 63.32 73.172 63 73.02 62.656C72.868 62.312 72.704 61.96 72.528 61.6C72.36 61.232 72.2 60.888 72.048 60.568C71.896 60.24 71.752 59.948 71.616 59.692C71.488 59.436 71.384 59.24 71.304 59.104C71.216 60.048 71.144 61.072 71.088 62.176C71.032 63.272 70.984 64.38 70.944 65.5H69.804C69.836 64.78 69.872 64.056 69.912 63.328C69.952 62.592 69.996 61.872 70.044 61.168C70.1 60.456 70.156 59.764 70.212 59.092C70.276 58.42 70.344 57.784 70.416 57.184H71.436C71.652 57.536 71.884 57.952 72.132 58.432C72.38 58.912 72.628 59.416 72.876 59.944C73.124 60.464 73.364 60.988 73.596 61.516C73.828 62.036 74.04 62.512 74.232 62.944C74.424 62.512 74.636 62.036 74.868 61.516C75.1 60.988 75.34 60.464 75.588 59.944C75.836 59.416 76.084 58.912 76.332 58.432C76.58 57.952 76.812 57.536 77.028 57.184H78.048C78.32 59.864 78.524 62.636 78.66 65.5H77.52C77.48 64.38 77.432 63.272 77.376 62.176C77.32 61.072 77.248 60.048 77.16 59.104C77.08 59.24 76.972 59.436 76.836 59.692C76.708 59.948 76.568 60.24 76.416 60.568C76.264 60.888 76.1 61.232 75.924 61.6C75.756 61.96 75.596 62.312 75.444 62.656C75.292 63 75.148 63.32 75.012 63.616C74.884 63.912 74.78 64.156 74.7 64.348H73.764ZM82.7051 62.416C82.4891 62.416 82.2771 62.424 82.0691 62.44C81.8691 62.448 81.6891 62.472 81.5291 62.512V64.66C81.5771 64.668 81.6451 64.676 81.7331 64.684C81.8291 64.692 81.9291 64.7 82.0331 64.708C82.1451 64.708 82.2571 64.712 82.3691 64.72C82.4811 64.72 82.5811 64.72 82.6691 64.72C83.1571 64.72 83.5331 64.628 83.7971 64.444C84.0611 64.26 84.1931 63.964 84.1931 63.556C84.1931 63.356 84.1491 63.184 84.0611 63.04C83.9811 62.896 83.8691 62.78 83.7251 62.692C83.5891 62.596 83.4331 62.528 83.2571 62.488C83.0811 62.44 82.8971 62.416 82.7051 62.416ZM80.4131 59.26H81.5291V61.648C81.6651 61.616 81.8611 61.584 82.1171 61.552C82.3811 61.52 82.6331 61.504 82.8731 61.504C83.2011 61.504 83.5131 61.544 83.8091 61.624C84.1051 61.696 84.3651 61.816 84.5891 61.984C84.8131 62.144 84.9891 62.356 85.1171 62.62C85.2531 62.876 85.3211 63.184 85.3211 63.544C85.3211 63.92 85.2571 64.24 85.1291 64.504C85.0011 64.768 84.8211 64.984 84.5891 65.152C84.3571 65.32 84.0771 65.44 83.7491 65.512C83.4211 65.592 83.0611 65.632 82.6691 65.632C82.2931 65.632 81.9131 65.608 81.5291 65.56C81.1451 65.52 80.7731 65.456 80.4131 65.368V59.26ZM87.5891 65.5H86.4731V59.26H87.5891V65.5ZM97.7922 62.38C97.7922 62.876 97.7202 63.324 97.5762 63.724C97.4322 64.124 97.2282 64.468 96.9642 64.756C96.7082 65.044 96.4002 65.268 96.0402 65.428C95.6802 65.58 95.2882 65.656 94.8642 65.656C94.4402 65.656 94.0482 65.58 93.6882 65.428C93.3282 65.268 93.0162 65.044 92.7522 64.756C92.4962 64.468 92.2962 64.124 92.1522 63.724C92.0082 63.324 91.9362 62.876 91.9362 62.38C91.9362 61.892 92.0082 61.448 92.1522 61.048C92.2962 60.64 92.4962 60.292 92.7522 60.004C93.0162 59.716 93.3282 59.496 93.6882 59.344C94.0482 59.184 94.4402 59.104 94.8642 59.104C95.2882 59.104 95.6802 59.184 96.0402 59.344C96.4002 59.496 96.7082 59.716 96.9642 60.004C97.2282 60.292 97.4322 60.64 97.5762 61.048C97.7202 61.448 97.7922 61.892 97.7922 62.38ZM96.6282 62.38C96.6282 61.676 96.4682 61.12 96.1482 60.712C95.8362 60.296 95.4082 60.088 94.8642 60.088C94.3202 60.088 93.8882 60.296 93.5682 60.712C93.2562 61.12 93.1002 61.676 93.1002 62.38C93.1002 63.084 93.2562 63.644 93.5682 64.06C93.8882 64.468 94.3202 64.672 94.8642 64.672C95.4082 64.672 95.8362 64.468 96.1482 64.06C96.4682 63.644 96.6282 63.084 96.6282 62.38ZM103.766 59.26V60.196H101.738V65.5H100.622V60.196H98.5943V59.26H103.766ZM105.925 59.98C106.173 59.78 106.461 59.628 106.789 59.524C107.125 59.412 107.445 59.356 107.749 59.356C108.645 59.356 109.321 59.632 109.777 60.184C110.241 60.728 110.473 61.488 110.473 62.464C110.473 62.88 110.417 63.28 110.305 63.664C110.193 64.048 110.017 64.388 109.777 64.684C109.545 64.98 109.249 65.216 108.889 65.392C108.529 65.568 108.101 65.656 107.605 65.656C107.037 65.656 106.565 65.552 106.189 65.344C105.813 65.136 105.513 64.852 105.289 64.492C105.073 64.132 104.921 63.712 104.833 63.232C104.745 62.752 104.701 62.244 104.701 61.708C104.701 61.012 104.749 60.364 104.845 59.764C104.949 59.164 105.133 58.636 105.397 58.18C105.661 57.724 106.025 57.348 106.489 57.052C106.961 56.748 107.565 56.544 108.301 56.44C108.517 56.408 108.705 56.384 108.865 56.368C109.033 56.344 109.177 56.324 109.297 56.308C109.425 56.292 109.541 56.276 109.645 56.26C109.749 56.236 109.857 56.212 109.969 56.188L110.089 57.196C110.033 57.212 109.973 57.224 109.909 57.232C109.853 57.24 109.769 57.252 109.657 57.268C109.553 57.284 109.409 57.304 109.225 57.328C109.049 57.352 108.817 57.38 108.529 57.412C107.737 57.5 107.129 57.74 106.705 58.132C106.281 58.524 106.021 59.14 105.925 59.98ZM105.853 61.888C105.853 62.264 105.877 62.62 105.925 62.956C105.981 63.292 106.073 63.588 106.201 63.844C106.337 64.1 106.517 64.304 106.741 64.456C106.965 64.6 107.253 64.672 107.605 64.672C107.909 64.672 108.169 64.616 108.385 64.504C108.601 64.384 108.777 64.224 108.913 64.024C109.049 63.824 109.149 63.592 109.213 63.328C109.277 63.056 109.309 62.768 109.309 62.464C109.309 62.192 109.281 61.928 109.225 61.672C109.177 61.416 109.085 61.188 108.949 60.988C108.813 60.788 108.629 60.628 108.397 60.508C108.173 60.388 107.889 60.328 107.545 60.328C107.209 60.328 106.885 60.4 106.573 60.544C106.269 60.688 106.033 60.864 105.865 61.072C105.857 61.16 105.853 61.284 105.853 61.444C105.853 61.604 105.853 61.752 105.853 61.888ZM117.298 59.26V65.5H116.218V60.748C115.978 61.052 115.714 61.408 115.426 61.816C115.138 62.224 114.85 62.648 114.562 63.088C114.274 63.52 113.998 63.948 113.734 64.372C113.47 64.796 113.242 65.172 113.05 65.5H112.054V59.26H113.134V63.748C113.342 63.404 113.578 63.028 113.842 62.62C114.106 62.204 114.378 61.796 114.658 61.396C114.946 60.988 115.23 60.6 115.51 60.232C115.798 59.856 116.066 59.532 116.314 59.26H117.298ZM123.546 62.392C123.546 61.664 123.366 61.104 123.006 60.712C122.646 60.32 122.166 60.124 121.566 60.124C121.23 60.124 120.966 60.136 120.774 60.16C120.59 60.184 120.442 60.212 120.33 60.244V64.18C120.466 64.292 120.662 64.4 120.918 64.504C121.174 64.608 121.454 64.66 121.758 64.66C122.078 64.66 122.35 64.604 122.574 64.492C122.806 64.372 122.994 64.212 123.138 64.012C123.282 63.804 123.386 63.564 123.45 63.292C123.514 63.012 123.546 62.712 123.546 62.392ZM124.71 62.392C124.71 62.864 124.646 63.3 124.518 63.7C124.398 64.1 124.218 64.444 123.978 64.732C123.738 65.02 123.442 65.244 123.09 65.404C122.746 65.564 122.35 65.644 121.902 65.644C121.542 65.644 121.222 65.596 120.942 65.5C120.67 65.404 120.466 65.312 120.33 65.224V67.72H119.214V59.452C119.478 59.388 119.806 59.32 120.198 59.248C120.598 59.168 121.058 59.128 121.578 59.128C122.058 59.128 122.49 59.204 122.874 59.356C123.258 59.508 123.586 59.724 123.858 60.004C124.13 60.284 124.338 60.628 124.482 61.036C124.634 61.436 124.71 61.888 124.71 62.392ZM128.392 64.696C128.656 64.696 128.888 64.692 129.088 64.684C129.296 64.668 129.468 64.644 129.604 64.612V62.752C129.524 62.712 129.392 62.68 129.208 62.656C129.032 62.624 128.816 62.608 128.56 62.608C128.392 62.608 128.212 62.62 128.02 62.644C127.836 62.668 127.664 62.72 127.504 62.8C127.352 62.872 127.224 62.976 127.12 63.112C127.016 63.24 126.964 63.412 126.964 63.628C126.964 64.028 127.092 64.308 127.348 64.468C127.604 64.62 127.952 64.696 128.392 64.696ZM128.296 59.104C128.744 59.104 129.12 59.164 129.424 59.284C129.736 59.396 129.984 59.56 130.168 59.776C130.36 59.984 130.496 60.236 130.576 60.532C130.656 60.82 130.696 61.14 130.696 61.492V65.392C130.6 65.408 130.464 65.432 130.288 65.464C130.12 65.488 129.928 65.512 129.712 65.536C129.496 65.56 129.26 65.58 129.004 65.596C128.756 65.62 128.508 65.632 128.26 65.632C127.908 65.632 127.584 65.596 127.288 65.524C126.992 65.452 126.736 65.34 126.52 65.188C126.304 65.028 126.136 64.82 126.016 64.564C125.896 64.308 125.836 64 125.836 63.64C125.836 63.296 125.904 63 126.04 62.752C126.184 62.504 126.376 62.304 126.616 62.152C126.856 62 127.136 61.888 127.456 61.816C127.776 61.744 128.112 61.708 128.464 61.708C128.576 61.708 128.692 61.716 128.812 61.732C128.932 61.74 129.044 61.756 129.148 61.78C129.26 61.796 129.356 61.812 129.436 61.828C129.516 61.844 129.572 61.856 129.604 61.864V61.552C129.604 61.368 129.584 61.188 129.544 61.012C129.504 60.828 129.432 60.668 129.328 60.532C129.224 60.388 129.08 60.276 128.896 60.196C128.72 60.108 128.488 60.064 128.2 60.064C127.832 60.064 127.508 60.092 127.228 60.148C126.956 60.196 126.752 60.248 126.616 60.304L126.484 59.38C126.628 59.316 126.868 59.256 127.204 59.2C127.54 59.136 127.904 59.104 128.296 59.104ZM132.202 62.392C132.202 61.84 132.282 61.36 132.442 60.952C132.602 60.536 132.814 60.192 133.078 59.92C133.342 59.648 133.646 59.444 133.99 59.308C134.334 59.172 134.686 59.104 135.046 59.104C135.886 59.104 136.53 59.368 136.978 59.896C137.426 60.416 137.65 61.212 137.65 62.284C137.65 62.332 137.65 62.396 137.65 62.476C137.65 62.548 137.646 62.616 137.638 62.68H133.366C133.414 63.328 133.602 63.82 133.93 64.156C134.258 64.492 134.77 64.66 135.466 64.66C135.858 64.66 136.186 64.628 136.45 64.564C136.722 64.492 136.926 64.424 137.062 64.36L137.218 65.296C137.082 65.368 136.842 65.444 136.498 65.524C136.162 65.604 135.778 65.644 135.346 65.644C134.802 65.644 134.33 65.564 133.93 65.404C133.538 65.236 133.214 65.008 132.958 64.72C132.702 64.432 132.51 64.092 132.382 63.7C132.262 63.3 132.202 62.864 132.202 62.392ZM136.486 61.78C136.494 61.276 136.366 60.864 136.102 60.544C135.846 60.216 135.49 60.052 135.034 60.052C134.778 60.052 134.55 60.104 134.35 60.208C134.158 60.304 133.994 60.432 133.858 60.592C133.722 60.752 133.614 60.936 133.534 61.144C133.462 61.352 133.414 61.564 133.39 61.78H136.486ZM140.441 60.904C140.361 61.696 140.301 62.488 140.261 63.28C140.221 64.064 140.189 64.804 140.165 65.5H139.097C139.113 65.012 139.137 64.504 139.169 63.976C139.201 63.44 139.237 62.904 139.277 62.368C139.317 61.824 139.361 61.292 139.409 60.772C139.457 60.244 139.509 59.74 139.565 59.26H140.585C140.841 59.676 141.141 60.248 141.485 60.976C141.829 61.696 142.225 62.528 142.673 63.472C143.121 62.528 143.517 61.696 143.861 60.976C144.205 60.248 144.505 59.676 144.761 59.26H145.793C145.849 59.74 145.901 60.244 145.949 60.772C145.997 61.292 146.041 61.824 146.081 62.368C146.121 62.904 146.157 63.44 146.189 63.976C146.221 64.504 146.245 65.012 146.261 65.5H145.157C145.133 64.804 145.101 64.064 145.061 63.28C145.021 62.488 144.961 61.696 144.881 60.904C144.753 61.152 144.605 61.452 144.437 61.804C144.269 62.148 144.101 62.5 143.933 62.86C143.773 63.22 143.621 63.564 143.477 63.892C143.333 64.22 143.221 64.48 143.141 64.672H142.205C142.117 64.472 141.997 64.208 141.845 63.88C141.701 63.552 141.545 63.208 141.377 62.848C141.217 62.48 141.053 62.124 140.885 61.78C140.717 61.428 140.569 61.136 140.441 60.904ZM155.824 65.5H154.708V60.196H151.924V65.5H150.808V59.26H155.824V65.5ZM163.253 62.38C163.253 62.876 163.181 63.324 163.037 63.724C162.893 64.124 162.689 64.468 162.425 64.756C162.169 65.044 161.861 65.268 161.501 65.428C161.141 65.58 160.749 65.656 160.325 65.656C159.901 65.656 159.509 65.58 159.149 65.428C158.789 65.268 158.477 65.044 158.213 64.756C157.957 64.468 157.757 64.124 157.613 63.724C157.469 63.324 157.397 62.876 157.397 62.38C157.397 61.892 157.469 61.448 157.613 61.048C157.757 60.64 157.957 60.292 158.213 60.004C158.477 59.716 158.789 59.496 159.149 59.344C159.509 59.184 159.901 59.104 160.325 59.104C160.749 59.104 161.141 59.184 161.501 59.344C161.861 59.496 162.169 59.716 162.425 60.004C162.689 60.292 162.893 60.64 163.037 61.048C163.181 61.448 163.253 61.892 163.253 62.38ZM162.089 62.38C162.089 61.676 161.929 61.12 161.609 60.712C161.297 60.296 160.869 60.088 160.325 60.088C159.781 60.088 159.349 60.296 159.029 60.712C158.717 61.12 158.561 61.676 158.561 62.38C158.561 63.084 158.717 63.644 159.029 64.06C159.349 64.468 159.781 64.672 160.325 64.672C160.869 64.672 161.297 64.468 161.609 64.06C161.929 63.644 162.089 63.084 162.089 62.38ZM167.535 65.644C167.031 65.644 166.587 65.564 166.203 65.404C165.827 65.244 165.507 65.02 165.243 64.732C164.987 64.444 164.795 64.104 164.667 63.712C164.539 63.312 164.475 62.872 164.475 62.392C164.475 61.912 164.543 61.472 164.679 61.072C164.823 60.672 165.023 60.328 165.279 60.04C165.535 59.744 165.847 59.516 166.215 59.356C166.591 59.188 167.007 59.104 167.463 59.104C167.743 59.104 168.023 59.128 168.303 59.176C168.583 59.224 168.851 59.3 169.107 59.404L168.855 60.352C168.687 60.272 168.491 60.208 168.267 60.16C168.051 60.112 167.819 60.088 167.571 60.088C166.947 60.088 166.467 60.284 166.131 60.676C165.803 61.068 165.639 61.64 165.639 62.392C165.639 62.728 165.675 63.036 165.747 63.316C165.827 63.596 165.947 63.836 166.107 64.036C166.275 64.236 166.487 64.392 166.743 64.504C166.999 64.608 167.311 64.66 167.679 64.66C167.975 64.66 168.243 64.632 168.483 64.576C168.723 64.52 168.911 64.46 169.047 64.396L169.203 65.332C169.139 65.372 169.047 65.412 168.927 65.452C168.807 65.484 168.671 65.512 168.519 65.536C168.367 65.568 168.203 65.592 168.027 65.608C167.859 65.632 167.695 65.644 167.535 65.644ZM174.981 59.26V60.196H172.953V65.5H171.837V60.196H169.809V59.26H174.981ZM178.244 64.696C178.508 64.696 178.74 64.692 178.94 64.684C179.148 64.668 179.32 64.644 179.456 64.612V62.752C179.376 62.712 179.244 62.68 179.06 62.656C178.884 62.624 178.668 62.608 178.412 62.608C178.244 62.608 178.064 62.62 177.872 62.644C177.688 62.668 177.516 62.72 177.356 62.8C177.204 62.872 177.076 62.976 176.972 63.112C176.868 63.24 176.816 63.412 176.816 63.628C176.816 64.028 176.944 64.308 177.2 64.468C177.456 64.62 177.804 64.696 178.244 64.696ZM178.148 59.104C178.596 59.104 178.972 59.164 179.276 59.284C179.588 59.396 179.836 59.56 180.02 59.776C180.212 59.984 180.348 60.236 180.428 60.532C180.508 60.82 180.548 61.14 180.548 61.492V65.392C180.452 65.408 180.316 65.432 180.14 65.464C179.972 65.488 179.78 65.512 179.564 65.536C179.348 65.56 179.112 65.58 178.856 65.596C178.608 65.62 178.36 65.632 178.112 65.632C177.76 65.632 177.436 65.596 177.14 65.524C176.844 65.452 176.588 65.34 176.372 65.188C176.156 65.028 175.988 64.82 175.868 64.564C175.748 64.308 175.688 64 175.688 63.64C175.688 63.296 175.756 63 175.892 62.752C176.036 62.504 176.228 62.304 176.468 62.152C176.708 62 176.988 61.888 177.308 61.816C177.628 61.744 177.964 61.708 178.316 61.708C178.428 61.708 178.544 61.716 178.664 61.732C178.784 61.74 178.896 61.756 179 61.78C179.112 61.796 179.208 61.812 179.288 61.828C179.368 61.844 179.424 61.856 179.456 61.864V61.552C179.456 61.368 179.436 61.188 179.396 61.012C179.356 60.828 179.284 60.668 179.18 60.532C179.076 60.388 178.932 60.276 178.748 60.196C178.572 60.108 178.34 60.064 178.052 60.064C177.684 60.064 177.36 60.092 177.08 60.148C176.808 60.196 176.604 60.248 176.468 60.304L176.336 59.38C176.48 59.316 176.72 59.256 177.056 59.2C177.392 59.136 177.756 59.104 178.148 59.104ZM183.493 64.66C183.541 64.668 183.609 64.676 183.697 64.684C183.785 64.692 183.885 64.7 183.997 64.708C184.109 64.708 184.225 64.712 184.345 64.72C184.473 64.72 184.593 64.72 184.705 64.72C184.937 64.72 185.157 64.704 185.365 64.672C185.581 64.64 185.765 64.584 185.917 64.504C186.077 64.424 186.201 64.32 186.289 64.192C186.385 64.056 186.433 63.884 186.433 63.676C186.433 63.476 186.389 63.312 186.301 63.184C186.221 63.048 186.109 62.94 185.965 62.86C185.821 62.78 185.649 62.724 185.449 62.692C185.257 62.66 185.049 62.644 184.825 62.644H183.493V64.66ZM184.681 61.816C184.897 61.816 185.093 61.804 185.269 61.78C185.453 61.748 185.609 61.696 185.737 61.624C185.873 61.552 185.977 61.456 186.049 61.336C186.129 61.216 186.169 61.064 186.169 60.88C186.169 60.688 186.121 60.536 186.025 60.424C185.929 60.312 185.801 60.228 185.641 60.172C185.489 60.108 185.313 60.068 185.113 60.052C184.921 60.028 184.725 60.016 184.525 60.016C184.341 60.016 184.153 60.02 183.961 60.028C183.777 60.036 183.621 60.044 183.493 60.052V61.816H184.681ZM184.657 65.608C184.185 65.608 183.749 65.584 183.349 65.536C182.949 65.496 182.633 65.448 182.401 65.392V59.32C182.633 59.264 182.949 59.216 183.349 59.176C183.749 59.128 184.185 59.104 184.657 59.104C184.985 59.104 185.305 59.132 185.617 59.188C185.929 59.244 186.205 59.34 186.445 59.476C186.685 59.604 186.877 59.784 187.021 60.016C187.173 60.24 187.249 60.52 187.249 60.856C187.249 61.16 187.173 61.42 187.021 61.636C186.869 61.852 186.665 62.02 186.409 62.14C186.753 62.26 187.025 62.44 187.225 62.68C187.433 62.912 187.537 63.24 187.537 63.664C187.537 64.04 187.461 64.352 187.309 64.6C187.165 64.848 186.961 65.048 186.697 65.2C186.441 65.352 186.137 65.456 185.785 65.512C185.433 65.576 185.057 65.608 184.657 65.608ZM188.976 65.5V59.26H190.092V64.576H192.396V59.26H193.512V64.576H195.816V59.26H196.932V64.576H197.772V67.24H196.716V65.5H188.976ZM204.227 59.26V65.5H203.147V60.748C202.907 61.052 202.643 61.408 202.355 61.816C202.067 62.224 201.779 62.648 201.491 63.088C201.203 63.52 200.927 63.948 200.663 64.372C200.399 64.796 200.171 65.172 199.979 65.5H198.983V59.26H200.063V63.748C200.271 63.404 200.507 63.028 200.771 62.62C201.035 62.204 201.307 61.796 201.587 61.396C201.875 60.988 202.159 60.6 202.439 60.232C202.727 59.856 202.995 59.532 203.243 59.26H204.227ZM208.424 62.104C208.672 62.28 208.94 62.504 209.228 62.776C209.516 63.04 209.796 63.328 210.068 63.64C210.348 63.952 210.608 64.272 210.848 64.6C211.088 64.92 211.292 65.22 211.46 65.5H210.14C209.964 65.228 209.756 64.952 209.516 64.672C209.284 64.384 209.04 64.108 208.784 63.844C208.528 63.58 208.268 63.336 208.004 63.112C207.74 62.888 207.492 62.7 207.26 62.548V65.5H206.144V59.26H207.26V61.936C207.452 61.752 207.672 61.54 207.92 61.3C208.168 61.052 208.416 60.804 208.664 60.556C208.92 60.3 209.156 60.06 209.372 59.836C209.588 59.604 209.764 59.412 209.9 59.26H211.196C211.02 59.452 210.812 59.672 210.572 59.92C210.34 60.16 210.096 60.408 209.84 60.664C209.592 60.92 209.344 61.176 209.096 61.432C208.848 61.68 208.624 61.904 208.424 62.104ZM217.745 62.38C217.745 62.876 217.673 63.324 217.529 63.724C217.385 64.124 217.181 64.468 216.917 64.756C216.661 65.044 216.353 65.268 215.993 65.428C215.633 65.58 215.241 65.656 214.817 65.656C214.393 65.656 214.001 65.58 213.641 65.428C213.281 65.268 212.969 65.044 212.705 64.756C212.449 64.468 212.249 64.124 212.105 63.724C211.961 63.324 211.889 62.876 211.889 62.38C211.889 61.892 211.961 61.448 212.105 61.048C212.249 60.64 212.449 60.292 212.705 60.004C212.969 59.716 213.281 59.496 213.641 59.344C214.001 59.184 214.393 59.104 214.817 59.104C215.241 59.104 215.633 59.184 215.993 59.344C216.353 59.496 216.661 59.716 216.917 60.004C217.181 60.292 217.385 60.64 217.529 61.048C217.673 61.448 217.745 61.892 217.745 62.38ZM216.581 62.38C216.581 61.676 216.421 61.12 216.101 60.712C215.789 60.296 215.361 60.088 214.817 60.088C214.273 60.088 213.841 60.296 213.521 60.712C213.209 61.12 213.053 61.676 213.053 62.38C213.053 63.084 213.209 63.644 213.521 64.06C213.841 64.468 214.273 64.672 214.817 64.672C215.361 64.672 215.789 64.468 216.101 64.06C216.421 63.644 216.581 63.084 216.581 62.38ZM220.407 64.66C220.455 64.668 220.523 64.676 220.611 64.684C220.699 64.692 220.799 64.7 220.911 64.708C221.023 64.708 221.139 64.712 221.259 64.72C221.387 64.72 221.507 64.72 221.619 64.72C221.851 64.72 222.071 64.704 222.279 64.672C222.495 64.64 222.679 64.584 222.831 64.504C222.991 64.424 223.115 64.32 223.203 64.192C223.299 64.056 223.347 63.884 223.347 63.676C223.347 63.476 223.303 63.312 223.215 63.184C223.135 63.048 223.023 62.94 222.879 62.86C222.735 62.78 222.563 62.724 222.363 62.692C222.171 62.66 221.963 62.644 221.739 62.644H220.407V64.66ZM221.595 61.816C221.811 61.816 222.007 61.804 222.183 61.78C222.367 61.748 222.523 61.696 222.651 61.624C222.787 61.552 222.891 61.456 222.963 61.336C223.043 61.216 223.083 61.064 223.083 60.88C223.083 60.688 223.035 60.536 222.939 60.424C222.843 60.312 222.715 60.228 222.555 60.172C222.403 60.108 222.227 60.068 222.027 60.052C221.835 60.028 221.639 60.016 221.439 60.016C221.255 60.016 221.067 60.02 220.875 60.028C220.691 60.036 220.535 60.044 220.407 60.052V61.816H221.595ZM221.571 65.608C221.099 65.608 220.663 65.584 220.263 65.536C219.863 65.496 219.547 65.448 219.315 65.392V59.32C219.547 59.264 219.863 59.216 220.263 59.176C220.663 59.128 221.099 59.104 221.571 59.104C221.899 59.104 222.219 59.132 222.531 59.188C222.843 59.244 223.119 59.34 223.359 59.476C223.599 59.604 223.791 59.784 223.935 60.016C224.087 60.24 224.163 60.52 224.163 60.856C224.163 61.16 224.087 61.42 223.935 61.636C223.783 61.852 223.579 62.02 223.323 62.14C223.667 62.26 223.939 62.44 224.139 62.68C224.347 62.912 224.451 63.24 224.451 63.664C224.451 64.04 224.375 64.352 224.223 64.6C224.079 64.848 223.875 65.048 223.611 65.2C223.355 65.352 223.051 65.456 222.699 65.512C222.347 65.576 221.971 65.608 221.571 65.608ZM75.204 76.26V82.5H74.124V77.748C73.884 78.052 73.62 78.408 73.332 78.816C73.044 79.224 72.756 79.648 72.468 80.088C72.18 80.52 71.904 80.948 71.64 81.372C71.376 81.796 71.148 82.172 70.956 82.5H69.96V76.26H71.04V80.748C71.248 80.404 71.484 80.028 71.748 79.62C72.012 79.204 72.284 78.796 72.564 78.396C72.852 77.988 73.136 77.6 73.416 77.232C73.704 76.856 73.972 76.532 74.22 76.26H75.204ZM82.1775 79.104C82.4255 79.28 82.6935 79.504 82.9815 79.776C83.2695 80.04 83.5495 80.328 83.8215 80.64C84.1015 80.952 84.3615 81.272 84.6015 81.6C84.8415 81.92 85.0455 82.22 85.2135 82.5H83.8935C83.7175 82.228 83.5095 81.952 83.2695 81.672C83.0375 81.384 82.7935 81.108 82.5375 80.844C82.2815 80.58 82.0215 80.336 81.7575 80.112C81.4935 79.888 81.2455 79.7 81.0135 79.548V82.5H79.8975V76.26H81.0135V78.936C81.2055 78.752 81.4255 78.54 81.6735 78.3C81.9215 78.052 82.1695 77.804 82.4175 77.556C82.6735 77.3 82.9095 77.06 83.1255 76.836C83.3415 76.604 83.5175 76.412 83.6535 76.26H84.9495C84.7735 76.452 84.5655 76.672 84.3255 76.92C84.0935 77.16 83.8495 77.408 83.5935 77.664C83.3455 77.92 83.0975 78.176 82.8495 78.432C82.6015 78.68 82.3775 78.904 82.1775 79.104ZM91.4993 79.38C91.4993 79.876 91.4273 80.324 91.2833 80.724C91.1393 81.124 90.9353 81.468 90.6713 81.756C90.4153 82.044 90.1073 82.268 89.7473 82.428C89.3873 82.58 88.9953 82.656 88.5713 82.656C88.1473 82.656 87.7553 82.58 87.3953 82.428C87.0353 82.268 86.7233 82.044 86.4593 81.756C86.2033 81.468 86.0033 81.124 85.8593 80.724C85.7153 80.324 85.6433 79.876 85.6433 79.38C85.6433 78.892 85.7153 78.448 85.8593 78.048C86.0033 77.64 86.2033 77.292 86.4593 77.004C86.7233 76.716 87.0353 76.496 87.3953 76.344C87.7553 76.184 88.1473 76.104 88.5713 76.104C88.9953 76.104 89.3873 76.184 89.7473 76.344C90.1073 76.496 90.4153 76.716 90.6713 77.004C90.9353 77.292 91.1393 77.64 91.2833 78.048C91.4273 78.448 91.4993 78.892 91.4993 79.38ZM90.3353 79.38C90.3353 78.676 90.1753 78.12 89.8553 77.712C89.5433 77.296 89.1153 77.088 88.5713 77.088C88.0273 77.088 87.5953 77.296 87.2753 77.712C86.9633 78.12 86.8073 78.676 86.8073 79.38C86.8073 80.084 86.9633 80.644 87.2753 81.06C87.5953 81.468 88.0273 81.672 88.5713 81.672C89.1153 81.672 89.5433 81.468 89.8553 81.06C90.1753 80.644 90.3353 80.084 90.3353 79.38ZM98.1814 82.5H97.0654V79.74H94.1854V82.5H93.0694V76.26H94.1854V78.804H97.0654V76.26H98.1814V82.5ZM104.505 76.26V77.196H102.477V82.5H101.361V77.196H99.3326V76.26H104.505ZM109.987 79.392C109.987 78.664 109.807 78.104 109.447 77.712C109.087 77.32 108.607 77.124 108.007 77.124C107.671 77.124 107.407 77.136 107.215 77.16C107.031 77.184 106.883 77.212 106.771 77.244V81.18C106.907 81.292 107.103 81.4 107.359 81.504C107.615 81.608 107.895 81.66 108.199 81.66C108.519 81.66 108.791 81.604 109.015 81.492C109.247 81.372 109.435 81.212 109.579 81.012C109.723 80.804 109.827 80.564 109.891 80.292C109.955 80.012 109.987 79.712 109.987 79.392ZM111.151 79.392C111.151 79.864 111.087 80.3 110.959 80.7C110.839 81.1 110.659 81.444 110.419 81.732C110.179 82.02 109.883 82.244 109.531 82.404C109.187 82.564 108.791 82.644 108.343 82.644C107.983 82.644 107.663 82.596 107.383 82.5C107.111 82.404 106.907 82.312 106.771 82.224V84.72H105.655V76.452C105.919 76.388 106.247 76.32 106.639 76.248C107.039 76.168 107.499 76.128 108.019 76.128C108.499 76.128 108.931 76.204 109.315 76.356C109.699 76.508 110.027 76.724 110.299 77.004C110.571 77.284 110.779 77.628 110.923 78.036C111.075 78.436 111.151 78.888 111.151 79.392ZM118.23 79.38C118.23 79.876 118.158 80.324 118.014 80.724C117.87 81.124 117.666 81.468 117.402 81.756C117.146 82.044 116.838 82.268 116.478 82.428C116.118 82.58 115.726 82.656 115.302 82.656C114.878 82.656 114.486 82.58 114.126 82.428C113.766 82.268 113.454 82.044 113.19 81.756C112.934 81.468 112.734 81.124 112.59 80.724C112.446 80.324 112.374 79.876 112.374 79.38C112.374 78.892 112.446 78.448 112.59 78.048C112.734 77.64 112.934 77.292 113.19 77.004C113.454 76.716 113.766 76.496 114.126 76.344C114.486 76.184 114.878 76.104 115.302 76.104C115.726 76.104 116.118 76.184 116.478 76.344C116.838 76.496 117.146 76.716 117.402 77.004C117.666 77.292 117.87 77.64 118.014 78.048C118.158 78.448 118.23 78.892 118.23 79.38ZM117.066 79.38C117.066 78.676 116.906 78.12 116.586 77.712C116.274 77.296 115.846 77.088 115.302 77.088C114.758 77.088 114.326 77.296 114.006 77.712C113.694 78.12 113.538 78.676 113.538 79.38C113.538 80.084 113.694 80.644 114.006 81.06C114.326 81.468 114.758 81.672 115.302 81.672C115.846 81.672 116.274 81.468 116.586 81.06C116.906 80.644 117.066 80.084 117.066 79.38ZM121.972 77.196C121.972 77.46 121.964 77.744 121.948 78.048C121.94 78.344 121.92 78.644 121.888 78.948C121.856 79.244 121.812 79.54 121.756 79.836C121.7 80.124 121.628 80.396 121.54 80.652C121.452 80.908 121.34 81.148 121.204 81.372C121.076 81.596 120.916 81.796 120.724 81.972C120.532 82.14 120.308 82.284 120.052 82.404C119.796 82.516 119.496 82.588 119.152 82.62L118.996 81.684C119.388 81.604 119.696 81.456 119.92 81.24C120.152 81.024 120.336 80.76 120.472 80.448C120.592 80.176 120.68 79.868 120.736 79.524C120.792 79.18 120.832 78.824 120.856 78.456C120.88 78.08 120.892 77.704 120.892 77.328C120.9 76.952 120.904 76.596 120.904 76.26H125.056V82.5H123.94V77.196H121.972ZM132.216 76.26V82.5H131.136V77.748C130.896 78.052 130.632 78.408 130.344 78.816C130.056 79.224 129.768 79.648 129.48 80.088C129.192 80.52 128.916 80.948 128.652 81.372C128.388 81.796 128.16 82.172 127.968 82.5H126.972V76.26H128.052V80.748C128.26 80.404 128.496 80.028 128.76 79.62C129.024 79.204 129.296 78.796 129.576 78.396C129.864 77.988 130.148 77.6 130.428 77.232C130.716 76.856 130.984 76.532 131.232 76.26H132.216ZM138.464 79.392C138.464 78.664 138.284 78.104 137.924 77.712C137.564 77.32 137.084 77.124 136.484 77.124C136.148 77.124 135.884 77.136 135.692 77.16C135.508 77.184 135.36 77.212 135.248 77.244V81.18C135.384 81.292 135.58 81.4 135.836 81.504C136.092 81.608 136.372 81.66 136.676 81.66C136.996 81.66 137.268 81.604 137.492 81.492C137.724 81.372 137.912 81.212 138.056 81.012C138.2 80.804 138.304 80.564 138.368 80.292C138.432 80.012 138.464 79.712 138.464 79.392ZM139.628 79.392C139.628 79.864 139.564 80.3 139.436 80.7C139.316 81.1 139.136 81.444 138.896 81.732C138.656 82.02 138.36 82.244 138.008 82.404C137.664 82.564 137.268 82.644 136.82 82.644C136.46 82.644 136.14 82.596 135.86 82.5C135.588 82.404 135.384 82.312 135.248 82.224V84.72H134.132V76.452C134.396 76.388 134.724 76.32 135.116 76.248C135.516 76.168 135.976 76.128 136.496 76.128C136.976 76.128 137.408 76.204 137.792 76.356C138.176 76.508 138.504 76.724 138.776 77.004C139.048 77.284 139.256 77.628 139.4 78.036C139.552 78.436 139.628 78.888 139.628 79.392ZM140.302 83.664C140.39 83.704 140.502 83.74 140.638 83.772C140.782 83.812 140.922 83.832 141.058 83.832C141.498 83.832 141.842 83.732 142.09 83.532C142.338 83.34 142.562 83.024 142.762 82.584C142.258 81.624 141.786 80.608 141.346 79.536C140.914 78.456 140.554 77.364 140.266 76.26H141.466C141.554 76.62 141.658 77.008 141.778 77.424C141.906 77.84 142.046 78.268 142.198 78.708C142.35 79.148 142.514 79.588 142.69 80.028C142.866 80.468 143.05 80.892 143.242 81.3C143.546 80.46 143.81 79.628 144.034 78.804C144.258 77.98 144.47 77.132 144.67 76.26H145.822C145.534 77.436 145.214 78.568 144.862 79.656C144.51 80.736 144.13 81.748 143.722 82.692C143.562 83.052 143.394 83.36 143.218 83.616C143.05 83.88 142.862 84.096 142.654 84.264C142.446 84.432 142.21 84.556 141.946 84.636C141.69 84.716 141.398 84.756 141.07 84.756C140.982 84.756 140.89 84.748 140.794 84.732C140.698 84.724 140.602 84.708 140.506 84.684C140.418 84.668 140.334 84.648 140.254 84.624C140.182 84.6 140.13 84.58 140.098 84.564L140.302 83.664ZM146.51 79.392C146.51 78.84 146.59 78.36 146.75 77.952C146.91 77.536 147.122 77.192 147.386 76.92C147.65 76.648 147.954 76.444 148.298 76.308C148.642 76.172 148.994 76.104 149.354 76.104C150.194 76.104 150.838 76.368 151.286 76.896C151.734 77.416 151.958 78.212 151.958 79.284C151.958 79.332 151.958 79.396 151.958 79.476C151.958 79.548 151.954 79.616 151.946 79.68H147.674C147.722 80.328 147.91 80.82 148.238 81.156C148.566 81.492 149.078 81.66 149.774 81.66C150.166 81.66 150.494 81.628 150.758 81.564C151.03 81.492 151.234 81.424 151.37 81.36L151.526 82.296C151.39 82.368 151.15 82.444 150.806 82.524C150.47 82.604 150.086 82.644 149.654 82.644C149.11 82.644 148.638 82.564 148.238 82.404C147.846 82.236 147.522 82.008 147.266 81.72C147.01 81.432 146.818 81.092 146.69 80.7C146.57 80.3 146.51 79.864 146.51 79.392ZM150.794 78.78C150.802 78.276 150.674 77.864 150.41 77.544C150.154 77.216 149.798 77.052 149.342 77.052C149.086 77.052 148.858 77.104 148.658 77.208C148.466 77.304 148.302 77.432 148.166 77.592C148.03 77.752 147.922 77.936 147.842 78.144C147.77 78.352 147.722 78.564 147.698 78.78H150.794ZM154.75 77.904C154.67 78.696 154.61 79.488 154.57 80.28C154.53 81.064 154.498 81.804 154.474 82.5H153.406C153.422 82.012 153.446 81.504 153.478 80.976C153.51 80.44 153.546 79.904 153.586 79.368C153.626 78.824 153.67 78.292 153.718 77.772C153.766 77.244 153.818 76.74 153.874 76.26H154.894C155.15 76.676 155.45 77.248 155.794 77.976C156.138 78.696 156.534 79.528 156.982 80.472C157.43 79.528 157.826 78.696 158.17 77.976C158.514 77.248 158.814 76.676 159.07 76.26H160.102C160.158 76.74 160.21 77.244 160.258 77.772C160.306 78.292 160.35 78.824 160.39 79.368C160.43 79.904 160.466 80.44 160.498 80.976C160.53 81.504 160.554 82.012 160.57 82.5H159.466C159.442 81.804 159.41 81.064 159.37 80.28C159.33 79.488 159.27 78.696 159.19 77.904C159.062 78.152 158.914 78.452 158.746 78.804C158.578 79.148 158.41 79.5 158.242 79.86C158.082 80.22 157.93 80.564 157.786 80.892C157.642 81.22 157.53 81.48 157.45 81.672H156.514C156.426 81.472 156.306 81.208 156.154 80.88C156.01 80.552 155.854 80.208 155.686 79.848C155.526 79.48 155.362 79.124 155.194 78.78C155.026 78.428 154.878 78.136 154.75 77.904ZM167.396 79.104C167.644 79.28 167.912 79.504 168.2 79.776C168.488 80.04 168.768 80.328 169.04 80.64C169.32 80.952 169.58 81.272 169.82 81.6C170.06 81.92 170.264 82.22 170.432 82.5H169.112C168.936 82.228 168.728 81.952 168.488 81.672C168.256 81.384 168.012 81.108 167.756 80.844C167.5 80.58 167.24 80.336 166.976 80.112C166.712 79.888 166.464 79.7 166.232 79.548V82.5H165.116V76.26H166.232V78.936C166.424 78.752 166.644 78.54 166.892 78.3C167.14 78.052 167.388 77.804 167.636 77.556C167.892 77.3 168.128 77.06 168.344 76.836C168.56 76.604 168.736 76.412 168.872 76.26H170.168C169.992 76.452 169.784 76.672 169.544 76.92C169.312 77.16 169.068 77.408 168.812 77.664C168.564 77.92 168.316 78.176 168.068 78.432C167.82 78.68 167.596 78.904 167.396 79.104ZM173.674 81.696C173.938 81.696 174.17 81.692 174.37 81.684C174.578 81.668 174.75 81.644 174.886 81.612V79.752C174.806 79.712 174.674 79.68 174.49 79.656C174.314 79.624 174.098 79.608 173.842 79.608C173.674 79.608 173.494 79.62 173.302 79.644C173.118 79.668 172.946 79.72 172.786 79.8C172.634 79.872 172.506 79.976 172.402 80.112C172.298 80.24 172.246 80.412 172.246 80.628C172.246 81.028 172.374 81.308 172.63 81.468C172.886 81.62 173.234 81.696 173.674 81.696ZM173.578 76.104C174.026 76.104 174.402 76.164 174.706 76.284C175.018 76.396 175.266 76.56 175.45 76.776C175.642 76.984 175.778 77.236 175.858 77.532C175.938 77.82 175.978 78.14 175.978 78.492V82.392C175.882 82.408 175.746 82.432 175.57 82.464C175.402 82.488 175.21 82.512 174.994 82.536C174.778 82.56 174.542 82.58 174.286 82.596C174.038 82.62 173.79 82.632 173.542 82.632C173.19 82.632 172.866 82.596 172.57 82.524C172.274 82.452 172.018 82.34 171.802 82.188C171.586 82.028 171.418 81.82 171.298 81.564C171.178 81.308 171.118 81 171.118 80.64C171.118 80.296 171.186 80 171.322 79.752C171.466 79.504 171.658 79.304 171.898 79.152C172.138 79 172.418 78.888 172.738 78.816C173.058 78.744 173.394 78.708 173.746 78.708C173.858 78.708 173.974 78.716 174.094 78.732C174.214 78.74 174.326 78.756 174.43 78.78C174.542 78.796 174.638 78.812 174.718 78.828C174.798 78.844 174.854 78.856 174.886 78.864V78.552C174.886 78.368 174.866 78.188 174.826 78.012C174.786 77.828 174.714 77.668 174.61 77.532C174.506 77.388 174.362 77.276 174.178 77.196C174.002 77.108 173.77 77.064 173.482 77.064C173.114 77.064 172.79 77.092 172.51 77.148C172.238 77.196 172.034 77.248 171.898 77.304L171.766 76.38C171.91 76.316 172.15 76.256 172.486 76.2C172.822 76.136 173.186 76.104 173.578 76.104ZM178.539 76.26V78.096C178.539 78.568 178.659 78.9 178.899 79.092C179.139 79.276 179.467 79.368 179.883 79.368C180.187 79.368 180.439 79.352 180.639 79.32C180.847 79.288 181.031 79.252 181.191 79.212V76.26H182.307V82.5H181.191V80.076C181.127 80.092 181.043 80.112 180.939 80.136C180.835 80.16 180.715 80.184 180.579 80.208C180.451 80.224 180.315 80.24 180.171 80.256C180.027 80.272 179.887 80.28 179.751 80.28C179.407 80.28 179.091 80.244 178.803 80.172C178.523 80.1 178.279 79.98 178.071 79.812C177.871 79.644 177.711 79.424 177.591 79.152C177.479 78.872 177.423 78.524 177.423 78.108V76.26H178.539ZM183.882 79.392C183.882 78.84 183.962 78.36 184.122 77.952C184.282 77.536 184.494 77.192 184.758 76.92C185.022 76.648 185.326 76.444 185.67 76.308C186.014 76.172 186.366 76.104 186.726 76.104C187.566 76.104 188.21 76.368 188.658 76.896C189.106 77.416 189.33 78.212 189.33 79.284C189.33 79.332 189.33 79.396 189.33 79.476C189.33 79.548 189.326 79.616 189.318 79.68H185.046C185.094 80.328 185.282 80.82 185.61 81.156C185.938 81.492 186.45 81.66 187.146 81.66C187.538 81.66 187.866 81.628 188.13 81.564C188.402 81.492 188.606 81.424 188.742 81.36L188.898 82.296C188.762 82.368 188.522 82.444 188.178 82.524C187.842 82.604 187.458 82.644 187.026 82.644C186.482 82.644 186.01 82.564 185.61 82.404C185.218 82.236 184.894 82.008 184.638 81.72C184.382 81.432 184.19 81.092 184.062 80.7C183.942 80.3 183.882 79.864 183.882 79.392ZM188.166 78.78C188.174 78.276 188.046 77.864 187.782 77.544C187.526 77.216 187.17 77.052 186.714 77.052C186.458 77.052 186.23 77.104 186.03 77.208C185.838 77.304 185.674 77.432 185.538 77.592C185.402 77.752 185.294 77.936 185.214 78.144C185.142 78.352 185.094 78.564 185.07 78.78H188.166ZM193.645 82.644C193.141 82.644 192.697 82.564 192.313 82.404C191.937 82.244 191.617 82.02 191.353 81.732C191.097 81.444 190.905 81.104 190.777 80.712C190.649 80.312 190.585 79.872 190.585 79.392C190.585 78.912 190.653 78.472 190.789 78.072C190.933 77.672 191.133 77.328 191.389 77.04C191.645 76.744 191.957 76.516 192.325 76.356C192.701 76.188 193.117 76.104 193.573 76.104C193.853 76.104 194.133 76.128 194.413 76.176C194.693 76.224 194.961 76.3 195.217 76.404L194.965 77.352C194.797 77.272 194.601 77.208 194.377 77.16C194.161 77.112 193.929 77.088 193.681 77.088C193.057 77.088 192.577 77.284 192.241 77.676C191.913 78.068 191.749 78.64 191.749 79.392C191.749 79.728 191.785 80.036 191.857 80.316C191.937 80.596 192.057 80.836 192.217 81.036C192.385 81.236 192.597 81.392 192.853 81.504C193.109 81.608 193.421 81.66 193.789 81.66C194.085 81.66 194.353 81.632 194.593 81.576C194.833 81.52 195.021 81.46 195.157 81.396L195.313 82.332C195.249 82.372 195.157 82.412 195.037 82.452C194.917 82.484 194.781 82.512 194.629 82.536C194.477 82.568 194.313 82.592 194.137 82.608C193.969 82.632 193.805 82.644 193.645 82.644ZM201.091 76.26V77.196H199.063V82.5H197.947V77.196H195.919V76.26H201.091ZM203.333 81.66C203.381 81.668 203.449 81.676 203.537 81.684C203.625 81.692 203.725 81.7 203.837 81.708C203.949 81.708 204.065 81.712 204.185 81.72C204.313 81.72 204.433 81.72 204.545 81.72C204.777 81.72 204.997 81.704 205.205 81.672C205.421 81.64 205.605 81.584 205.757 81.504C205.917 81.424 206.041 81.32 206.129 81.192C206.225 81.056 206.273 80.884 206.273 80.676C206.273 80.476 206.229 80.312 206.141 80.184C206.061 80.048 205.949 79.94 205.805 79.86C205.661 79.78 205.489 79.724 205.289 79.692C205.097 79.66 204.889 79.644 204.665 79.644H203.333V81.66ZM204.521 78.816C204.737 78.816 204.933 78.804 205.109 78.78C205.293 78.748 205.449 78.696 205.577 78.624C205.713 78.552 205.817 78.456 205.889 78.336C205.969 78.216 206.009 78.064 206.009 77.88C206.009 77.688 205.961 77.536 205.865 77.424C205.769 77.312 205.641 77.228 205.481 77.172C205.329 77.108 205.153 77.068 204.953 77.052C204.761 77.028 204.565 77.016 204.365 77.016C204.181 77.016 203.993 77.02 203.801 77.028C203.617 77.036 203.461 77.044 203.333 77.052V78.816H204.521ZM204.497 82.608C204.025 82.608 203.589 82.584 203.189 82.536C202.789 82.496 202.473 82.448 202.241 82.392V76.32C202.473 76.264 202.789 76.216 203.189 76.176C203.589 76.128 204.025 76.104 204.497 76.104C204.825 76.104 205.145 76.132 205.457 76.188C205.769 76.244 206.045 76.34 206.285 76.476C206.525 76.604 206.717 76.784 206.861 77.016C207.013 77.24 207.089 77.52 207.089 77.856C207.089 78.16 207.013 78.42 206.861 78.636C206.709 78.852 206.505 79.02 206.249 79.14C206.593 79.26 206.865 79.44 207.065 79.68C207.273 79.912 207.377 80.24 207.377 80.664C207.377 81.04 207.301 81.352 207.149 81.6C207.005 81.848 206.801 82.048 206.537 82.2C206.281 82.352 205.977 82.456 205.625 82.512C205.273 82.576 204.897 82.608 204.497 82.608ZM214.323 79.38C214.323 79.876 214.251 80.324 214.107 80.724C213.963 81.124 213.759 81.468 213.495 81.756C213.239 82.044 212.931 82.268 212.571 82.428C212.211 82.58 211.819 82.656 211.395 82.656C210.971 82.656 210.579 82.58 210.219 82.428C209.859 82.268 209.547 82.044 209.283 81.756C209.027 81.468 208.827 81.124 208.683 80.724C208.539 80.324 208.467 79.876 208.467 79.38C208.467 78.892 208.539 78.448 208.683 78.048C208.827 77.64 209.027 77.292 209.283 77.004C209.547 76.716 209.859 76.496 210.219 76.344C210.579 76.184 210.971 76.104 211.395 76.104C211.819 76.104 212.211 76.184 212.571 76.344C212.931 76.496 213.239 76.716 213.495 77.004C213.759 77.292 213.963 77.64 214.107 78.048C214.251 78.448 214.323 78.892 214.323 79.38ZM213.159 79.38C213.159 78.676 212.999 78.12 212.679 77.712C212.367 77.296 211.939 77.088 211.395 77.088C210.851 77.088 210.419 77.296 210.099 77.712C209.787 78.12 209.631 78.676 209.631 79.38C209.631 80.084 209.787 80.644 210.099 81.06C210.419 81.468 210.851 81.672 211.395 81.672C211.939 81.672 212.367 81.468 212.679 81.06C212.999 80.644 213.159 80.084 213.159 79.38ZM75.072 99.5H73.956V96.74H71.076V99.5H69.96V93.26H71.076V95.804H73.956V93.26H75.072V99.5ZM79.1033 98.696C79.3673 98.696 79.5993 98.692 79.7993 98.684C80.0073 98.668 80.1793 98.644 80.3153 98.612V96.752C80.2353 96.712 80.1033 96.68 79.9193 96.656C79.7433 96.624 79.5273 96.608 79.2713 96.608C79.1033 96.608 78.9233 96.62 78.7313 96.644C78.5473 96.668 78.3753 96.72 78.2153 96.8C78.0633 96.872 77.9353 96.976 77.8313 97.112C77.7273 97.24 77.6753 97.412 77.6753 97.628C77.6753 98.028 77.8033 98.308 78.0593 98.468C78.3153 98.62 78.6633 98.696 79.1033 98.696ZM79.0073 93.104C79.4553 93.104 79.8313 93.164 80.1353 93.284C80.4473 93.396 80.6953 93.56 80.8793 93.776C81.0713 93.984 81.2073 94.236 81.2873 94.532C81.3673 94.82 81.4073 95.14 81.4073 95.492V99.392C81.3113 99.408 81.1753 99.432 80.9993 99.464C80.8313 99.488 80.6393 99.512 80.4233 99.536C80.2073 99.56 79.9713 99.58 79.7153 99.596C79.4673 99.62 79.2193 99.632 78.9713 99.632C78.6193 99.632 78.2953 99.596 77.9993 99.524C77.7033 99.452 77.4473 99.34 77.2313 99.188C77.0153 99.028 76.8473 98.82 76.7273 98.564C76.6073 98.308 76.5473 98 76.5473 97.64C76.5473 97.296 76.6153 97 76.7513 96.752C76.8953 96.504 77.0873 96.304 77.3273 96.152C77.5673 96 77.8473 95.888 78.1673 95.816C78.4873 95.744 78.8233 95.708 79.1753 95.708C79.2873 95.708 79.4033 95.716 79.5233 95.732C79.6433 95.74 79.7553 95.756 79.8593 95.78C79.9713 95.796 80.0673 95.812 80.1473 95.828C80.2273 95.844 80.2833 95.856 80.3153 95.864V95.552C80.3153 95.368 80.2953 95.188 80.2553 95.012C80.2153 94.828 80.1433 94.668 80.0393 94.532C79.9353 94.388 79.7913 94.276 79.6073 94.196C79.4313 94.108 79.1993 94.064 78.9113 94.064C78.5433 94.064 78.2193 94.092 77.9393 94.148C77.6673 94.196 77.4633 94.248 77.3273 94.304L77.1953 93.38C77.3393 93.316 77.5793 93.256 77.9153 93.2C78.2513 93.136 78.6153 93.104 79.0073 93.104ZM88.3181 96.104C88.5661 96.28 88.8341 96.504 89.1221 96.776C89.4101 97.04 89.6901 97.328 89.9621 97.64C90.2421 97.952 90.5021 98.272 90.7421 98.6C90.9821 98.92 91.1861 99.22 91.3541 99.5H90.0341C89.8581 99.228 89.6501 98.952 89.4101 98.672C89.1781 98.384 88.9341 98.108 88.6781 97.844C88.4221 97.58 88.1621 97.336 87.8981 97.112C87.6341 96.888 87.3861 96.7 87.1541 96.548V99.5H86.0381V93.26H87.1541V95.936C87.3461 95.752 87.5661 95.54 87.8141 95.3C88.0621 95.052 88.3101 94.804 88.5581 94.556C88.8141 94.3 89.0501 94.06 89.2661 93.836C89.4821 93.604 89.6581 93.412 89.7941 93.26H91.0901C90.9141 93.452 90.7061 93.672 90.4661 93.92C90.2341 94.16 89.9901 94.408 89.7341 94.664C89.4861 94.92 89.2381 95.176 88.9901 95.432C88.7421 95.68 88.5181 95.904 88.3181 96.104ZM94.5954 98.696C94.8594 98.696 95.0914 98.692 95.2914 98.684C95.4994 98.668 95.6714 98.644 95.8074 98.612V96.752C95.7274 96.712 95.5954 96.68 95.4114 96.656C95.2354 96.624 95.0194 96.608 94.7634 96.608C94.5954 96.608 94.4154 96.62 94.2234 96.644C94.0394 96.668 93.8674 96.72 93.7074 96.8C93.5554 96.872 93.4274 96.976 93.3234 97.112C93.2194 97.24 93.1674 97.412 93.1674 97.628C93.1674 98.028 93.2954 98.308 93.5514 98.468C93.8074 98.62 94.1554 98.696 94.5954 98.696ZM94.4994 93.104C94.9474 93.104 95.3234 93.164 95.6274 93.284C95.9394 93.396 96.1874 93.56 96.3714 93.776C96.5634 93.984 96.6994 94.236 96.7794 94.532C96.8594 94.82 96.8994 95.14 96.8994 95.492V99.392C96.8034 99.408 96.6674 99.432 96.4914 99.464C96.3234 99.488 96.1314 99.512 95.9154 99.536C95.6994 99.56 95.4634 99.58 95.2074 99.596C94.9594 99.62 94.7114 99.632 94.4634 99.632C94.1114 99.632 93.7874 99.596 93.4914 99.524C93.1954 99.452 92.9394 99.34 92.7234 99.188C92.5074 99.028 92.3394 98.82 92.2194 98.564C92.0994 98.308 92.0394 98 92.0394 97.64C92.0394 97.296 92.1074 97 92.2434 96.752C92.3874 96.504 92.5794 96.304 92.8194 96.152C93.0594 96 93.3394 95.888 93.6594 95.816C93.9794 95.744 94.3154 95.708 94.6674 95.708C94.7794 95.708 94.8954 95.716 95.0154 95.732C95.1354 95.74 95.2474 95.756 95.3514 95.78C95.4634 95.796 95.5594 95.812 95.6394 95.828C95.7194 95.844 95.7754 95.856 95.8074 95.864V95.552C95.8074 95.368 95.7874 95.188 95.7474 95.012C95.7074 94.828 95.6354 94.668 95.5314 94.532C95.4274 94.388 95.2834 94.276 95.0994 94.196C94.9234 94.108 94.6914 94.064 94.4034 94.064C94.0354 94.064 93.7114 94.092 93.4314 94.148C93.1594 94.196 92.9554 94.248 92.8194 94.304L92.6874 93.38C92.8314 93.316 93.0714 93.256 93.4074 93.2C93.7434 93.136 94.1074 93.104 94.4994 93.104ZM106.445 93.26C106.285 93.46 106.105 93.68 105.905 93.92C105.705 94.152 105.497 94.396 105.281 94.652C105.065 94.9 104.845 95.148 104.621 95.396C104.405 95.644 104.197 95.88 103.997 96.104C104.237 96.336 104.485 96.588 104.741 96.86C104.997 97.132 105.245 97.416 105.485 97.712C105.733 98 105.969 98.3 106.193 98.612C106.417 98.916 106.613 99.212 106.781 99.5H105.533C105.365 99.236 105.169 98.96 104.945 98.672C104.729 98.376 104.501 98.092 104.261 97.82C104.029 97.548 103.793 97.296 103.553 97.064C103.321 96.824 103.105 96.628 102.905 96.476V99.5H101.837V96.476C101.637 96.628 101.417 96.824 101.177 97.064C100.945 97.296 100.709 97.548 100.469 97.82C100.237 98.092 100.009 98.376 99.785 98.672C99.569 98.96 99.377 99.236 99.209 99.5H97.973C98.141 99.212 98.333 98.916 98.549 98.612C98.773 98.308 99.005 98.012 99.245 97.724C99.493 97.428 99.745 97.144 100.001 96.872C100.257 96.6 100.505 96.348 100.745 96.116C100.545 95.892 100.333 95.656 100.109 95.408C99.893 95.16 99.677 94.912 99.461 94.664C99.245 94.408 99.037 94.164 98.837 93.932C98.637 93.692 98.453 93.468 98.285 93.26H99.521C99.809 93.62 100.141 94.02 100.517 94.46C100.893 94.9 101.333 95.408 101.837 95.984V93.26H102.905V95.984C103.409 95.408 103.849 94.9 104.225 94.46C104.601 94.02 104.933 93.62 105.221 93.26H106.445ZM107.419 98.588H108.091C108.355 98.204 108.563 97.808 108.715 97.4C108.875 96.992 108.995 96.572 109.075 96.14C109.155 95.7 109.207 95.244 109.231 94.772C109.255 94.292 109.271 93.788 109.279 93.26H113.371V98.588H114.211V101.24H113.155V99.5H108.475V101.24H107.419V98.588ZM112.255 98.588V94.196H110.299C110.291 94.572 110.271 94.952 110.239 95.336C110.207 95.712 110.155 96.088 110.083 96.464C110.011 96.832 109.907 97.196 109.771 97.556C109.643 97.908 109.479 98.252 109.279 98.588H112.255ZM120.925 96.38C120.925 96.876 120.853 97.324 120.709 97.724C120.565 98.124 120.361 98.468 120.097 98.756C119.841 99.044 119.533 99.268 119.173 99.428C118.813 99.58 118.421 99.656 117.997 99.656C117.573 99.656 117.181 99.58 116.821 99.428C116.461 99.268 116.149 99.044 115.885 98.756C115.629 98.468 115.429 98.124 115.285 97.724C115.141 97.324 115.069 96.876 115.069 96.38C115.069 95.892 115.141 95.448 115.285 95.048C115.429 94.64 115.629 94.292 115.885 94.004C116.149 93.716 116.461 93.496 116.821 93.344C117.181 93.184 117.573 93.104 117.997 93.104C118.421 93.104 118.813 93.184 119.173 93.344C119.533 93.496 119.841 93.716 120.097 94.004C120.361 94.292 120.565 94.64 120.709 95.048C120.853 95.448 120.925 95.892 120.925 96.38ZM119.761 96.38C119.761 95.676 119.601 95.12 119.281 94.712C118.969 94.296 118.541 94.088 117.997 94.088C117.453 94.088 117.021 94.296 116.701 94.712C116.389 95.12 116.233 95.676 116.233 96.38C116.233 97.084 116.389 97.644 116.701 98.06C117.021 98.468 117.453 98.672 117.997 98.672C118.541 98.672 118.969 98.468 119.281 98.06C119.601 97.644 119.761 97.084 119.761 96.38ZM123.683 94.904C123.603 95.696 123.543 96.488 123.503 97.28C123.463 98.064 123.431 98.804 123.407 99.5H122.339C122.355 99.012 122.379 98.504 122.411 97.976C122.443 97.44 122.479 96.904 122.519 96.368C122.559 95.824 122.603 95.292 122.651 94.772C122.699 94.244 122.751 93.74 122.807 93.26H123.827C124.083 93.676 124.383 94.248 124.727 94.976C125.071 95.696 125.467 96.528 125.915 97.472C126.363 96.528 126.759 95.696 127.103 94.976C127.447 94.248 127.747 93.676 128.003 93.26H129.035C129.091 93.74 129.143 94.244 129.191 94.772C129.239 95.292 129.283 95.824 129.323 96.368C129.363 96.904 129.399 97.44 129.431 97.976C129.463 98.504 129.487 99.012 129.503 99.5H128.399C128.375 98.804 128.343 98.064 128.303 97.28C128.263 96.488 128.203 95.696 128.123 94.904C127.995 95.152 127.847 95.452 127.679 95.804C127.511 96.148 127.343 96.5 127.175 96.86C127.015 97.22 126.863 97.564 126.719 97.892C126.575 98.22 126.463 98.48 126.383 98.672H125.447C125.359 98.472 125.239 98.208 125.087 97.88C124.943 97.552 124.787 97.208 124.619 96.848C124.459 96.48 124.295 96.124 124.127 95.78C123.959 95.428 123.811 95.136 123.683 94.904ZM138.454 96.356C138.454 96.836 138.39 97.276 138.262 97.676C138.142 98.076 137.954 98.424 137.698 98.72C137.442 99.008 137.122 99.236 136.738 99.404C136.354 99.564 135.906 99.644 135.394 99.644C134.946 99.644 134.55 99.608 134.206 99.536C133.862 99.464 133.626 99.392 133.498 99.32L133.654 98.372C133.726 98.412 133.822 98.448 133.942 98.48C134.062 98.512 134.194 98.544 134.338 98.576C134.49 98.6 134.646 98.62 134.806 98.636C134.966 98.652 135.126 98.66 135.286 98.66C135.934 98.66 136.418 98.492 136.738 98.156C137.066 97.812 137.254 97.34 137.302 96.74H134.758V95.84H137.278C137.206 95.304 137.014 94.88 136.702 94.568C136.398 94.248 135.946 94.088 135.346 94.088C135.018 94.088 134.73 94.116 134.482 94.172C134.234 94.22 134.042 94.276 133.906 94.34L133.666 93.44C133.746 93.4 133.85 93.36 133.978 93.32C134.114 93.28 134.258 93.244 134.41 93.212C134.57 93.18 134.734 93.156 134.902 93.14C135.07 93.116 135.234 93.104 135.394 93.104C135.898 93.104 136.338 93.188 136.714 93.356C137.098 93.524 137.418 93.756 137.674 94.052C137.93 94.348 138.122 94.692 138.25 95.084C138.386 95.476 138.454 95.9 138.454 96.356ZM144.43 93.26V94.196H142.402V99.5H141.286V94.196H139.258V93.26H144.43ZM147.693 98.696C147.957 98.696 148.189 98.692 148.389 98.684C148.597 98.668 148.769 98.644 148.905 98.612V96.752C148.825 96.712 148.693 96.68 148.509 96.656C148.333 96.624 148.117 96.608 147.861 96.608C147.693 96.608 147.513 96.62 147.321 96.644C147.137 96.668 146.965 96.72 146.805 96.8C146.653 96.872 146.525 96.976 146.421 97.112C146.317 97.24 146.265 97.412 146.265 97.628C146.265 98.028 146.393 98.308 146.649 98.468C146.905 98.62 147.253 98.696 147.693 98.696ZM147.597 93.104C148.045 93.104 148.421 93.164 148.725 93.284C149.037 93.396 149.285 93.56 149.469 93.776C149.661 93.984 149.797 94.236 149.877 94.532C149.957 94.82 149.997 95.14 149.997 95.492V99.392C149.901 99.408 149.765 99.432 149.589 99.464C149.421 99.488 149.229 99.512 149.013 99.536C148.797 99.56 148.561 99.58 148.305 99.596C148.057 99.62 147.809 99.632 147.561 99.632C147.209 99.632 146.885 99.596 146.589 99.524C146.293 99.452 146.037 99.34 145.821 99.188C145.605 99.028 145.437 98.82 145.317 98.564C145.197 98.308 145.137 98 145.137 97.64C145.137 97.296 145.205 97 145.341 96.752C145.485 96.504 145.677 96.304 145.917 96.152C146.157 96 146.437 95.888 146.757 95.816C147.077 95.744 147.413 95.708 147.765 95.708C147.877 95.708 147.993 95.716 148.113 95.732C148.233 95.74 148.345 95.756 148.449 95.78C148.561 95.796 148.657 95.812 148.737 95.828C148.817 95.844 148.873 95.856 148.905 95.864V95.552C148.905 95.368 148.885 95.188 148.845 95.012C148.805 94.828 148.733 94.668 148.629 94.532C148.525 94.388 148.381 94.276 148.197 94.196C148.021 94.108 147.789 94.064 147.501 94.064C147.133 94.064 146.809 94.092 146.529 94.148C146.257 94.196 146.053 94.248 145.917 94.304L145.785 93.38C145.929 93.316 146.169 93.256 146.505 93.2C146.841 93.136 147.205 93.104 147.597 93.104ZM156.867 99.5H155.751V94.196H152.967V99.5H151.851V93.26H156.867V99.5ZM158.44 96.392C158.44 95.84 158.52 95.36 158.68 94.952C158.84 94.536 159.052 94.192 159.316 93.92C159.58 93.648 159.884 93.444 160.228 93.308C160.572 93.172 160.924 93.104 161.284 93.104C162.124 93.104 162.768 93.368 163.216 93.896C163.664 94.416 163.888 95.212 163.888 96.284C163.888 96.332 163.888 96.396 163.888 96.476C163.888 96.548 163.884 96.616 163.876 96.68H159.604C159.652 97.328 159.84 97.82 160.168 98.156C160.496 98.492 161.008 98.66 161.704 98.66C162.096 98.66 162.424 98.628 162.688 98.564C162.96 98.492 163.164 98.424 163.3 98.36L163.456 99.296C163.32 99.368 163.08 99.444 162.736 99.524C162.4 99.604 162.016 99.644 161.584 99.644C161.04 99.644 160.568 99.564 160.168 99.404C159.776 99.236 159.452 99.008 159.196 98.72C158.94 98.432 158.748 98.092 158.62 97.7C158.5 97.3 158.44 96.864 158.44 96.392ZM162.724 95.78C162.732 95.276 162.604 94.864 162.34 94.544C162.084 94.216 161.728 94.052 161.272 94.052C161.016 94.052 160.788 94.104 160.588 94.208C160.396 94.304 160.232 94.432 160.096 94.592C159.96 94.752 159.852 94.936 159.772 95.144C159.7 95.352 159.652 95.564 159.628 95.78H162.724Z" fill="#1A1A1A"/>
</svg>
