<svg xmlns="http://www.w3.org/2000/svg" width="24" height="25" viewBox="0 0 24 25" fill="none">
  <path d="M10.7407 1.25645C10.8691 1.02629 11.0529 0.835313 11.274 0.702581C11.495 0.56985 11.7455 0.5 12.0004 0.5C12.2554 0.5 12.5059 0.56985 12.7269 0.702581C12.9479 0.835313 13.1318 1.02629 13.2602 1.25645L16.0829 7.51069L22.8516 8.53778C23.1006 8.59433 23.3311 8.7181 23.5201 8.89677C23.7091 9.07543 23.85 9.30273 23.9287 9.55602C24.0074 9.80931 24.0212 10.0797 23.9687 10.3403C23.9163 10.6009 23.7993 10.8426 23.6296 11.0413L19.3139 16.0885L19.967 22.8225C19.9928 23.0877 19.9516 23.3553 19.8474 23.5986C19.7433 23.8419 19.5798 24.0524 19.3735 24.209C19.1671 24.3657 18.9251 24.463 18.6714 24.4914C18.4178 24.5197 18.1615 24.478 17.9282 24.3705L12.0004 20.9179L6.07272 24.3705C5.83934 24.478 5.58305 24.5197 5.32943 24.4914C5.07581 24.463 4.83373 24.3657 4.62738 24.209C4.42103 24.0524 4.25762 23.8419 4.15347 23.5986C4.04931 23.3553 4.00806 23.0877 4.03383 22.8225L4.68702 16.0885L0.371287 11.0425C0.201256 10.8438 0.0840642 10.6021 0.0314103 10.3413C-0.0212436 10.0805 -0.00751692 9.80991 0.0712199 9.55643C0.149957 9.30294 0.290949 9.07547 0.480121 8.89672C0.669293 8.71798 0.900026 8.59421 1.14929 8.53778L7.918 7.51069L10.7407 1.25645Z" fill="#F5B63B"/>
</svg>