<svg xmlns="http://www.w3.org/2000/svg" width="24" height="24" viewBox="0 0 24 24" fill="none">
  <path d="M12 18.0616L17.894 21.8101C17.9419 21.8406 17.9994 21.8501 18.054 21.8365C18.168 21.8082 18.2385 21.6889 18.2112 21.5701L16.6087 14.5751L21.854 9.89678C21.8966 9.85878 21.923 9.80476 21.9275 9.74653C21.9369 9.62481 21.8497 9.51822 21.7328 9.50846L14.8483 8.93379L12.196 2.29394C12.1745 2.24 12.1333 2.19713 12.0815 2.1747C11.9732 2.12781 11.8489 2.18119 11.8039 2.29394L9.15157 8.93379L2.26714 9.50846C2.21121 9.51313 2.15933 9.54066 2.12283 9.58502C2.04654 9.67776 2.05689 9.81734 2.14596 9.89678L7.39118 14.5751L5.78868 21.5701C5.77566 21.627 5.78477 21.6868 5.81401 21.7367C5.87514 21.8409 6.00584 21.8738 6.10592 21.8101L12 18.0616ZM12 20.5893L7.18581 23.651C6.10928 24.3357 4.70355 23.982 4.04601 22.8611C3.73145 22.3249 3.63348 21.6808 3.7735 21.0696L5.0824 15.3562L0.798193 11.535C-0.159828 10.6805 -0.271191 9.17921 0.549455 8.18169C0.942042 7.70449 1.50005 7.40845 2.10158 7.35824L7.72467 6.88885L9.89104 1.46554C10.3755 0.252793 11.7124 -0.321426 12.8771 0.182983C13.4343 0.424286 13.8771 0.885377 14.1089 1.46554L16.2753 6.88885L21.8983 7.35824C23.1558 7.4632 24.0934 8.60965 23.9926 9.91891C23.9443 10.5452 23.66 11.1263 23.2017 11.535L18.9175 15.3562L20.2264 21.0696C20.5191 22.3472 19.7617 23.63 18.5347 23.9348C17.9477 24.0805 17.3291 23.9785 16.8141 23.651L12 20.5893Z" fill="#F5B63B"/>
</svg>