<svg width="29" height="28" viewBox="0 0 29 28" fill="none" xmlns="http://www.w3.org/2000/svg">
<g id="truck">
<path id="Icon" d="M6.4998 19.8667H5.43314C4.25493 19.8667 3.2998 18.9115 3.2998 17.7333V8.13333C3.2998 6.95513 4.25493 6 5.43314 6H15.0331C16.2113 6 17.1665 6.95513 17.1665 8.13333V17.7333C17.1665 18.9115 16.2113 19.8667 15.0331 19.8667H13.9665M18.7665 19.8667H18.2331C17.644 19.8667 17.1665 19.3891 17.1665 18.8V9.73333C17.1665 9.14423 17.644 8.66667 18.2331 8.66667H20.9205C21.2445 8.66667 21.551 8.81396 21.7534 9.06699L25.4661 13.7078C25.6174 13.897 25.6998 14.132 25.6998 14.3742V18.8C25.6998 19.3891 25.2222 19.8667 24.6331 19.8667M12.8998 19.3333C12.8998 20.8061 11.7059 22 10.2331 22C8.76038 22 7.56647 20.8061 7.56647 19.3333C7.56647 17.8606 8.76038 16.6667 10.2331 16.6667C11.7059 16.6667 12.8998 17.8606 12.8998 19.3333ZM24.0998 19.3333C24.0998 20.8061 22.9059 22 21.4331 22C19.9604 22 18.7665 20.8061 18.7665 19.3333C18.7665 17.8606 19.9604 16.6667 21.4331 16.6667C22.9059 16.6667 24.0998 17.8606 24.0998 19.3333Z" stroke="#B8B8B8" stroke-width="2" stroke-linecap="round"/>
</g>
</svg>
