<svg xmlns="http://www.w3.org/2000/svg" width="112" height="105" viewBox="0 0 112 105" fill="none">
	<rect width="112" height="105" rx="8" fill="white"/>
	<path d="M63.6923 40.5001C67.9407 40.5001 71.3846 37.1422 71.3846 33C71.3846 28.8579 67.9407 25.5 63.6923 25.5C59.444 25.5 56 28.8579 56 33C56 37.1422 59.444 40.5001 63.6923 40.5001Z" fill="#80D25B"/>
	<path fill-rule="evenodd" clip-rule="evenodd" d="M22.1538 33H69.8461V93.0003H22.1538V33Z" fill="#5EA7FF"/>
	<path d="M45.2308 81.0001C50.3288 81.0001 54.4615 76.9706 54.4615 72C54.4615 67.0295 50.3288 63 45.2308 63C40.1328 63 36 67.0295 36 72C36 76.9706 40.1328 81.0001 45.2308 81.0001Z" fill="#F3B156"/>
	<path d="M29.8461 40.5001C34.0945 40.5001 37.5384 37.1422 37.5384 33C37.5384 28.8579 34.0945 25.5 29.8461 25.5C25.5978 25.5 22.1538 28.8579 22.1538 33C22.1538 37.1422 25.5978 40.5001 29.8461 40.5001Z" fill="#22BA8E"/>
	<path d="M82.1537 28.5001C86.4021 28.5001 89.846 25.1422 89.846 21C89.846 16.8579 86.4021 13.5 82.1537 13.5C77.9054 13.5 74.4614 16.8579 74.4614 21C74.4614 25.1422 77.9054 28.5001 82.1537 28.5001Z" fill="#80D25B"/>
	<path d="M39.077 34.5001C44.175 34.5001 48.3077 30.4706 48.3077 25.5C48.3077 20.5295 44.175 16.5 39.077 16.5C33.9789 16.5 29.8462 20.5295 29.8462 25.5C29.8462 30.4706 33.9789 34.5001 39.077 34.5001Z" fill="#80D25B"/>
	<path d="M69.846 33.0001C74.944 33.0001 79.0768 28.9706 79.0768 24C79.0768 19.0295 74.944 15 69.846 15C64.748 15 60.6152 19.0295 60.6152 24C60.6152 28.9706 64.748 33.0001 69.846 33.0001Z" fill="#22BA8E"/>
	<path d="M52.9231 30.0001C58.0211 30.0001 62.1538 25.9706 62.1538 21C62.1538 16.0295 58.0211 12 52.9231 12C47.8251 12 43.6923 16.0295 43.6923 21C43.6923 25.9706 47.8251 30.0001 52.9231 30.0001Z" fill="#80D25B"/>
	<path d="M49.8464 37.5001C54.0947 37.5001 57.5387 34.1422 57.5387 30C57.5387 25.8579 54.0947 22.5 49.8464 22.5C45.598 22.5 42.1541 25.8579 42.1541 30C42.1541 34.1422 45.598 37.5001 49.8464 37.5001Z" fill="#22BA8E"/>
	<path d="M60.6153 27.0001C64.8636 27.0001 68.3076 23.6422 68.3076 19.5C68.3076 15.3579 64.8636 12 60.6153 12C56.367 12 52.923 15.3579 52.923 19.5C52.923 23.6422 56.367 27.0001 60.6153 27.0001Z" fill="#80D25B"/>
	<path fill-rule="evenodd" clip-rule="evenodd" d="M69.8459 33.0001L88.3075 19.5V76.5003L69.8459 93.0004V33.0001Z" fill="#5B68C0"/>
	<path fill-rule="evenodd" clip-rule="evenodd" d="M69.8459 33.0001L88.3075 16.5L95.9998 30.0001L79.0767 49.5002L69.8459 33.0001Z" fill="#5EA7FF"/>
	<path fill-rule="evenodd" clip-rule="evenodd" d="M22.1538 33H69.8461L63.6923 51.0001H16L22.1538 33Z" fill="#B4DFFB"/>
</svg>
