<svg width="282" height="396" viewBox="0 0 282 396" fill="none" xmlns="http://www.w3.org/2000/svg">
<path fill-rule="evenodd" clip-rule="evenodd" d="M231.667 107.489C228.613 98.5789 227.211 89.1282 225.86 79.8063C219.477 35.7528 183.633 5 140.371 5C96.2832 5 59.899 38.9369 54.5486 82.8064C53.6492 90.1808 52.5934 97.8293 50.3402 104.908C44.9217 121.932 40.5754 136.997 37.1955 150.307C30.4215 165.923 23.0133 187.097 14.3061 215.578C6.46623 241.222 0.951439 268.697 8.81785 294.333C25.988 350.288 78.3904 391 140.371 391C206.484 391 261.699 344.679 274.881 282.945C278.853 264.346 275.411 244.987 270.29 226.671C259.121 186.726 250.046 159.394 241.816 140.99C239.251 130.955 235.896 119.826 231.667 107.489Z" fill="#C8E08D"/>
<path d="M225.86 79.8063L230.809 79.0893H230.809L225.86 79.8063ZM231.667 107.489L236.397 105.868L231.667 107.489ZM54.5486 82.8064L59.5118 83.4117L54.5486 82.8064ZM50.3402 104.908L45.5757 103.392L50.3402 104.908ZM37.1955 150.307L41.7825 152.296L41.9427 151.927L42.0417 151.537L37.1955 150.307ZM14.3061 215.578L9.52454 214.116L14.3061 215.578ZM8.81785 294.333L4.03783 295.8H4.03783L8.81785 294.333ZM274.881 282.945L279.771 283.989L274.881 282.945ZM270.29 226.671L275.106 225.325L270.29 226.671ZM241.816 140.99L236.971 142.228L237.077 142.641L237.251 143.031L241.816 140.99ZM220.912 80.5233C222.253 89.78 223.708 99.6888 226.937 109.11L236.397 105.868C233.518 97.4689 232.169 88.4765 230.809 79.0893L220.912 80.5233ZM140.371 10C181.126 10 214.882 38.9064 220.912 80.5233L230.809 79.0893C224.072 32.5992 186.14 2.98023e-07 140.371 2.98023e-07V10ZM59.5118 83.4117C64.5737 41.9084 98.9516 10 140.371 10V2.98023e-07C93.6148 2.98023e-07 55.2244 35.9654 49.5854 82.2011L59.5118 83.4117ZM55.1047 106.425C57.5158 98.8496 58.6136 90.7764 59.5118 83.4117L49.5854 82.2011C48.6848 89.5852 47.671 96.809 45.5757 103.392L55.1047 106.425ZM42.0417 151.537C45.3922 138.343 49.7095 123.376 55.1047 106.425L45.5757 103.392C40.134 120.489 35.7586 135.65 32.3493 149.076L42.0417 151.537ZM19.0876 217.04C27.7753 188.622 35.1195 167.657 41.7825 152.296L32.6085 148.317C25.7235 164.189 18.2513 185.571 9.52454 214.116L19.0876 217.04ZM13.5979 292.866C6.20013 268.758 11.2927 242.536 19.0876 217.04L9.52454 214.116C1.63972 239.907 -4.29725 268.637 4.03783 295.8L13.5979 292.866ZM140.371 386C80.6275 386 30.1357 346.761 13.5979 292.866L4.03783 295.8C21.8403 353.816 76.1533 396 140.371 396V386ZM269.992 281.901C257.297 341.351 204.101 386 140.371 386V396C208.867 396 266.102 348.006 279.771 283.989L269.992 281.901ZM265.475 228.017C270.537 246.122 273.703 264.518 269.992 281.901L279.771 283.989C284.002 264.174 280.286 243.851 275.106 225.325L265.475 228.017ZM237.251 143.031C245.322 161.08 254.318 188.115 265.475 228.017L275.106 225.325C263.925 185.337 254.769 157.708 246.38 138.949L237.251 143.031ZM226.937 109.11C231.131 121.345 234.446 132.344 236.971 142.228L246.66 139.752C244.057 129.565 240.661 118.307 236.397 105.868L226.937 109.11Z" fill="#967C65"/>
<circle cx="137.871" cy="260" r="82" fill="#7E6452"/>
<path d="M219.371 255.5C219.371 300.787 181.158 337.5 135.871 337.5C103.038 337.5 74.7119 320.155 61.6154 291.942C51.101 269.292 54.2145 242.054 66.445 220.283C81.7109 193.108 107.367 177.5 139.371 177.5C175.871 177.5 219.371 210.213 219.371 255.5Z" fill="#967C65"/>
<path d="M153.371 141C148.538 145.333 136.471 151.4 126.871 141" stroke="black" stroke-width="5" stroke-linecap="round"/>
<ellipse cx="92.5994" cy="212.218" rx="7" ry="13.5" transform="rotate(48.1791 92.5994 212.218)" fill="#AD9585"/>
<circle cx="105.371" cy="119.5" r="14.5" fill="#111112"/>
<circle cx="210.871" cy="139" r="8" fill="#EEAACD"/>
<circle cx="70.8712" cy="139" r="8" fill="#EEAACD"/>
<circle cx="100.371" cy="118.5" r="4.5" fill="#FAF0E9"/>
<circle cx="174.371" cy="119.5" r="14.5" fill="#111112"/>
<circle cx="169.371" cy="118.5" r="4.5" fill="#FAF0E9"/>
<circle cx="178.371" cy="125.5" r="2.5" fill="#FAF0E9"/>
<circle cx="111.371" cy="125.5" r="2.5" fill="#FAF0E9"/>
<path d="M129.871 21C118.538 21.9334 99.4171 25.5335 81.9821 50.2339C72.0754 64.2688 69.0934 81.9207 65.603 98.7415C64.179 105.604 62.6059 112.356 61.3714 117.5C58.3714 130 46.3719 162.5 26.3714 226C19.4421 248 16.7538 271.5 22.8715 287.5C35.8715 321.5 44.8714 341 100.371 371" stroke="#E9F0BD" stroke-width="8" stroke-linecap="round"/>
</svg>
