<svg width="28" height="28" viewBox="0 0 28 28" fill="none" xmlns="http://www.w3.org/2000/svg">
<path d="M4.66666 13.9987C4.66666 14.3081 4.78958 14.6049 5.00837 14.8237C5.22717 15.0424 5.52391 15.1654 5.83333 15.1654H14.6883L12.005 17.837C11.8956 17.9455 11.8089 18.0745 11.7496 18.2167C11.6904 18.3589 11.6599 18.5114 11.6599 18.6654C11.6599 18.8194 11.6904 18.9719 11.7496 19.114C11.8089 19.2562 11.8956 19.3852 12.005 19.4937C12.1135 19.603 12.2425 19.6898 12.3847 19.7491C12.5268 19.8083 12.6793 19.8388 12.8333 19.8388C12.9873 19.8388 13.1398 19.8083 13.282 19.7491C13.4242 19.6898 13.5532 19.603 13.6617 19.4937L18.3283 14.827C18.4345 14.7161 18.5178 14.5852 18.5733 14.442C18.69 14.158 18.69 13.8394 18.5733 13.5554C18.5178 13.4122 18.4345 13.2813 18.3283 13.1704L13.6617 8.5037C13.5529 8.39492 13.4237 8.30863 13.2816 8.24976C13.1395 8.19089 12.9872 8.16059 12.8333 8.16059C12.6795 8.16059 12.5272 8.19089 12.385 8.24976C12.2429 8.30863 12.1138 8.39492 12.005 8.5037C11.8962 8.61248 11.8099 8.74162 11.7511 8.88374C11.6922 9.02587 11.6619 9.1782 11.6619 9.33203C11.6619 9.48587 11.6922 9.6382 11.7511 9.78032C11.8099 9.92245 11.8962 10.0516 12.005 10.1604L14.6883 12.832H5.83333C5.52391 12.832 5.22717 12.9549 5.00837 13.1737C4.78958 13.3925 4.66666 13.6893 4.66666 13.9987ZM19.8333 2.33203H8.16666C7.23841 2.33203 6.34817 2.70078 5.69179 3.35716C5.03541 4.01354 4.66666 4.90377 4.66666 5.83203V9.33203C4.66666 9.64145 4.78958 9.9382 5.00837 10.157C5.22717 10.3758 5.52391 10.4987 5.83333 10.4987C6.14275 10.4987 6.4395 10.3758 6.65829 10.157C6.87708 9.9382 7 9.64145 7 9.33203V5.83203C7 5.52261 7.12291 5.22587 7.34171 5.00707C7.5605 4.78828 7.85724 4.66536 8.16666 4.66536H19.8333C20.1427 4.66536 20.4395 4.78828 20.6583 5.00707C20.8771 5.22587 21 5.52261 21 5.83203V22.1654C21 22.4748 20.8771 22.7715 20.6583 22.9903C20.4395 23.2091 20.1427 23.332 19.8333 23.332H8.16666C7.85724 23.332 7.5605 23.2091 7.34171 22.9903C7.12291 22.7715 7 22.4748 7 22.1654V18.6654C7 18.3559 6.87708 18.0592 6.65829 17.8404C6.4395 17.6216 6.14275 17.4987 5.83333 17.4987C5.52391 17.4987 5.22717 17.6216 5.00837 17.8404C4.78958 18.0592 4.66666 18.3559 4.66666 18.6654V22.1654C4.66666 23.0936 5.03541 23.9839 5.69179 24.6402C6.34817 25.2966 7.23841 25.6654 8.16666 25.6654H19.8333C20.7616 25.6654 21.6518 25.2966 22.3082 24.6402C22.9646 23.9839 23.3333 23.0936 23.3333 22.1654V5.83203C23.3333 4.90377 22.9646 4.01354 22.3082 3.35716C21.6518 2.70078 20.7616 2.33203 19.8333 2.33203Z" fill="#1A1A1A"/>
</svg>
