<svg width="28" height="28" viewBox="0 0 28 28" fill="none" xmlns="http://www.w3.org/2000/svg">
	<path fill-rule="evenodd" clip-rule="evenodd"
		d="M4.4408 7.24086C5.49095 6.19103 6.91508 5.60126 8.4 5.60126C9.88491 5.60126 11.309 6.19103 12.3592 7.24086L14 8.88026L15.6408 7.24086C16.1574 6.70601 16.7753 6.27939 17.4585 5.9859C18.1417 5.69241 18.8766 5.53792 19.6201 5.53146C20.3637 5.525 21.1011 5.66669 21.7893 5.94826C22.4776 6.22984 23.1028 6.64565 23.6286 7.17145C24.1544 7.69725 24.5702 8.3225 24.8518 9.01072C25.1334 9.69894 25.2751 10.4363 25.2686 11.1799C25.2621 11.9235 25.1076 12.6583 24.8142 13.3415C24.5207 14.0248 24.094 14.6427 23.5592 15.1593L14 24.7199L4.4408 15.1593C3.39096 14.1091 2.80119 12.685 2.80119 11.2001C2.80119 9.71514 3.39096 8.29102 4.4408 7.24086V7.24086Z"
		stroke-width="2" stroke-linejoin="round" />
</svg>