<svg width="120" height="124" viewBox="0 0 120 124" fill="none" xmlns="http://www.w3.org/2000/svg">
<path fill-rule="evenodd" clip-rule="evenodd" d="M60 0C93.084 0 120 27.7292 120 61.8127C120 95.8962 93.084 123.625 60 123.625C26.916 123.625 0 95.8962 0 61.8127C0 27.7292 26.916 0 60 0ZM97.44 92.719C92.9488 98.5047 87.2518 103.175 80.7708 106.385C74.2898 109.595 67.191 111.261 60 111.261C52.809 111.261 45.7102 109.595 39.2292 106.385C32.7482 103.175 27.0512 98.5047 22.56 92.719C27.0512 86.9334 32.7482 82.2627 39.2292 79.053C45.7102 75.8433 52.809 74.1767 60 74.1767C67.191 74.1767 74.2898 75.8433 80.7708 79.053C87.2518 82.2627 92.9488 86.9334 97.44 92.719ZM60 61.8127C62.3638 61.8127 64.7044 61.333 66.8883 60.4011C69.0722 59.4692 71.0565 58.1033 72.7279 56.3813C74.3994 54.6594 75.7253 52.6151 76.6298 50.3653C77.5344 48.1155 78 45.7041 78 43.2689C78 40.8337 77.5344 38.4223 76.6298 36.1725C75.7253 33.9226 74.3994 31.8784 72.7279 30.1564C71.0565 28.4345 69.0722 27.0686 66.8883 26.1366C64.7044 25.2047 62.3638 24.7251 60 24.7251C55.2261 24.7251 50.6477 26.6788 47.2721 30.1564C43.8964 33.6341 42 38.3508 42 43.2689C42 48.187 43.8964 52.9037 47.2721 56.3813C50.6477 59.859 55.2261 61.8127 60 61.8127Z" fill="#B8B8B8"/>
</svg>
